<?xml version="1.0" encoding="UTF-8"?>
<svg xmlns="http://www.w3.org/2000/svg" xmlns:xlink="http://www.w3.org/1999/xlink" width="396pt" height="252pt" viewBox="0 0 396 252">
<defs>
<g>
<g id="glyph-0-0">
<path d="M 3.265625 -2.171875 C 3.265625 -1.453125 3.132812 -0.898438 2.875 -0.515625 C 2.625 -0.128906 2.25 0.0625 1.75 0.0625 C 1.25 0.0625 0.875 -0.125 0.625 -0.5 C 0.375 -0.882812 0.25 -1.441406 0.25 -2.171875 C 0.25 -2.921875 0.367188 -3.484375 0.609375 -3.859375 C 0.859375 -4.234375 1.242188 -4.421875 1.765625 -4.421875 C 2.285156 -4.421875 2.664062 -4.226562 2.90625 -3.84375 C 3.144531 -3.46875 3.265625 -2.910156 3.265625 -2.171875 Z M 2.703125 -2.171875 C 2.703125 -2.804688 2.628906 -3.265625 2.484375 -3.546875 C 2.335938 -3.828125 2.097656 -3.96875 1.765625 -3.96875 C 1.421875 -3.96875 1.175781 -3.828125 1.03125 -3.546875 C 0.882812 -3.273438 0.8125 -2.816406 0.8125 -2.171875 C 0.8125 -1.554688 0.882812 -1.101562 1.03125 -0.8125 C 1.1875 -0.53125 1.429688 -0.390625 1.765625 -0.390625 C 2.085938 -0.390625 2.320312 -0.535156 2.46875 -0.828125 C 2.625 -1.117188 2.703125 -1.566406 2.703125 -2.171875 Z M 2.703125 -2.171875 "/>
</g>
<g id="glyph-0-1">
<path d="M 0.578125 0 L 0.578125 -0.671875 L 1.1875 -0.671875 L 1.1875 0 Z M 0.578125 0 "/>
</g>
<g id="glyph-0-2">
<path d="M 3.203125 -3.90625 C 2.753906 -3.226562 2.4375 -2.695312 2.25 -2.3125 C 2.070312 -1.925781 1.9375 -1.546875 1.84375 -1.171875 C 1.75 -0.796875 1.703125 -0.40625 1.703125 0 L 1.125 0 C 1.125 -0.550781 1.238281 -1.132812 1.46875 -1.75 C 1.707031 -2.363281 2.101562 -3.070312 2.65625 -3.875 L 0.328125 -3.875 L 0.328125 -4.359375 L 3.203125 -4.359375 Z M 3.203125 -3.90625 "/>
</g>
<g id="glyph-0-3">
<path d="M 3.25 -1.421875 C 3.25 -0.960938 3.113281 -0.597656 2.84375 -0.328125 C 2.570312 -0.0664062 2.191406 0.0625 1.703125 0.0625 C 1.296875 0.0625 0.96875 -0.0234375 0.71875 -0.203125 C 0.476562 -0.378906 0.320312 -0.632812 0.25 -0.96875 L 0.8125 -1.03125 C 0.925781 -0.601562 1.226562 -0.390625 1.71875 -0.390625 C 2.019531 -0.390625 2.253906 -0.476562 2.421875 -0.65625 C 2.585938 -0.84375 2.671875 -1.09375 2.671875 -1.40625 C 2.671875 -1.675781 2.585938 -1.894531 2.421875 -2.0625 C 2.253906 -2.238281 2.023438 -2.328125 1.734375 -2.328125 C 1.585938 -2.328125 1.445312 -2.300781 1.3125 -2.25 C 1.1875 -2.207031 1.054688 -2.128906 0.921875 -2.015625 L 0.375 -2.015625 L 0.53125 -4.359375 L 3 -4.359375 L 3 -3.875 L 1.03125 -3.875 L 0.953125 -2.5 C 1.191406 -2.6875 1.488281 -2.78125 1.84375 -2.78125 C 2.269531 -2.78125 2.609375 -2.65625 2.859375 -2.40625 C 3.117188 -2.15625 3.25 -1.828125 3.25 -1.421875 Z M 3.25 -1.421875 "/>
</g>
<g id="glyph-0-4">
<path d="M 3.25 -1.21875 C 3.25 -0.8125 3.117188 -0.492188 2.859375 -0.265625 C 2.609375 -0.046875 2.242188 0.0625 1.765625 0.0625 C 1.296875 0.0625 0.929688 -0.046875 0.671875 -0.265625 C 0.410156 -0.484375 0.28125 -0.796875 0.28125 -1.203125 C 0.28125 -1.492188 0.359375 -1.734375 0.515625 -1.921875 C 0.679688 -2.117188 0.890625 -2.238281 1.140625 -2.28125 L 1.140625 -2.296875 C 0.898438 -2.347656 0.710938 -2.460938 0.578125 -2.640625 C 0.441406 -2.828125 0.375 -3.046875 0.375 -3.296875 C 0.375 -3.628906 0.5 -3.898438 0.75 -4.109375 C 1 -4.316406 1.332031 -4.421875 1.75 -4.421875 C 2.175781 -4.421875 2.515625 -4.316406 2.765625 -4.109375 C 3.015625 -3.910156 3.140625 -3.640625 3.140625 -3.296875 C 3.140625 -3.046875 3.066406 -2.828125 2.921875 -2.640625 C 2.785156 -2.453125 2.597656 -2.335938 2.359375 -2.296875 L 2.359375 -2.28125 C 2.640625 -2.238281 2.859375 -2.117188 3.015625 -1.921875 C 3.171875 -1.734375 3.25 -1.5 3.25 -1.21875 Z M 2.5625 -3.265625 C 2.5625 -3.753906 2.289062 -4 1.75 -4 C 1.488281 -4 1.289062 -3.9375 1.15625 -3.8125 C 1.019531 -3.695312 0.953125 -3.515625 0.953125 -3.265625 C 0.953125 -3.015625 1.019531 -2.820312 1.15625 -2.6875 C 1.300781 -2.5625 1.5 -2.5 1.75 -2.5 C 2.007812 -2.5 2.207031 -2.554688 2.34375 -2.671875 C 2.488281 -2.796875 2.5625 -2.992188 2.5625 -3.265625 Z M 2.671875 -1.265625 C 2.671875 -1.535156 2.585938 -1.738281 2.421875 -1.875 C 2.265625 -2.007812 2.039062 -2.078125 1.75 -2.078125 C 1.46875 -2.078125 1.242188 -2.003906 1.078125 -1.859375 C 0.921875 -1.710938 0.84375 -1.507812 0.84375 -1.25 C 0.84375 -0.65625 1.148438 -0.359375 1.765625 -0.359375 C 2.066406 -0.359375 2.289062 -0.429688 2.4375 -0.578125 C 2.59375 -0.722656 2.671875 -0.953125 2.671875 -1.265625 Z M 2.671875 -1.265625 "/>
</g>
<g id="glyph-0-5">
<path d="M 2.71875 -0.984375 L 2.71875 0 L 2.203125 0 L 2.203125 -0.984375 L 0.140625 -0.984375 L 0.140625 -1.421875 L 2.140625 -4.359375 L 2.71875 -4.359375 L 2.71875 -1.421875 L 3.328125 -1.421875 L 3.328125 -0.984375 Z M 2.203125 -3.71875 C 2.191406 -3.707031 2.160156 -3.65625 2.109375 -3.5625 C 2.054688 -3.46875 2.015625 -3.398438 1.984375 -3.359375 L 0.875 -1.71875 L 0.703125 -1.484375 L 0.65625 -1.421875 L 2.203125 -1.421875 Z M 2.203125 -3.71875 "/>
</g>
<g id="glyph-0-6">
<path d="M 3.234375 -1.203125 C 3.234375 -0.796875 3.101562 -0.484375 2.84375 -0.265625 C 2.59375 -0.046875 2.234375 0.0625 1.765625 0.0625 C 1.328125 0.0625 0.972656 -0.0351562 0.703125 -0.234375 C 0.441406 -0.429688 0.285156 -0.726562 0.234375 -1.125 L 0.8125 -1.171875 C 0.882812 -0.660156 1.203125 -0.40625 1.765625 -0.40625 C 2.046875 -0.40625 2.265625 -0.472656 2.421875 -0.609375 C 2.578125 -0.742188 2.65625 -0.945312 2.65625 -1.21875 C 2.65625 -1.457031 2.5625 -1.640625 2.375 -1.765625 C 2.195312 -1.898438 1.9375 -1.96875 1.59375 -1.96875 L 1.28125 -1.96875 L 1.28125 -2.453125 L 1.59375 -2.453125 C 1.894531 -2.453125 2.128906 -2.519531 2.296875 -2.65625 C 2.460938 -2.789062 2.546875 -2.972656 2.546875 -3.203125 C 2.546875 -3.441406 2.476562 -3.628906 2.34375 -3.765625 C 2.207031 -3.898438 2.003906 -3.96875 1.734375 -3.96875 C 1.484375 -3.96875 1.28125 -3.898438 1.125 -3.765625 C 0.976562 -3.640625 0.894531 -3.460938 0.875 -3.234375 L 0.3125 -3.28125 C 0.351562 -3.632812 0.5 -3.910156 0.75 -4.109375 C 1.007812 -4.316406 1.335938 -4.421875 1.734375 -4.421875 C 2.171875 -4.421875 2.507812 -4.316406 2.75 -4.109375 C 3 -3.910156 3.125 -3.628906 3.125 -3.265625 C 3.125 -2.984375 3.046875 -2.753906 2.890625 -2.578125 C 2.734375 -2.410156 2.503906 -2.296875 2.203125 -2.234375 L 2.203125 -2.21875 C 2.535156 -2.1875 2.789062 -2.078125 2.96875 -1.890625 C 3.144531 -1.710938 3.234375 -1.484375 3.234375 -1.203125 Z M 3.234375 -1.203125 "/>
</g>
<g id="glyph-0-7">
<path d="M 3.21875 -2.265625 C 3.21875 -1.515625 3.082031 -0.9375 2.8125 -0.53125 C 2.539062 -0.132812 2.148438 0.0625 1.640625 0.0625 C 1.304688 0.0625 1.035156 -0.0078125 0.828125 -0.15625 C 0.617188 -0.300781 0.472656 -0.53125 0.390625 -0.84375 L 0.921875 -0.9375 C 1.023438 -0.570312 1.269531 -0.390625 1.65625 -0.390625 C 1.96875 -0.390625 2.210938 -0.535156 2.390625 -0.828125 C 2.566406 -1.128906 2.660156 -1.550781 2.671875 -2.09375 C 2.585938 -1.914062 2.445312 -1.769531 2.25 -1.65625 C 2.050781 -1.539062 1.832031 -1.484375 1.59375 -1.484375 C 1.195312 -1.484375 0.878906 -1.617188 0.640625 -1.890625 C 0.410156 -2.160156 0.296875 -2.515625 0.296875 -2.953125 C 0.296875 -3.410156 0.421875 -3.769531 0.671875 -4.03125 C 0.929688 -4.289062 1.289062 -4.421875 1.75 -4.421875 C 2.226562 -4.421875 2.59375 -4.238281 2.84375 -3.875 C 3.09375 -3.519531 3.21875 -2.984375 3.21875 -2.265625 Z M 2.609375 -2.796875 C 2.609375 -3.148438 2.523438 -3.429688 2.359375 -3.640625 C 2.203125 -3.859375 1.992188 -3.96875 1.734375 -3.96875 C 1.460938 -3.96875 1.25 -3.875 1.09375 -3.6875 C 0.9375 -3.507812 0.859375 -3.265625 0.859375 -2.953125 C 0.859375 -2.640625 0.9375 -2.390625 1.09375 -2.203125 C 1.25 -2.015625 1.457031 -1.921875 1.71875 -1.921875 C 1.882812 -1.921875 2.035156 -1.957031 2.171875 -2.03125 C 2.304688 -2.101562 2.410156 -2.207031 2.484375 -2.34375 C 2.566406 -2.476562 2.609375 -2.628906 2.609375 -2.796875 Z M 2.609375 -2.796875 "/>
</g>
<g id="glyph-0-8">
<path d="M 0.3125 0 L 0.3125 -0.390625 C 0.414062 -0.628906 0.546875 -0.84375 0.703125 -1.03125 C 0.859375 -1.21875 1.019531 -1.382812 1.1875 -1.53125 C 1.351562 -1.675781 1.515625 -1.8125 1.671875 -1.9375 C 1.835938 -2.070312 1.984375 -2.203125 2.109375 -2.328125 C 2.242188 -2.453125 2.351562 -2.582031 2.4375 -2.71875 C 2.519531 -2.863281 2.5625 -3.023438 2.5625 -3.203125 C 2.5625 -3.441406 2.488281 -3.628906 2.34375 -3.765625 C 2.207031 -3.898438 2.015625 -3.96875 1.765625 -3.96875 C 1.523438 -3.96875 1.328125 -3.898438 1.171875 -3.765625 C 1.023438 -3.640625 0.9375 -3.457031 0.90625 -3.21875 L 0.34375 -3.28125 C 0.382812 -3.625 0.53125 -3.898438 0.78125 -4.109375 C 1.039062 -4.316406 1.367188 -4.421875 1.765625 -4.421875 C 2.203125 -4.421875 2.539062 -4.316406 2.78125 -4.109375 C 3.019531 -3.898438 3.140625 -3.601562 3.140625 -3.21875 C 3.140625 -3.050781 3.097656 -2.882812 3.015625 -2.71875 C 2.941406 -2.550781 2.828125 -2.382812 2.671875 -2.21875 C 2.515625 -2.050781 2.222656 -1.796875 1.796875 -1.453125 C 1.554688 -1.253906 1.363281 -1.078125 1.21875 -0.921875 C 1.082031 -0.765625 0.988281 -0.613281 0.9375 -0.46875 L 3.203125 -0.46875 L 3.203125 0 Z M 0.3125 0 "/>
</g>
<g id="glyph-0-9">
<path d="M 0.484375 0 L 0.484375 -0.46875 L 1.59375 -0.46875 L 1.59375 -3.828125 L 0.609375 -3.125 L 0.609375 -3.640625 L 1.640625 -4.359375 L 2.15625 -4.359375 L 2.15625 -0.46875 L 3.203125 -0.46875 L 3.203125 0 Z M 0.484375 0 "/>
</g>
<g id="glyph-0-10">
<path d="M 3.234375 -1.421875 C 3.234375 -0.960938 3.109375 -0.597656 2.859375 -0.328125 C 2.617188 -0.0664062 2.273438 0.0625 1.828125 0.0625 C 1.335938 0.0625 0.960938 -0.117188 0.703125 -0.484375 C 0.453125 -0.847656 0.328125 -1.378906 0.328125 -2.078125 C 0.328125 -2.828125 0.457031 -3.40625 0.71875 -3.8125 C 0.988281 -4.21875 1.375 -4.421875 1.875 -4.421875 C 2.53125 -4.421875 2.945312 -4.125 3.125 -3.53125 L 2.59375 -3.4375 C 2.476562 -3.789062 2.238281 -3.96875 1.875 -3.96875 C 1.550781 -3.96875 1.300781 -3.816406 1.125 -3.515625 C 0.957031 -3.222656 0.875 -2.796875 0.875 -2.234375 C 0.976562 -2.421875 1.117188 -2.5625 1.296875 -2.65625 C 1.484375 -2.757812 1.695312 -2.8125 1.9375 -2.8125 C 2.332031 -2.8125 2.644531 -2.6875 2.875 -2.4375 C 3.113281 -2.1875 3.234375 -1.847656 3.234375 -1.421875 Z M 2.671875 -1.40625 C 2.671875 -1.71875 2.59375 -1.957031 2.4375 -2.125 C 2.289062 -2.300781 2.078125 -2.390625 1.796875 -2.390625 C 1.535156 -2.390625 1.328125 -2.3125 1.171875 -2.15625 C 1.015625 -2.007812 0.9375 -1.800781 0.9375 -1.53125 C 0.9375 -1.195312 1.015625 -0.921875 1.171875 -0.703125 C 1.335938 -0.492188 1.550781 -0.390625 1.8125 -0.390625 C 2.082031 -0.390625 2.289062 -0.476562 2.4375 -0.65625 C 2.59375 -0.832031 2.671875 -1.082031 2.671875 -1.40625 Z M 2.671875 -1.40625 "/>
</g>
<g id="glyph-1-0">
<path d="M 1.59375 1.234375 C 1.25 1.234375 0.972656 1.164062 0.765625 1.03125 C 0.566406 0.894531 0.4375 0.703125 0.375 0.453125 L 0.90625 0.390625 C 0.945312 0.535156 1.023438 0.644531 1.140625 0.71875 C 1.253906 0.800781 1.410156 0.84375 1.609375 0.84375 C 2.128906 0.84375 2.390625 0.535156 2.390625 -0.078125 L 2.390625 -0.578125 C 2.285156 -0.378906 2.144531 -0.226562 1.96875 -0.125 C 1.800781 -0.03125 1.601562 0.015625 1.375 0.015625 C 0.988281 0.015625 0.703125 -0.109375 0.515625 -0.359375 C 0.335938 -0.617188 0.25 -1.023438 0.25 -1.578125 C 0.25 -2.128906 0.347656 -2.535156 0.546875 -2.796875 C 0.742188 -3.066406 1.039062 -3.203125 1.4375 -3.203125 C 1.65625 -3.203125 1.847656 -3.148438 2.015625 -3.046875 C 2.179688 -2.941406 2.304688 -2.796875 2.390625 -2.609375 L 2.40625 -2.609375 C 2.40625 -2.671875 2.40625 -2.773438 2.40625 -2.921875 C 2.414062 -3.066406 2.425781 -3.144531 2.4375 -3.15625 L 2.9375 -3.15625 C 2.925781 -3.050781 2.921875 -2.832031 2.921875 -2.5 L 2.921875 -0.09375 C 2.921875 0.789062 2.476562 1.234375 1.59375 1.234375 Z M 2.390625 -1.578125 C 2.390625 -1.835938 2.351562 -2.054688 2.28125 -2.234375 C 2.21875 -2.421875 2.117188 -2.5625 1.984375 -2.65625 C 1.859375 -2.757812 1.71875 -2.8125 1.5625 -2.8125 C 1.289062 -2.8125 1.09375 -2.710938 0.96875 -2.515625 C 0.851562 -2.328125 0.796875 -2.015625 0.796875 -1.578125 C 0.796875 -1.148438 0.851562 -0.835938 0.96875 -0.640625 C 1.082031 -0.453125 1.273438 -0.359375 1.546875 -0.359375 C 1.710938 -0.359375 1.859375 -0.40625 1.984375 -0.5 C 2.117188 -0.601562 2.21875 -0.742188 2.28125 -0.921875 C 2.351562 -1.109375 2.390625 -1.328125 2.390625 -1.578125 Z M 2.390625 -1.578125 "/>
</g>
<g id="glyph-1-1">
<path d="M 1.203125 0.0625 C 0.890625 0.0625 0.648438 -0.0195312 0.484375 -0.1875 C 0.328125 -0.351562 0.25 -0.582031 0.25 -0.875 C 0.25 -1.207031 0.351562 -1.457031 0.5625 -1.625 C 0.78125 -1.800781 1.128906 -1.894531 1.609375 -1.90625 L 2.328125 -1.921875 L 2.328125 -2.09375 C 2.328125 -2.351562 2.269531 -2.535156 2.15625 -2.640625 C 2.050781 -2.753906 1.878906 -2.8125 1.640625 -2.8125 C 1.410156 -2.8125 1.238281 -2.769531 1.125 -2.6875 C 1.019531 -2.613281 0.957031 -2.488281 0.9375 -2.3125 L 0.390625 -2.359375 C 0.484375 -2.929688 0.90625 -3.21875 1.65625 -3.21875 C 2.050781 -3.21875 2.347656 -3.125 2.546875 -2.9375 C 2.753906 -2.757812 2.859375 -2.5 2.859375 -2.15625 L 2.859375 -0.796875 C 2.859375 -0.640625 2.875 -0.519531 2.90625 -0.4375 C 2.945312 -0.363281 3.023438 -0.328125 3.140625 -0.328125 C 3.191406 -0.328125 3.25 -0.332031 3.3125 -0.34375 L 3.3125 -0.015625 C 3.1875 0.015625 3.054688 0.03125 2.921875 0.03125 C 2.722656 0.03125 2.578125 -0.0195312 2.484375 -0.125 C 2.398438 -0.226562 2.351562 -0.390625 2.34375 -0.609375 L 2.328125 -0.609375 C 2.191406 -0.359375 2.035156 -0.179688 1.859375 -0.078125 C 1.679688 0.015625 1.460938 0.0625 1.203125 0.0625 Z M 1.328125 -0.328125 C 1.515625 -0.328125 1.679688 -0.367188 1.828125 -0.453125 C 1.984375 -0.546875 2.101562 -0.671875 2.1875 -0.828125 C 2.28125 -0.984375 2.328125 -1.140625 2.328125 -1.296875 L 2.328125 -1.5625 L 1.75 -1.546875 C 1.5 -1.535156 1.3125 -1.507812 1.1875 -1.46875 C 1.0625 -1.425781 0.960938 -1.351562 0.890625 -1.25 C 0.828125 -1.15625 0.796875 -1.03125 0.796875 -0.875 C 0.796875 -0.695312 0.835938 -0.5625 0.921875 -0.46875 C 1.015625 -0.375 1.148438 -0.328125 1.328125 -0.328125 Z M 1.328125 -0.328125 "/>
</g>
<g id="glyph-1-2">
<path d="M 0.453125 0 L 0.453125 -0.453125 L 1.5 -0.453125 L 1.5 -3.609375 L 0.578125 -2.9375 L 0.578125 -3.4375 L 1.546875 -4.109375 L 2.03125 -4.109375 L 2.03125 -0.453125 L 3.03125 -0.453125 L 3.03125 0 Z M 0.453125 0 "/>
</g>
<g id="glyph-1-3">
<path d="M 2.5625 -0.9375 L 2.5625 0 L 2.078125 0 L 2.078125 -0.9375 L 0.140625 -0.9375 L 0.140625 -1.34375 L 2.015625 -4.109375 L 2.5625 -4.109375 L 2.5625 -1.34375 L 3.140625 -1.34375 L 3.140625 -0.9375 Z M 2.078125 -3.515625 C 2.066406 -3.503906 2.035156 -3.453125 1.984375 -3.359375 C 1.941406 -3.265625 1.90625 -3.203125 1.875 -3.171875 L 0.828125 -1.625 L 0.671875 -1.40625 L 0.625 -1.34375 L 2.078125 -1.34375 Z M 2.078125 -3.515625 "/>
</g>
<g id="glyph-1-4">
<path d="M 3.015625 -3.6875 C 2.597656 -3.039062 2.300781 -2.535156 2.125 -2.171875 C 1.957031 -1.804688 1.828125 -1.445312 1.734375 -1.09375 C 1.648438 -0.738281 1.609375 -0.375 1.609375 0 L 1.0625 0 C 1.0625 -0.519531 1.171875 -1.070312 1.390625 -1.65625 C 1.617188 -2.238281 1.992188 -2.90625 2.515625 -3.65625 L 0.3125 -3.65625 L 0.3125 -4.109375 L 3.015625 -4.109375 Z M 3.015625 -3.6875 "/>
</g>
<g id="glyph-1-5">
<path d="M 0.296875 0 L 0.296875 -0.375 C 0.398438 -0.601562 0.519531 -0.800781 0.65625 -0.96875 C 0.800781 -1.144531 0.953125 -1.300781 1.109375 -1.4375 C 1.265625 -1.582031 1.421875 -1.710938 1.578125 -1.828125 C 1.734375 -1.953125 1.875 -2.070312 2 -2.1875 C 2.125 -2.3125 2.222656 -2.441406 2.296875 -2.578125 C 2.378906 -2.710938 2.421875 -2.863281 2.421875 -3.03125 C 2.421875 -3.25 2.351562 -3.421875 2.21875 -3.546875 C 2.082031 -3.671875 1.898438 -3.734375 1.671875 -3.734375 C 1.441406 -3.734375 1.253906 -3.671875 1.109375 -3.546875 C 0.960938 -3.429688 0.878906 -3.265625 0.859375 -3.046875 L 0.328125 -3.09375 C 0.359375 -3.414062 0.492188 -3.675781 0.734375 -3.875 C 0.984375 -4.070312 1.296875 -4.171875 1.671875 -4.171875 C 2.078125 -4.171875 2.390625 -4.070312 2.609375 -3.875 C 2.835938 -3.675781 2.953125 -3.398438 2.953125 -3.046875 C 2.953125 -2.878906 2.914062 -2.71875 2.84375 -2.5625 C 2.769531 -2.40625 2.660156 -2.25 2.515625 -2.09375 C 2.378906 -1.9375 2.109375 -1.691406 1.703125 -1.359375 C 1.472656 -1.179688 1.289062 -1.019531 1.15625 -0.875 C 1.03125 -0.726562 0.9375 -0.585938 0.875 -0.453125 L 3.015625 -0.453125 L 3.015625 0 Z M 0.296875 0 "/>
</g>
<g id="glyph-1-6">
<path d="M 3.0625 -1.34375 C 3.0625 -0.90625 2.929688 -0.5625 2.671875 -0.3125 C 2.421875 -0.0625 2.066406 0.0625 1.609375 0.0625 C 1.222656 0.0625 0.910156 -0.0195312 0.671875 -0.1875 C 0.441406 -0.351562 0.296875 -0.597656 0.234375 -0.921875 L 0.765625 -0.984375 C 0.878906 -0.578125 1.164062 -0.375 1.625 -0.375 C 1.90625 -0.375 2.125 -0.457031 2.28125 -0.625 C 2.445312 -0.789062 2.53125 -1.023438 2.53125 -1.328125 C 2.53125 -1.585938 2.445312 -1.796875 2.28125 -1.953125 C 2.125 -2.109375 1.910156 -2.1875 1.640625 -2.1875 C 1.492188 -2.1875 1.359375 -2.164062 1.234375 -2.125 C 1.117188 -2.082031 1 -2.003906 0.875 -1.890625 L 0.359375 -1.890625 L 0.5 -4.109375 L 2.828125 -4.109375 L 2.828125 -3.65625 L 0.96875 -3.65625 L 0.890625 -2.359375 C 1.117188 -2.535156 1.40625 -2.625 1.75 -2.625 C 2.144531 -2.625 2.460938 -2.503906 2.703125 -2.265625 C 2.941406 -2.023438 3.0625 -1.71875 3.0625 -1.34375 Z M 3.0625 -1.34375 "/>
</g>
<g id="glyph-1-7">
<path d="M 3.0625 -1.140625 C 3.0625 -0.765625 2.941406 -0.46875 2.703125 -0.25 C 2.460938 -0.0390625 2.113281 0.0625 1.65625 0.0625 C 1.21875 0.0625 0.875 -0.0390625 0.625 -0.25 C 0.382812 -0.457031 0.265625 -0.753906 0.265625 -1.140625 C 0.265625 -1.410156 0.335938 -1.632812 0.484375 -1.8125 C 0.640625 -2 0.835938 -2.109375 1.078125 -2.140625 L 1.078125 -2.15625 C 0.859375 -2.207031 0.679688 -2.320312 0.546875 -2.5 C 0.421875 -2.675781 0.359375 -2.878906 0.359375 -3.109375 C 0.359375 -3.421875 0.472656 -3.675781 0.703125 -3.875 C 0.941406 -4.070312 1.257812 -4.171875 1.65625 -4.171875 C 2.050781 -4.171875 2.363281 -4.070312 2.59375 -3.875 C 2.832031 -3.6875 2.953125 -3.429688 2.953125 -3.109375 C 2.953125 -2.867188 2.882812 -2.660156 2.75 -2.484375 C 2.625 -2.316406 2.453125 -2.210938 2.234375 -2.171875 L 2.234375 -2.15625 C 2.492188 -2.113281 2.695312 -2 2.84375 -1.8125 C 2.988281 -1.632812 3.0625 -1.410156 3.0625 -1.140625 Z M 2.40625 -3.078125 C 2.40625 -3.546875 2.15625 -3.78125 1.65625 -3.78125 C 1.40625 -3.78125 1.210938 -3.71875 1.078125 -3.59375 C 0.953125 -3.476562 0.890625 -3.304688 0.890625 -3.078125 C 0.890625 -2.847656 0.957031 -2.671875 1.09375 -2.546875 C 1.226562 -2.421875 1.414062 -2.359375 1.65625 -2.359375 C 1.90625 -2.359375 2.09375 -2.414062 2.21875 -2.53125 C 2.34375 -2.644531 2.40625 -2.828125 2.40625 -3.078125 Z M 2.515625 -1.1875 C 2.515625 -1.445312 2.4375 -1.640625 2.28125 -1.765625 C 2.132812 -1.898438 1.925781 -1.96875 1.65625 -1.96875 C 1.382812 -1.96875 1.171875 -1.894531 1.015625 -1.75 C 0.867188 -1.613281 0.796875 -1.425781 0.796875 -1.1875 C 0.796875 -0.613281 1.085938 -0.328125 1.671875 -0.328125 C 1.953125 -0.328125 2.160156 -0.394531 2.296875 -0.53125 C 2.441406 -0.675781 2.515625 -0.894531 2.515625 -1.1875 Z M 2.515625 -1.1875 "/>
</g>
<g id="glyph-1-8">
<path d="M 3.0625 -1.140625 C 3.0625 -0.753906 2.9375 -0.457031 2.6875 -0.25 C 2.445312 -0.0390625 2.109375 0.0625 1.671875 0.0625 C 1.253906 0.0625 0.921875 -0.03125 0.671875 -0.21875 C 0.421875 -0.40625 0.273438 -0.6875 0.234375 -1.0625 L 0.765625 -1.109375 C 0.835938 -0.617188 1.140625 -0.375 1.671875 -0.375 C 1.929688 -0.375 2.132812 -0.4375 2.28125 -0.5625 C 2.4375 -0.695312 2.515625 -0.894531 2.515625 -1.15625 C 2.515625 -1.375 2.425781 -1.546875 2.25 -1.671875 C 2.082031 -1.796875 1.835938 -1.859375 1.515625 -1.859375 L 1.21875 -1.859375 L 1.21875 -2.3125 L 1.5 -2.3125 C 1.78125 -2.3125 2 -2.375 2.15625 -2.5 C 2.320312 -2.625 2.40625 -2.800781 2.40625 -3.03125 C 2.40625 -3.25 2.335938 -3.421875 2.203125 -3.546875 C 2.078125 -3.671875 1.890625 -3.734375 1.640625 -3.734375 C 1.398438 -3.734375 1.207031 -3.671875 1.0625 -3.546875 C 0.925781 -3.429688 0.847656 -3.269531 0.828125 -3.0625 L 0.296875 -3.09375 C 0.335938 -3.4375 0.476562 -3.703125 0.71875 -3.890625 C 0.957031 -4.078125 1.265625 -4.171875 1.640625 -4.171875 C 2.054688 -4.171875 2.375 -4.070312 2.59375 -3.875 C 2.820312 -3.6875 2.9375 -3.421875 2.9375 -3.078125 C 2.9375 -2.816406 2.863281 -2.601562 2.71875 -2.4375 C 2.570312 -2.269531 2.359375 -2.160156 2.078125 -2.109375 L 2.078125 -2.09375 C 2.390625 -2.0625 2.628906 -1.957031 2.796875 -1.78125 C 2.972656 -1.613281 3.0625 -1.398438 3.0625 -1.140625 Z M 3.0625 -1.140625 "/>
</g>
<g id="glyph-1-9">
<path d="M 3.0625 -1.34375 C 3.0625 -0.90625 2.941406 -0.5625 2.703125 -0.3125 C 2.472656 -0.0625 2.148438 0.0625 1.734375 0.0625 C 1.265625 0.0625 0.90625 -0.109375 0.65625 -0.453125 C 0.414062 -0.796875 0.296875 -1.296875 0.296875 -1.953125 C 0.296875 -2.671875 0.421875 -3.21875 0.671875 -3.59375 C 0.929688 -3.976562 1.296875 -4.171875 1.765625 -4.171875 C 2.390625 -4.171875 2.78125 -3.890625 2.9375 -3.328125 L 2.4375 -3.234375 C 2.332031 -3.566406 2.109375 -3.734375 1.765625 -3.734375 C 1.460938 -3.734375 1.226562 -3.59375 1.0625 -3.3125 C 0.90625 -3.039062 0.828125 -2.640625 0.828125 -2.109375 C 0.921875 -2.285156 1.050781 -2.421875 1.21875 -2.515625 C 1.394531 -2.609375 1.597656 -2.65625 1.828125 -2.65625 C 2.203125 -2.65625 2.5 -2.535156 2.71875 -2.296875 C 2.945312 -2.054688 3.0625 -1.738281 3.0625 -1.34375 Z M 2.53125 -1.3125 C 2.53125 -1.613281 2.457031 -1.84375 2.3125 -2 C 2.164062 -2.164062 1.960938 -2.25 1.703125 -2.25 C 1.453125 -2.25 1.25 -2.175781 1.09375 -2.03125 C 0.945312 -1.894531 0.875 -1.703125 0.875 -1.453125 C 0.875 -1.128906 0.953125 -0.863281 1.109375 -0.65625 C 1.265625 -0.457031 1.46875 -0.359375 1.71875 -0.359375 C 1.96875 -0.359375 2.164062 -0.441406 2.3125 -0.609375 C 2.457031 -0.785156 2.53125 -1.019531 2.53125 -1.3125 Z M 2.53125 -1.3125 "/>
</g>
<g id="glyph-1-10">
<path d="M 3.03125 -2.140625 C 3.03125 -1.429688 2.898438 -0.882812 2.640625 -0.5 C 2.390625 -0.125 2.023438 0.0625 1.546875 0.0625 C 1.222656 0.0625 0.960938 -0.00390625 0.765625 -0.140625 C 0.578125 -0.273438 0.441406 -0.492188 0.359375 -0.796875 L 0.859375 -0.875 C 0.960938 -0.53125 1.195312 -0.359375 1.5625 -0.359375 C 1.863281 -0.359375 2.09375 -0.5 2.25 -0.78125 C 2.414062 -1.0625 2.503906 -1.460938 2.515625 -1.984375 C 2.441406 -1.804688 2.3125 -1.664062 2.125 -1.5625 C 1.9375 -1.457031 1.726562 -1.40625 1.5 -1.40625 C 1.125 -1.40625 0.828125 -1.53125 0.609375 -1.78125 C 0.390625 -2.03125 0.28125 -2.363281 0.28125 -2.78125 C 0.28125 -3.21875 0.398438 -3.554688 0.640625 -3.796875 C 0.878906 -4.046875 1.210938 -4.171875 1.640625 -4.171875 C 2.097656 -4.171875 2.441406 -4 2.671875 -3.65625 C 2.910156 -3.320312 3.03125 -2.816406 3.03125 -2.140625 Z M 2.46875 -2.640625 C 2.46875 -2.972656 2.390625 -3.238281 2.234375 -3.4375 C 2.085938 -3.632812 1.882812 -3.734375 1.625 -3.734375 C 1.375 -3.734375 1.175781 -3.644531 1.03125 -3.46875 C 0.882812 -3.300781 0.8125 -3.070312 0.8125 -2.78125 C 0.8125 -2.488281 0.882812 -2.253906 1.03125 -2.078125 C 1.175781 -1.898438 1.375 -1.8125 1.625 -1.8125 C 1.769531 -1.8125 1.90625 -1.84375 2.03125 -1.90625 C 2.164062 -1.976562 2.269531 -2.078125 2.34375 -2.203125 C 2.425781 -2.335938 2.46875 -2.484375 2.46875 -2.640625 Z M 2.46875 -2.640625 "/>
</g>
<g id="glyph-2-0">
<path d="M 1.53125 1.1875 C 1.207031 1.1875 0.945312 1.117188 0.75 0.984375 C 0.550781 0.859375 0.425781 0.675781 0.375 0.4375 L 0.875 0.375 C 0.90625 0.507812 0.976562 0.613281 1.09375 0.6875 C 1.207031 0.769531 1.359375 0.8125 1.546875 0.8125 C 2.054688 0.8125 2.3125 0.515625 2.3125 -0.078125 L 2.3125 -0.5625 L 2.296875 -0.5625 C 2.203125 -0.363281 2.070312 -0.21875 1.90625 -0.125 C 1.738281 -0.03125 1.546875 0.015625 1.328125 0.015625 C 0.953125 0.015625 0.675781 -0.101562 0.5 -0.34375 C 0.320312 -0.59375 0.234375 -0.984375 0.234375 -1.515625 C 0.234375 -2.046875 0.328125 -2.4375 0.515625 -2.6875 C 0.710938 -2.945312 1 -3.078125 1.375 -3.078125 C 1.59375 -3.078125 1.78125 -3.03125 1.9375 -2.9375 C 2.09375 -2.84375 2.21875 -2.703125 2.3125 -2.515625 C 2.3125 -2.578125 2.316406 -2.675781 2.328125 -2.8125 C 2.335938 -2.945312 2.34375 -3.019531 2.34375 -3.03125 L 2.828125 -3.03125 C 2.816406 -2.9375 2.8125 -2.726562 2.8125 -2.40625 L 2.8125 -0.09375 C 2.8125 0.757812 2.382812 1.1875 1.53125 1.1875 Z M 2.3125 -1.515625 C 2.3125 -1.765625 2.273438 -1.976562 2.203125 -2.15625 C 2.140625 -2.332031 2.046875 -2.46875 1.921875 -2.5625 C 1.796875 -2.65625 1.65625 -2.703125 1.5 -2.703125 C 1.25 -2.703125 1.0625 -2.609375 0.9375 -2.421875 C 0.820312 -2.234375 0.765625 -1.929688 0.765625 -1.515625 C 0.765625 -1.097656 0.816406 -0.796875 0.921875 -0.609375 C 1.035156 -0.429688 1.226562 -0.34375 1.5 -0.34375 C 1.65625 -0.34375 1.796875 -0.390625 1.921875 -0.484375 C 2.046875 -0.578125 2.140625 -0.710938 2.203125 -0.890625 C 2.273438 -1.066406 2.3125 -1.273438 2.3125 -1.515625 Z M 2.3125 -1.515625 "/>
</g>
<g id="glyph-2-1">
<path d="M 1.15625 0.0625 C 0.851562 0.0625 0.625 -0.015625 0.46875 -0.171875 C 0.320312 -0.335938 0.25 -0.5625 0.25 -0.84375 C 0.25 -1.15625 0.347656 -1.394531 0.546875 -1.5625 C 0.753906 -1.738281 1.09375 -1.832031 1.5625 -1.84375 L 2.234375 -1.859375 L 2.234375 -2.015625 C 2.234375 -2.265625 2.179688 -2.441406 2.078125 -2.546875 C 1.972656 -2.648438 1.8125 -2.703125 1.59375 -2.703125 C 1.363281 -2.703125 1.195312 -2.664062 1.09375 -2.59375 C 0.988281 -2.519531 0.925781 -2.394531 0.90625 -2.21875 L 0.375 -2.28125 C 0.46875 -2.820312 0.875 -3.09375 1.59375 -3.09375 C 1.976562 -3.09375 2.265625 -3.003906 2.453125 -2.828125 C 2.648438 -2.648438 2.75 -2.398438 2.75 -2.078125 L 2.75 -0.765625 C 2.75 -0.617188 2.765625 -0.503906 2.796875 -0.421875 C 2.835938 -0.347656 2.914062 -0.3125 3.03125 -0.3125 C 3.082031 -0.3125 3.140625 -0.316406 3.203125 -0.328125 L 3.203125 -0.015625 C 3.066406 0.015625 2.9375 0.03125 2.8125 0.03125 C 2.625 0.03125 2.484375 -0.015625 2.390625 -0.109375 C 2.304688 -0.210938 2.257812 -0.367188 2.25 -0.578125 L 2.234375 -0.578125 C 2.109375 -0.347656 1.957031 -0.179688 1.78125 -0.078125 C 1.613281 0.015625 1.40625 0.0625 1.15625 0.0625 Z M 1.28125 -0.328125 C 1.46875 -0.328125 1.628906 -0.367188 1.765625 -0.453125 C 1.910156 -0.535156 2.023438 -0.648438 2.109375 -0.796875 C 2.191406 -0.941406 2.234375 -1.09375 2.234375 -1.25 L 2.234375 -1.5 L 1.6875 -1.484375 C 1.445312 -1.484375 1.265625 -1.457031 1.140625 -1.40625 C 1.015625 -1.363281 0.921875 -1.296875 0.859375 -1.203125 C 0.796875 -1.109375 0.765625 -0.988281 0.765625 -0.84375 C 0.765625 -0.675781 0.804688 -0.546875 0.890625 -0.453125 C 0.984375 -0.367188 1.113281 -0.328125 1.28125 -0.328125 Z M 1.28125 -0.328125 "/>
</g>
<g id="glyph-2-2">
<path d="M 0.4375 0 L 0.4375 -0.421875 L 1.453125 -0.421875 L 1.453125 -3.46875 L 0.546875 -2.828125 L 0.546875 -3.3125 L 1.484375 -3.953125 L 1.953125 -3.953125 L 1.953125 -0.421875 L 2.921875 -0.421875 L 2.921875 0 Z M 0.4375 0 "/>
</g>
<g id="glyph-2-3">
<path d="M 2.96875 -1.984375 C 2.96875 -1.316406 2.851562 -0.804688 2.625 -0.453125 C 2.394531 -0.109375 2.050781 0.0625 1.59375 0.0625 C 1.132812 0.0625 0.789062 -0.109375 0.5625 -0.453125 C 0.332031 -0.804688 0.21875 -1.316406 0.21875 -1.984375 C 0.21875 -2.660156 0.328125 -3.164062 0.546875 -3.5 C 0.773438 -3.84375 1.128906 -4.015625 1.609375 -4.015625 C 2.078125 -4.015625 2.421875 -3.84375 2.640625 -3.5 C 2.859375 -3.15625 2.96875 -2.648438 2.96875 -1.984375 Z M 2.453125 -1.984375 C 2.453125 -2.546875 2.382812 -2.957031 2.25 -3.21875 C 2.125 -3.476562 1.910156 -3.609375 1.609375 -3.609375 C 1.296875 -3.609375 1.070312 -3.476562 0.9375 -3.21875 C 0.800781 -2.96875 0.734375 -2.554688 0.734375 -1.984375 C 0.734375 -1.421875 0.800781 -1.007812 0.9375 -0.75 C 1.070312 -0.488281 1.289062 -0.359375 1.59375 -0.359375 C 1.894531 -0.359375 2.113281 -0.488281 2.25 -0.75 C 2.382812 -1.019531 2.453125 -1.429688 2.453125 -1.984375 Z M 2.453125 -1.984375 "/>
</g>
<g id="glyph-2-4">
<path d="M 2.9375 -1.09375 C 2.9375 -0.726562 2.820312 -0.441406 2.59375 -0.234375 C 2.363281 -0.0351562 2.035156 0.0625 1.609375 0.0625 C 1.203125 0.0625 0.878906 -0.0234375 0.640625 -0.203125 C 0.398438 -0.390625 0.257812 -0.660156 0.21875 -1.015625 L 0.734375 -1.0625 C 0.804688 -0.59375 1.097656 -0.359375 1.609375 -0.359375 C 1.859375 -0.359375 2.054688 -0.421875 2.203125 -0.546875 C 2.347656 -0.671875 2.421875 -0.859375 2.421875 -1.109375 C 2.421875 -1.328125 2.335938 -1.492188 2.171875 -1.609375 C 2.003906 -1.734375 1.765625 -1.796875 1.453125 -1.796875 L 1.171875 -1.796875 L 1.171875 -2.234375 L 1.4375 -2.234375 C 1.71875 -2.234375 1.929688 -2.289062 2.078125 -2.40625 C 2.234375 -2.53125 2.3125 -2.703125 2.3125 -2.921875 C 2.3125 -3.128906 2.25 -3.289062 2.125 -3.40625 C 2 -3.53125 1.816406 -3.59375 1.578125 -3.59375 C 1.347656 -3.59375 1.164062 -3.535156 1.03125 -3.421875 C 0.894531 -3.304688 0.816406 -3.144531 0.796875 -2.9375 L 0.28125 -2.984375 C 0.320312 -3.304688 0.457031 -3.554688 0.6875 -3.734375 C 0.914062 -3.921875 1.210938 -4.015625 1.578125 -4.015625 C 1.972656 -4.015625 2.28125 -3.921875 2.5 -3.734375 C 2.71875 -3.554688 2.828125 -3.300781 2.828125 -2.96875 C 2.828125 -2.71875 2.753906 -2.507812 2.609375 -2.34375 C 2.472656 -2.1875 2.269531 -2.082031 2 -2.03125 L 2 -2.015625 C 2.300781 -1.984375 2.53125 -1.882812 2.6875 -1.71875 C 2.851562 -1.550781 2.9375 -1.34375 2.9375 -1.09375 Z M 2.9375 -1.09375 "/>
</g>
<g id="glyph-2-5">
<path d="M 0.296875 0 L 0.296875 -0.359375 C 0.390625 -0.578125 0.503906 -0.769531 0.640625 -0.9375 C 0.773438 -1.101562 0.914062 -1.253906 1.0625 -1.390625 C 1.21875 -1.523438 1.367188 -1.648438 1.515625 -1.765625 C 1.671875 -1.878906 1.804688 -1.992188 1.921875 -2.109375 C 2.046875 -2.234375 2.144531 -2.359375 2.21875 -2.484375 C 2.289062 -2.609375 2.328125 -2.753906 2.328125 -2.921875 C 2.328125 -3.128906 2.265625 -3.289062 2.140625 -3.40625 C 2.015625 -3.53125 1.835938 -3.59375 1.609375 -3.59375 C 1.390625 -3.59375 1.207031 -3.535156 1.0625 -3.421875 C 0.925781 -3.304688 0.847656 -3.144531 0.828125 -2.9375 L 0.3125 -2.984375 C 0.351562 -3.296875 0.488281 -3.546875 0.71875 -3.734375 C 0.945312 -3.921875 1.242188 -4.015625 1.609375 -4.015625 C 2.003906 -4.015625 2.304688 -3.921875 2.515625 -3.734375 C 2.734375 -3.546875 2.84375 -3.28125 2.84375 -2.9375 C 2.84375 -2.78125 2.804688 -2.625 2.734375 -2.46875 C 2.671875 -2.320312 2.566406 -2.171875 2.421875 -2.015625 C 2.285156 -1.867188 2.023438 -1.632812 1.640625 -1.3125 C 1.421875 -1.132812 1.242188 -0.972656 1.109375 -0.828125 C 0.984375 -0.691406 0.894531 -0.554688 0.84375 -0.421875 L 2.90625 -0.421875 L 2.90625 0 Z M 0.296875 0 "/>
</g>
<g id="glyph-3-0">
<path d="M 6.375 0 L 6.375 -4.375 C 6.375 -4.863281 6.382812 -5.332031 6.40625 -5.78125 C 6.257812 -5.226562 6.125 -4.789062 6 -4.46875 L 4.296875 0 L 3.671875 0 L 1.953125 -4.46875 L 1.703125 -5.265625 L 1.546875 -5.78125 L 1.5625 -5.265625 L 1.578125 -4.375 L 1.578125 0 L 0.78125 0 L 0.78125 -6.5625 L 1.953125 -6.5625 L 3.703125 -2.015625 C 3.765625 -1.828125 3.820312 -1.628906 3.875 -1.421875 C 3.9375 -1.210938 3.976562 -1.0625 4 -0.96875 C 4.019531 -1.09375 4.066406 -1.28125 4.140625 -1.53125 C 4.222656 -1.789062 4.28125 -1.953125 4.3125 -2.015625 L 6.03125 -6.5625 L 7.171875 -6.5625 L 7.171875 0 Z M 6.375 0 "/>
</g>
<g id="glyph-3-1">
<path d="M 0.484375 -3.3125 C 0.484375 -4.375 0.769531 -5.195312 1.34375 -5.78125 C 1.914062 -6.375 2.71875 -6.671875 3.75 -6.671875 C 4.476562 -6.671875 5.066406 -6.546875 5.515625 -6.296875 C 5.972656 -6.046875 6.320312 -5.65625 6.5625 -5.125 L 5.71875 -4.859375 C 5.53125 -5.234375 5.269531 -5.503906 4.9375 -5.671875 C 4.613281 -5.847656 4.207031 -5.9375 3.71875 -5.9375 C 2.96875 -5.9375 2.390625 -5.707031 1.984375 -5.25 C 1.585938 -4.789062 1.390625 -4.144531 1.390625 -3.3125 C 1.390625 -2.476562 1.597656 -1.820312 2.015625 -1.34375 C 2.441406 -0.863281 3.035156 -0.625 3.796875 -0.625 C 4.222656 -0.625 4.617188 -0.6875 4.984375 -0.8125 C 5.359375 -0.945312 5.660156 -1.128906 5.890625 -1.359375 L 5.890625 -2.546875 L 3.9375 -2.546875 L 3.9375 -3.28125 L 6.71875 -3.28125 L 6.71875 -1.015625 C 6.363281 -0.660156 5.929688 -0.382812 5.421875 -0.1875 C 4.921875 0 4.378906 0.09375 3.796875 0.09375 C 3.109375 0.09375 2.515625 -0.0390625 2.015625 -0.3125 C 1.515625 -0.59375 1.132812 -0.988281 0.875 -1.5 C 0.613281 -2.007812 0.484375 -2.613281 0.484375 -3.3125 Z M 0.484375 -3.3125 "/>
</g>
<g id="glyph-3-2">
<path d="M 5.4375 0 L 4.6875 -1.921875 L 1.703125 -1.921875 L 0.9375 0 L 0.015625 0 L 2.703125 -6.5625 L 3.703125 -6.5625 L 6.34375 0 Z M 3.1875 -5.890625 L 3.15625 -5.765625 C 3.070312 -5.503906 2.957031 -5.175781 2.8125 -4.78125 L 1.96875 -2.609375 L 4.421875 -2.609375 L 3.578125 -4.78125 C 3.492188 -5 3.40625 -5.242188 3.3125 -5.515625 Z M 3.1875 -5.890625 "/>
</g>
<g id="glyph-3-3">
<path d="M 5.046875 0 L 1.53125 -5.59375 L 1.546875 -5.140625 L 1.578125 -4.359375 L 1.578125 0 L 0.78125 0 L 0.78125 -6.5625 L 1.8125 -6.5625 L 5.375 -0.9375 C 5.332031 -1.539062 5.3125 -1.984375 5.3125 -2.265625 L 5.3125 -6.5625 L 6.109375 -6.5625 L 6.109375 0 Z M 5.046875 0 "/>
</g>
<g id="glyph-4-0">
<path d="M 4.71875 -1.4375 C 4.71875 -0.957031 4.523438 -0.582031 4.140625 -0.3125 C 3.765625 -0.0507812 3.238281 0.078125 2.5625 0.078125 C 1.289062 0.078125 0.550781 -0.363281 0.34375 -1.25 L 1.03125 -1.390625 C 1.113281 -1.078125 1.28125 -0.847656 1.53125 -0.703125 C 1.789062 -0.554688 2.140625 -0.484375 2.578125 -0.484375 C 3.035156 -0.484375 3.390625 -0.5625 3.640625 -0.71875 C 3.890625 -0.875 4.015625 -1.101562 4.015625 -1.40625 C 4.015625 -1.570312 3.972656 -1.707031 3.890625 -1.8125 C 3.816406 -1.925781 3.707031 -2.015625 3.5625 -2.078125 C 3.425781 -2.148438 3.257812 -2.207031 3.0625 -2.25 C 2.875 -2.300781 2.660156 -2.351562 2.421875 -2.40625 C 2.003906 -2.5 1.6875 -2.59375 1.46875 -2.6875 C 1.257812 -2.78125 1.09375 -2.878906 0.96875 -2.984375 C 0.84375 -3.097656 0.75 -3.226562 0.6875 -3.375 C 0.625 -3.53125 0.59375 -3.707031 0.59375 -3.90625 C 0.59375 -4.351562 0.757812 -4.695312 1.09375 -4.9375 C 1.4375 -5.175781 1.929688 -5.296875 2.578125 -5.296875 C 3.171875 -5.296875 3.625 -5.203125 3.9375 -5.015625 C 4.25 -4.835938 4.46875 -4.53125 4.59375 -4.09375 L 3.890625 -3.984375 C 3.816406 -4.253906 3.671875 -4.453125 3.453125 -4.578125 C 3.242188 -4.703125 2.945312 -4.765625 2.5625 -4.765625 C 2.144531 -4.765625 1.828125 -4.695312 1.609375 -4.5625 C 1.390625 -4.425781 1.28125 -4.21875 1.28125 -3.9375 C 1.28125 -3.78125 1.320312 -3.648438 1.40625 -3.546875 C 1.488281 -3.441406 1.609375 -3.351562 1.765625 -3.28125 C 1.929688 -3.207031 2.253906 -3.113281 2.734375 -3 C 2.898438 -2.96875 3.0625 -2.929688 3.21875 -2.890625 C 3.375 -2.859375 3.523438 -2.8125 3.671875 -2.75 C 3.816406 -2.695312 3.953125 -2.632812 4.078125 -2.5625 C 4.210938 -2.5 4.328125 -2.414062 4.421875 -2.3125 C 4.515625 -2.207031 4.585938 -2.082031 4.640625 -1.9375 C 4.691406 -1.800781 4.71875 -1.632812 4.71875 -1.4375 Z M 4.71875 -1.4375 "/>
</g>
<g id="glyph-4-1">
<path d="M 4.3125 0 L 2.953125 -2.171875 L 1.328125 -2.171875 L 1.328125 0 L 0.625 0 L 0.625 -5.21875 L 3.078125 -5.21875 C 3.671875 -5.21875 4.125 -5.085938 4.4375 -4.828125 C 4.757812 -4.566406 4.921875 -4.203125 4.921875 -3.734375 C 4.921875 -3.335938 4.804688 -3.007812 4.578125 -2.75 C 4.359375 -2.488281 4.050781 -2.320312 3.65625 -2.25 L 5.125 0 Z M 4.21875 -3.71875 C 4.21875 -4.019531 4.113281 -4.25 3.90625 -4.40625 C 3.695312 -4.570312 3.398438 -4.65625 3.015625 -4.65625 L 1.328125 -4.65625 L 1.328125 -2.734375 L 3.046875 -2.734375 C 3.410156 -2.734375 3.695312 -2.816406 3.90625 -2.984375 C 4.113281 -3.160156 4.21875 -3.40625 4.21875 -3.71875 Z M 4.21875 -3.71875 "/>
</g>
<g id="glyph-4-2">
<path d="M 0.375 -2.640625 C 0.375 -3.484375 0.601562 -4.132812 1.0625 -4.59375 C 1.519531 -5.0625 2.160156 -5.296875 2.984375 -5.296875 C 3.554688 -5.296875 4.023438 -5.195312 4.390625 -5 C 4.753906 -4.8125 5.03125 -4.503906 5.21875 -4.078125 L 4.546875 -3.875 C 4.398438 -4.164062 4.195312 -4.378906 3.9375 -4.515625 C 3.675781 -4.648438 3.351562 -4.71875 2.96875 -4.71875 C 2.363281 -4.71875 1.898438 -4.535156 1.578125 -4.171875 C 1.253906 -3.804688 1.09375 -3.296875 1.09375 -2.640625 C 1.09375 -1.972656 1.265625 -1.445312 1.609375 -1.0625 C 1.953125 -0.6875 2.421875 -0.5 3.015625 -0.5 C 3.359375 -0.5 3.675781 -0.550781 3.96875 -0.65625 C 4.257812 -0.757812 4.5 -0.898438 4.6875 -1.078125 L 4.6875 -2.015625 L 3.125 -2.015625 L 3.125 -2.609375 L 5.34375 -2.609375 L 5.34375 -0.8125 C 5.0625 -0.53125 4.71875 -0.3125 4.3125 -0.15625 C 3.914062 0 3.484375 0.078125 3.015625 0.078125 C 2.460938 0.078125 1.988281 -0.03125 1.59375 -0.25 C 1.207031 -0.46875 0.90625 -0.78125 0.6875 -1.1875 C 0.476562 -1.601562 0.375 -2.085938 0.375 -2.640625 Z M 0.375 -2.640625 "/>
</g>
<g id="glyph-4-3">
<path d="M 4.328125 0 L 3.734375 -1.53125 L 1.34375 -1.53125 L 0.75 0 L 0.015625 0 L 2.140625 -5.21875 L 2.953125 -5.21875 L 5.046875 0 Z M 2.546875 -4.6875 L 2.5 -4.59375 C 2.4375 -4.382812 2.347656 -4.117188 2.234375 -3.796875 L 1.5625 -2.078125 L 3.515625 -2.078125 L 2.84375 -3.796875 C 2.78125 -3.972656 2.710938 -4.164062 2.640625 -4.375 Z M 2.546875 -4.6875 "/>
</g>
</g>
</defs>
<rect x="-39.6" y="-25.2" width="475.2" height="302.4" fill="rgb(100%, 100%, 100%)" fill-opacity="1"/>
<path fill="none" stroke-width="0.493904" stroke-linecap="round" stroke-linejoin="round" stroke="rgb(50.196078%, 50.196078%, 50.196078%)" stroke-opacity="1" stroke-miterlimit="10" d="M 100.253906 93.449219 L 26.394531 205.242188 "/>
<path fill-rule="nonzero" fill="rgb(50.196078%, 50.196078%, 50.196078%)" fill-opacity="1" d="M 24.769531 204.167969 L 23.800781 209.164062 L 28.019531 206.316406 Z M 24.769531 204.167969 "/>
<path fill="none" stroke-width="0.493904" stroke-linecap="round" stroke-linejoin="round" stroke="rgb(50.196078%, 50.196078%, 50.196078%)" stroke-opacity="1" stroke-miterlimit="10" d="M 102.335938 94.585938 L 53.761719 204.863281 "/>
<path fill-rule="nonzero" fill="rgb(50.196078%, 50.196078%, 50.196078%)" fill-opacity="1" d="M 51.980469 204.078125 L 51.867188 209.164062 L 55.546875 205.648438 Z M 51.980469 204.078125 "/>
<path fill="none" stroke-width="0.493904" stroke-linecap="round" stroke-linejoin="round" stroke="rgb(50.196078%, 50.196078%, 50.196078%)" stroke-opacity="1" stroke-miterlimit="10" d="M 104.976562 95.449219 L 80.945312 204.574219 "/>
<path fill-rule="nonzero" fill="rgb(50.196078%, 50.196078%, 50.196078%)" fill-opacity="1" d="M 79.042969 204.152344 L 79.933594 209.164062 L 82.847656 204.992188 Z M 79.042969 204.152344 "/>
<path fill="none" stroke-width="0.493904" stroke-linecap="round" stroke-linejoin="round" stroke="rgb(50.196078%, 50.196078%, 50.196078%)" stroke-opacity="1" stroke-miterlimit="10" d="M 108 95.777344 L 108 204.460938 "/>
<path fill-rule="nonzero" fill="rgb(50.196078%, 50.196078%, 50.196078%)" fill-opacity="1" d="M 106.050781 204.460938 L 108 209.164062 L 109.949219 204.460938 Z M 106.050781 204.460938 "/>
<path fill="none" stroke-width="0.493904" stroke-linecap="round" stroke-linejoin="round" stroke="rgb(50.196078%, 50.196078%, 50.196078%)" stroke-opacity="1" stroke-miterlimit="10" d="M 111.023438 95.449219 L 135.054688 204.574219 "/>
<path fill-rule="nonzero" fill="rgb(50.196078%, 50.196078%, 50.196078%)" fill-opacity="1" d="M 133.152344 204.992188 L 136.066406 209.164062 L 136.957031 204.152344 Z M 133.152344 204.992188 "/>
<path fill="none" stroke-width="0.493904" stroke-linecap="round" stroke-linejoin="round" stroke="rgb(50.196078%, 50.196078%, 50.196078%)" stroke-opacity="1" stroke-miterlimit="10" d="M 194.976562 95.449219 L 170.945312 204.574219 "/>
<path fill-rule="nonzero" fill="rgb(50.196078%, 50.196078%, 50.196078%)" fill-opacity="1" d="M 169.042969 204.152344 L 169.933594 209.164062 L 172.847656 204.992188 Z M 169.042969 204.152344 "/>
<path fill="none" stroke-width="0.493904" stroke-linecap="round" stroke-linejoin="round" stroke="rgb(50.196078%, 50.196078%, 50.196078%)" stroke-opacity="1" stroke-miterlimit="10" d="M 198 95.777344 L 198 204.460938 "/>
<path fill-rule="nonzero" fill="rgb(50.196078%, 50.196078%, 50.196078%)" fill-opacity="1" d="M 196.050781 204.460938 L 198 209.164062 L 199.949219 204.460938 Z M 196.050781 204.460938 "/>
<path fill="none" stroke-width="0.493904" stroke-linecap="round" stroke-linejoin="round" stroke="rgb(50.196078%, 50.196078%, 50.196078%)" stroke-opacity="1" stroke-miterlimit="10" d="M 201.023438 95.449219 L 225.054688 204.574219 "/>
<path fill-rule="nonzero" fill="rgb(50.196078%, 50.196078%, 50.196078%)" fill-opacity="1" d="M 223.152344 204.992188 L 226.066406 209.164062 L 226.957031 204.152344 Z M 223.152344 204.992188 "/>
<path fill="none" stroke-width="0.493904" stroke-linecap="round" stroke-linejoin="round" stroke="rgb(50.196078%, 50.196078%, 50.196078%)" stroke-opacity="1" stroke-miterlimit="10" d="M 203.664062 94.585938 L 252.238281 204.863281 "/>
<path fill-rule="nonzero" fill="rgb(50.196078%, 50.196078%, 50.196078%)" fill-opacity="1" d="M 250.453125 205.648438 L 254.132812 209.164062 L 254.019531 204.078125 Z M 250.453125 205.648438 "/>
<path fill="none" stroke-width="0.493904" stroke-linecap="round" stroke-linejoin="round" stroke="rgb(50.196078%, 50.196078%, 50.196078%)" stroke-opacity="1" stroke-miterlimit="10" d="M 288 95.777344 L 288 204.460938 "/>
<path fill-rule="nonzero" fill="rgb(50.196078%, 50.196078%, 50.196078%)" fill-opacity="1" d="M 286.050781 204.460938 L 288 209.164062 L 289.949219 204.460938 Z M 286.050781 204.460938 "/>
<path fill="none" stroke-width="0.493904" stroke-linecap="round" stroke-linejoin="round" stroke="rgb(50.196078%, 50.196078%, 50.196078%)" stroke-opacity="1" stroke-miterlimit="10" d="M 291.023438 95.449219 L 315.054688 204.574219 "/>
<path fill-rule="nonzero" fill="rgb(50.196078%, 50.196078%, 50.196078%)" fill-opacity="1" d="M 313.152344 204.992188 L 316.066406 209.164062 L 316.957031 204.152344 Z M 313.152344 204.992188 "/>
<path fill="none" stroke-width="0.493904" stroke-linecap="round" stroke-linejoin="round" stroke="rgb(50.196078%, 50.196078%, 50.196078%)" stroke-opacity="1" stroke-miterlimit="10" d="M 293.664062 94.585938 L 342.238281 204.863281 "/>
<path fill-rule="nonzero" fill="rgb(50.196078%, 50.196078%, 50.196078%)" fill-opacity="1" d="M 340.453125 205.648438 L 344.132812 209.164062 L 344.019531 204.078125 Z M 340.453125 205.648438 "/>
<path fill="none" stroke-width="0.493904" stroke-linecap="round" stroke-linejoin="round" stroke="rgb(50.196078%, 50.196078%, 50.196078%)" stroke-opacity="1" stroke-miterlimit="10" d="M 295.746094 93.449219 L 369.605469 205.242188 "/>
<path fill-rule="nonzero" fill="rgb(50.196078%, 50.196078%, 50.196078%)" fill-opacity="1" d="M 367.980469 206.316406 L 372.199219 209.164062 L 371.230469 204.167969 Z M 367.980469 206.316406 "/>
<path fill="none" stroke-width="0.493904" stroke-linecap="round" stroke-linejoin="round" stroke="rgb(50.196078%, 50.196078%, 50.196078%)" stroke-opacity="1" stroke-miterlimit="10" d="M 23.667969 230.96875 L 23.875 231.398438 L 23.773438 232.253906 L 23.472656 233.179688 L 22.980469 234.132812 L 22.335938 235.007812 L 21.597656 235.726562 L 20.925781 236.1875 L 20.058594 236.582031 L 19.058594 236.835938 L 17.964844 236.917969 L 16.878906 236.824219 L 15.886719 236.5625 L 15.074219 236.1875 L 14.28125 235.621094 L 13.554688 234.875 L 12.925781 233.980469 L 12.464844 233.027344 L 12.199219 232.113281 L 12.125 231.398438 L 12.332031 230.96875 "/>
<path fill-rule="nonzero" fill="rgb(50.196078%, 50.196078%, 50.196078%)" fill-opacity="1" d="M 14.089844 231.808594 L 14.363281 226.726562 L 10.574219 230.125 Z M 14.089844 231.808594 "/>
<path fill-rule="nonzero" fill="rgb(50.196078%, 50.196078%, 50.196078%)" fill-opacity="1" d="M 25.425781 230.125 L 21.636719 226.726562 L 21.910156 231.808594 Z M 25.425781 230.125 "/>
<path fill="none" stroke-width="0.493904" stroke-linecap="round" stroke-linejoin="round" stroke="rgb(50.196078%, 50.196078%, 50.196078%)" stroke-opacity="1" stroke-miterlimit="10" d="M 53.667969 230.96875 L 53.875 231.398438 L 53.773438 232.253906 L 53.472656 233.179688 L 52.980469 234.132812 L 52.335938 235.007812 L 51.597656 235.726562 L 50.925781 236.1875 L 50.058594 236.582031 L 49.058594 236.835938 L 47.964844 236.917969 L 46.878906 236.824219 L 45.886719 236.5625 L 45.074219 236.1875 L 44.28125 235.621094 L 43.554688 234.875 L 42.925781 233.980469 L 42.464844 233.027344 L 42.199219 232.113281 L 42.125 231.398438 L 42.332031 230.96875 "/>
<path fill-rule="nonzero" fill="rgb(50.196078%, 50.196078%, 50.196078%)" fill-opacity="1" d="M 44.089844 231.808594 L 44.363281 226.726562 L 40.574219 230.125 Z M 44.089844 231.808594 "/>
<path fill-rule="nonzero" fill="rgb(50.196078%, 50.196078%, 50.196078%)" fill-opacity="1" d="M 55.425781 230.125 L 51.636719 226.726562 L 51.910156 231.808594 Z M 55.425781 230.125 "/>
<path fill="none" stroke-width="0.493904" stroke-linecap="round" stroke-linejoin="round" stroke="rgb(50.196078%, 50.196078%, 50.196078%)" stroke-opacity="1" stroke-miterlimit="10" d="M 83.667969 230.96875 L 83.875 231.398438 L 83.773438 232.253906 L 83.472656 233.179688 L 82.980469 234.132812 L 82.335938 235.007812 L 81.597656 235.726562 L 80.925781 236.1875 L 80.058594 236.582031 L 79.058594 236.835938 L 77.964844 236.917969 L 76.878906 236.824219 L 75.886719 236.5625 L 75.074219 236.1875 L 74.28125 235.621094 L 73.554688 234.875 L 72.925781 233.980469 L 72.464844 233.027344 L 72.199219 232.113281 L 72.125 231.398438 L 72.332031 230.96875 "/>
<path fill-rule="nonzero" fill="rgb(50.196078%, 50.196078%, 50.196078%)" fill-opacity="1" d="M 74.089844 231.808594 L 74.363281 226.726562 L 70.574219 230.125 Z M 74.089844 231.808594 "/>
<path fill-rule="nonzero" fill="rgb(50.196078%, 50.196078%, 50.196078%)" fill-opacity="1" d="M 85.425781 230.125 L 81.636719 226.726562 L 81.910156 231.808594 Z M 85.425781 230.125 "/>
<path fill="none" stroke-width="0.493904" stroke-linecap="round" stroke-linejoin="round" stroke="rgb(50.196078%, 50.196078%, 50.196078%)" stroke-opacity="1" stroke-miterlimit="10" d="M 113.667969 230.96875 L 113.875 231.398438 L 113.773438 232.253906 L 113.472656 233.179688 L 112.980469 234.132812 L 112.335938 235.007812 L 111.597656 235.726562 L 110.925781 236.1875 L 110.058594 236.582031 L 109.058594 236.835938 L 107.964844 236.917969 L 106.878906 236.824219 L 105.886719 236.5625 L 105.074219 236.1875 L 104.28125 235.621094 L 103.554688 234.875 L 102.925781 233.980469 L 102.464844 233.027344 L 102.199219 232.113281 L 102.125 231.398438 L 102.332031 230.96875 "/>
<path fill-rule="nonzero" fill="rgb(50.196078%, 50.196078%, 50.196078%)" fill-opacity="1" d="M 104.089844 231.808594 L 104.363281 226.726562 L 100.574219 230.125 Z M 104.089844 231.808594 "/>
<path fill-rule="nonzero" fill="rgb(50.196078%, 50.196078%, 50.196078%)" fill-opacity="1" d="M 115.425781 230.125 L 111.636719 226.726562 L 111.910156 231.808594 Z M 115.425781 230.125 "/>
<path fill="none" stroke-width="0.493904" stroke-linecap="round" stroke-linejoin="round" stroke="rgb(50.196078%, 50.196078%, 50.196078%)" stroke-opacity="1" stroke-miterlimit="10" d="M 143.667969 230.96875 L 143.875 231.398438 L 143.773438 232.253906 L 143.472656 233.179688 L 142.980469 234.132812 L 142.335938 235.007812 L 141.597656 235.726562 L 140.925781 236.1875 L 140.058594 236.582031 L 139.058594 236.835938 L 137.964844 236.917969 L 136.878906 236.824219 L 135.886719 236.5625 L 135.074219 236.1875 L 134.28125 235.621094 L 133.554688 234.875 L 132.925781 233.980469 L 132.464844 233.027344 L 132.199219 232.113281 L 132.125 231.398438 L 132.332031 230.96875 "/>
<path fill-rule="nonzero" fill="rgb(50.196078%, 50.196078%, 50.196078%)" fill-opacity="1" d="M 134.089844 231.808594 L 134.363281 226.726562 L 130.574219 230.125 Z M 134.089844 231.808594 "/>
<path fill-rule="nonzero" fill="rgb(50.196078%, 50.196078%, 50.196078%)" fill-opacity="1" d="M 145.425781 230.125 L 141.636719 226.726562 L 141.910156 231.808594 Z M 145.425781 230.125 "/>
<path fill="none" stroke-width="0.493904" stroke-linecap="round" stroke-linejoin="round" stroke="rgb(50.196078%, 50.196078%, 50.196078%)" stroke-opacity="1" stroke-miterlimit="10" d="M 173.667969 230.96875 L 173.875 231.398438 L 173.773438 232.253906 L 173.472656 233.179688 L 172.980469 234.132812 L 172.335938 235.007812 L 171.597656 235.726562 L 170.925781 236.1875 L 170.058594 236.582031 L 169.058594 236.835938 L 167.964844 236.917969 L 166.878906 236.824219 L 165.886719 236.5625 L 165.074219 236.1875 L 164.28125 235.621094 L 163.554688 234.875 L 162.925781 233.980469 L 162.464844 233.027344 L 162.199219 232.113281 L 162.125 231.398438 L 162.332031 230.96875 "/>
<path fill-rule="nonzero" fill="rgb(50.196078%, 50.196078%, 50.196078%)" fill-opacity="1" d="M 164.089844 231.808594 L 164.363281 226.726562 L 160.574219 230.125 Z M 164.089844 231.808594 "/>
<path fill-rule="nonzero" fill="rgb(50.196078%, 50.196078%, 50.196078%)" fill-opacity="1" d="M 175.425781 230.125 L 171.636719 226.726562 L 171.910156 231.808594 Z M 175.425781 230.125 "/>
<path fill="none" stroke-width="0.493904" stroke-linecap="round" stroke-linejoin="round" stroke="rgb(50.196078%, 50.196078%, 50.196078%)" stroke-opacity="1" stroke-miterlimit="10" d="M 203.667969 230.96875 L 203.875 231.398438 L 203.773438 232.253906 L 203.472656 233.179688 L 202.980469 234.132812 L 202.335938 235.007812 L 201.597656 235.726562 L 200.925781 236.1875 L 200.058594 236.582031 L 199.058594 236.835938 L 197.964844 236.917969 L 196.878906 236.824219 L 195.886719 236.5625 L 195.074219 236.1875 L 194.28125 235.621094 L 193.554688 234.875 L 192.925781 233.980469 L 192.464844 233.027344 L 192.199219 232.113281 L 192.125 231.398438 L 192.332031 230.96875 "/>
<path fill-rule="nonzero" fill="rgb(50.196078%, 50.196078%, 50.196078%)" fill-opacity="1" d="M 194.089844 231.808594 L 194.363281 226.726562 L 190.574219 230.125 Z M 194.089844 231.808594 "/>
<path fill-rule="nonzero" fill="rgb(50.196078%, 50.196078%, 50.196078%)" fill-opacity="1" d="M 205.425781 230.125 L 201.636719 226.726562 L 201.910156 231.808594 Z M 205.425781 230.125 "/>
<path fill="none" stroke-width="0.493904" stroke-linecap="round" stroke-linejoin="round" stroke="rgb(50.196078%, 50.196078%, 50.196078%)" stroke-opacity="1" stroke-miterlimit="10" d="M 233.667969 230.96875 L 233.875 231.398438 L 233.773438 232.253906 L 233.472656 233.179688 L 232.980469 234.132812 L 232.335938 235.007812 L 231.597656 235.726562 L 230.925781 236.1875 L 230.058594 236.582031 L 229.058594 236.835938 L 227.964844 236.917969 L 226.878906 236.824219 L 225.886719 236.5625 L 225.074219 236.1875 L 224.28125 235.621094 L 223.554688 234.875 L 222.925781 233.980469 L 222.464844 233.027344 L 222.199219 232.113281 L 222.125 231.398438 L 222.332031 230.96875 "/>
<path fill-rule="nonzero" fill="rgb(50.196078%, 50.196078%, 50.196078%)" fill-opacity="1" d="M 224.089844 231.808594 L 224.363281 226.726562 L 220.574219 230.125 Z M 224.089844 231.808594 "/>
<path fill-rule="nonzero" fill="rgb(50.196078%, 50.196078%, 50.196078%)" fill-opacity="1" d="M 235.425781 230.125 L 231.636719 226.726562 L 231.910156 231.808594 Z M 235.425781 230.125 "/>
<path fill="none" stroke-width="0.493904" stroke-linecap="round" stroke-linejoin="round" stroke="rgb(50.196078%, 50.196078%, 50.196078%)" stroke-opacity="1" stroke-miterlimit="10" d="M 263.667969 230.96875 L 263.875 231.398438 L 263.773438 232.253906 L 263.472656 233.179688 L 262.980469 234.132812 L 262.335938 235.007812 L 261.597656 235.726562 L 260.925781 236.1875 L 260.058594 236.582031 L 259.058594 236.835938 L 257.964844 236.917969 L 256.878906 236.824219 L 255.886719 236.5625 L 255.074219 236.1875 L 254.28125 235.621094 L 253.554688 234.875 L 252.925781 233.980469 L 252.464844 233.027344 L 252.199219 232.113281 L 252.125 231.398438 L 252.332031 230.96875 "/>
<path fill-rule="nonzero" fill="rgb(50.196078%, 50.196078%, 50.196078%)" fill-opacity="1" d="M 254.089844 231.808594 L 254.363281 226.726562 L 250.574219 230.125 Z M 254.089844 231.808594 "/>
<path fill-rule="nonzero" fill="rgb(50.196078%, 50.196078%, 50.196078%)" fill-opacity="1" d="M 265.425781 230.125 L 261.636719 226.726562 L 261.910156 231.808594 Z M 265.425781 230.125 "/>
<path fill="none" stroke-width="0.493904" stroke-linecap="round" stroke-linejoin="round" stroke="rgb(50.196078%, 50.196078%, 50.196078%)" stroke-opacity="1" stroke-miterlimit="10" d="M 293.667969 230.96875 L 293.875 231.398438 L 293.773438 232.253906 L 293.472656 233.179688 L 292.980469 234.132812 L 292.335938 235.007812 L 291.597656 235.726562 L 290.925781 236.1875 L 290.058594 236.582031 L 289.058594 236.835938 L 287.964844 236.917969 L 286.878906 236.824219 L 285.886719 236.5625 L 285.074219 236.1875 L 284.28125 235.621094 L 283.554688 234.875 L 282.925781 233.980469 L 282.464844 233.027344 L 282.199219 232.113281 L 282.125 231.398438 L 282.332031 230.96875 "/>
<path fill-rule="nonzero" fill="rgb(50.196078%, 50.196078%, 50.196078%)" fill-opacity="1" d="M 284.089844 231.808594 L 284.363281 226.726562 L 280.574219 230.125 Z M 284.089844 231.808594 "/>
<path fill-rule="nonzero" fill="rgb(50.196078%, 50.196078%, 50.196078%)" fill-opacity="1" d="M 295.425781 230.125 L 291.636719 226.726562 L 291.910156 231.808594 Z M 295.425781 230.125 "/>
<path fill="none" stroke-width="0.493904" stroke-linecap="round" stroke-linejoin="round" stroke="rgb(50.196078%, 50.196078%, 50.196078%)" stroke-opacity="1" stroke-miterlimit="10" d="M 323.667969 230.96875 L 323.875 231.398438 L 323.773438 232.253906 L 323.472656 233.179688 L 322.980469 234.132812 L 322.335938 235.007812 L 321.597656 235.726562 L 320.925781 236.1875 L 320.058594 236.582031 L 319.058594 236.835938 L 317.964844 236.917969 L 316.878906 236.824219 L 315.886719 236.5625 L 315.074219 236.1875 L 314.28125 235.621094 L 313.554688 234.875 L 312.925781 233.980469 L 312.464844 233.027344 L 312.199219 232.113281 L 312.125 231.398438 L 312.332031 230.96875 "/>
<path fill-rule="nonzero" fill="rgb(50.196078%, 50.196078%, 50.196078%)" fill-opacity="1" d="M 314.089844 231.808594 L 314.363281 226.726562 L 310.574219 230.125 Z M 314.089844 231.808594 "/>
<path fill-rule="nonzero" fill="rgb(50.196078%, 50.196078%, 50.196078%)" fill-opacity="1" d="M 325.425781 230.125 L 321.636719 226.726562 L 321.910156 231.808594 Z M 325.425781 230.125 "/>
<path fill="none" stroke-width="0.493904" stroke-linecap="round" stroke-linejoin="round" stroke="rgb(50.196078%, 50.196078%, 50.196078%)" stroke-opacity="1" stroke-miterlimit="10" d="M 353.667969 230.96875 L 353.875 231.398438 L 353.773438 232.253906 L 353.472656 233.179688 L 352.980469 234.132812 L 352.335938 235.007812 L 351.597656 235.726562 L 350.925781 236.1875 L 350.058594 236.582031 L 349.058594 236.835938 L 347.964844 236.917969 L 346.878906 236.824219 L 345.886719 236.5625 L 345.074219 236.1875 L 344.28125 235.621094 L 343.554688 234.875 L 342.925781 233.980469 L 342.464844 233.027344 L 342.199219 232.113281 L 342.125 231.398438 L 342.332031 230.96875 "/>
<path fill-rule="nonzero" fill="rgb(50.196078%, 50.196078%, 50.196078%)" fill-opacity="1" d="M 344.089844 231.808594 L 344.363281 226.726562 L 340.574219 230.125 Z M 344.089844 231.808594 "/>
<path fill-rule="nonzero" fill="rgb(50.196078%, 50.196078%, 50.196078%)" fill-opacity="1" d="M 355.425781 230.125 L 351.636719 226.726562 L 351.910156 231.808594 Z M 355.425781 230.125 "/>
<path fill="none" stroke-width="0.493904" stroke-linecap="round" stroke-linejoin="round" stroke="rgb(50.196078%, 50.196078%, 50.196078%)" stroke-opacity="1" stroke-miterlimit="10" d="M 383.667969 230.96875 L 383.875 231.398438 L 383.773438 232.253906 L 383.472656 233.179688 L 382.980469 234.132812 L 382.335938 235.007812 L 381.597656 235.726562 L 380.925781 236.1875 L 380.058594 236.582031 L 379.058594 236.835938 L 377.964844 236.917969 L 376.878906 236.824219 L 375.886719 236.5625 L 375.074219 236.1875 L 374.28125 235.621094 L 373.554688 234.875 L 372.925781 233.980469 L 372.464844 233.027344 L 372.199219 232.113281 L 372.125 231.398438 L 372.332031 230.96875 "/>
<path fill-rule="nonzero" fill="rgb(50.196078%, 50.196078%, 50.196078%)" fill-opacity="1" d="M 374.089844 231.808594 L 374.363281 226.726562 L 370.574219 230.125 Z M 374.089844 231.808594 "/>
<path fill-rule="nonzero" fill="rgb(50.196078%, 50.196078%, 50.196078%)" fill-opacity="1" d="M 385.425781 230.125 L 381.636719 226.726562 L 381.910156 231.808594 Z M 385.425781 230.125 "/>
<path fill="none" stroke-width="0.493904" stroke-linecap="round" stroke-linejoin="round" stroke="rgb(50.196078%, 50.196078%, 50.196078%)" stroke-opacity="1" stroke-dasharray="3 3" stroke-miterlimit="10" d="M 100.222656 64.707031 L 99.523438 63.523438 L 98.917969 61.992188 L 98.683594 60.65625 L 98.675781 60.382812 L 98.761719 59.21875 L 99.058594 57.984375 L 99.574219 56.707031 L 100.289062 55.464844 L 101.152344 54.335938 L 102.117188 53.394531 L 103.144531 52.648438 L 103.316406 52.546875 L 104.441406 52.007812 L 105.707031 51.625 L 107.097656 51.410156 L 108.546875 51.386719 L 109.960938 51.554688 L 111.257812 51.898438 L 112.417969 52.398438 L 112.683594 52.546875 L 113.722656 53.257812 L 114.695312 54.171875 L 115.582031 55.273438 L 116.324219 56.503906 L 116.875 57.78125 L 117.207031 59.023438 L 117.324219 60.199219 L 117.324219 60.382812 L 117.15625 61.703125 L 116.636719 63.179688 L 115.75 64.691406 "/>
<path fill-rule="nonzero" fill="rgb(50.196078%, 50.196078%, 50.196078%)" fill-opacity="1" d="M 114.070312 63.707031 L 113.375 68.75 L 117.433594 65.675781 Z M 114.070312 63.707031 "/>
<path fill-rule="nonzero" fill="rgb(50.196078%, 50.196078%, 50.196078%)" fill-opacity="1" d="M 98.550781 65.699219 L 102.625 68.75 L 101.898438 63.710938 Z M 98.550781 65.699219 "/>
<path fill="none" stroke-width="0.493904" stroke-linecap="round" stroke-linejoin="round" stroke="rgb(50.196078%, 50.196078%, 50.196078%)" stroke-opacity="1" stroke-dasharray="3 3" stroke-miterlimit="10" d="M 190.222656 64.707031 L 189.523438 63.523438 L 188.917969 61.992188 L 188.683594 60.65625 L 188.675781 60.382812 L 188.761719 59.21875 L 189.058594 57.984375 L 189.574219 56.707031 L 190.289062 55.464844 L 191.152344 54.335938 L 192.117188 53.394531 L 193.144531 52.648438 L 193.316406 52.546875 L 194.441406 52.007812 L 195.707031 51.625 L 197.097656 51.410156 L 198.546875 51.386719 L 199.960938 51.554688 L 201.257812 51.898438 L 202.417969 52.398438 L 202.683594 52.546875 L 203.722656 53.257812 L 204.695312 54.171875 L 205.582031 55.273438 L 206.324219 56.503906 L 206.875 57.78125 L 207.207031 59.023438 L 207.324219 60.199219 L 207.324219 60.382812 L 207.15625 61.703125 L 206.636719 63.179688 L 205.75 64.691406 "/>
<path fill-rule="nonzero" fill="rgb(50.196078%, 50.196078%, 50.196078%)" fill-opacity="1" d="M 204.070312 63.707031 L 203.375 68.75 L 207.433594 65.675781 Z M 204.070312 63.707031 "/>
<path fill-rule="nonzero" fill="rgb(50.196078%, 50.196078%, 50.196078%)" fill-opacity="1" d="M 188.550781 65.699219 L 192.625 68.75 L 191.898438 63.710938 Z M 188.550781 65.699219 "/>
<path fill="none" stroke-width="0.493904" stroke-linecap="round" stroke-linejoin="round" stroke="rgb(50.196078%, 50.196078%, 50.196078%)" stroke-opacity="1" stroke-dasharray="3 3" stroke-miterlimit="10" d="M 280.222656 64.707031 L 279.523438 63.523438 L 278.917969 61.992188 L 278.683594 60.65625 L 278.675781 60.382812 L 278.761719 59.21875 L 279.058594 57.984375 L 279.574219 56.707031 L 280.289062 55.464844 L 281.152344 54.335938 L 282.117188 53.394531 L 283.144531 52.648438 L 283.316406 52.546875 L 284.441406 52.007812 L 285.707031 51.625 L 287.097656 51.410156 L 288.546875 51.386719 L 289.960938 51.554688 L 291.257812 51.898438 L 292.417969 52.398438 L 292.683594 52.546875 L 293.722656 53.257812 L 294.695312 54.171875 L 295.582031 55.273438 L 296.324219 56.503906 L 296.875 57.78125 L 297.207031 59.023438 L 297.324219 60.199219 L 297.324219 60.382812 L 297.15625 61.703125 L 296.636719 63.179688 L 295.75 64.691406 "/>
<path fill-rule="nonzero" fill="rgb(50.196078%, 50.196078%, 50.196078%)" fill-opacity="1" d="M 294.070312 63.707031 L 293.375 68.75 L 297.433594 65.675781 Z M 294.070312 63.707031 "/>
<path fill-rule="nonzero" fill="rgb(50.196078%, 50.196078%, 50.196078%)" fill-opacity="1" d="M 278.550781 65.699219 L 282.625 68.75 L 281.898438 63.710938 Z M 278.550781 65.699219 "/>
<path fill="none" stroke-width="0.493904" stroke-linecap="round" stroke-linejoin="round" stroke="rgb(50.196078%, 50.196078%, 50.196078%)" stroke-opacity="1" stroke-miterlimit="10" d="M 124.996094 73.957031 L 126.21875 73.597656 L 129.035156 72.863281 L 132.191406 72.132812 L 135.679688 71.453125 L 139.574219 70.855469 L 144.011719 70.378906 L 149.074219 70.070312 L 153 69.996094 L 158.421875 70.132812 L 163.3125 70.496094 L 167.582031 71.011719 L 171.347656 71.636719 L 174.738281 72.335938 L 177.804688 73.070312 L 180.503906 73.789062 L 181.011719 73.941406 "/>
<path fill-rule="nonzero" fill="rgb(50.196078%, 50.196078%, 50.196078%)" fill-opacity="1" d="M 180.457031 75.808594 L 185.519531 75.277344 L 181.566406 72.074219 Z M 180.457031 75.808594 "/>
<path fill-rule="nonzero" fill="rgb(50.196078%, 50.196078%, 50.196078%)" fill-opacity="1" d="M 124.445312 72.085938 L 120.484375 75.285156 L 125.542969 75.824219 Z M 124.445312 72.085938 "/>
<path fill="none" stroke-width="0.493904" stroke-linecap="round" stroke-linejoin="round" stroke="rgb(50.196078%, 50.196078%, 50.196078%)" stroke-opacity="1" stroke-miterlimit="10" d="M 124.816406 73.457031 L 125.113281 73.332031 L 127.871094 72.230469 L 131.238281 70.929688 L 135.125 69.488281 L 139.4375 67.96875 L 144.101562 66.4375 L 149.082031 64.941406 L 154.386719 63.511719 L 160.0625 62.1875 L 166.1875 60.992188 L 172.851562 59.953125 L 180.132812 59.113281 L 188.039062 58.53125 L 196.421875 58.269531 L 198 58.261719 L 206.4375 58.453125 L 214.449219 58.984375 L 221.847656 59.777344 L 228.625 60.78125 L 234.839844 61.949219 L 240.59375 63.253906 L 245.960938 64.664062 L 251 66.148438 L 255.726562 67.675781 L 260.109375 69.199219 L 264.082031 70.660156 L 267.554688 71.992188 L 270.429688 73.136719 L 271.1875 73.453125 "/>
<path fill-rule="nonzero" fill="rgb(50.196078%, 50.196078%, 50.196078%)" fill-opacity="1" d="M 270.441406 75.25 L 275.53125 75.257812 L 271.9375 71.652344 Z M 270.441406 75.25 "/>
<path fill-rule="nonzero" fill="rgb(50.196078%, 50.196078%, 50.196078%)" fill-opacity="1" d="M 124.066406 71.660156 L 120.472656 75.269531 L 125.566406 75.257812 Z M 124.066406 71.660156 "/>
<path fill="none" stroke-width="0.493904" stroke-linecap="round" stroke-linejoin="round" stroke="rgb(50.196078%, 50.196078%, 50.196078%)" stroke-opacity="1" stroke-miterlimit="10" d="M 214.996094 73.957031 L 216.21875 73.597656 L 219.035156 72.863281 L 222.191406 72.132812 L 225.679688 71.453125 L 229.574219 70.855469 L 234.011719 70.378906 L 239.074219 70.070312 L 243 69.996094 L 248.421875 70.132812 L 253.3125 70.496094 L 257.582031 71.011719 L 261.347656 71.636719 L 264.738281 72.335938 L 267.804688 73.070312 L 270.503906 73.789062 L 271.011719 73.941406 "/>
<path fill-rule="nonzero" fill="rgb(50.196078%, 50.196078%, 50.196078%)" fill-opacity="1" d="M 270.457031 75.808594 L 275.519531 75.277344 L 271.566406 72.074219 Z M 270.457031 75.808594 "/>
<path fill-rule="nonzero" fill="rgb(50.196078%, 50.196078%, 50.196078%)" fill-opacity="1" d="M 214.445312 72.085938 L 210.484375 75.285156 L 215.542969 75.824219 Z M 214.445312 72.085938 "/>
<path fill-rule="nonzero" fill="rgb(100%, 100%, 100%)" fill-opacity="1" d="M 55.027344 153.808594 L 69.027344 153.808594 L 69.027344 148.808594 L 55.027344 148.808594 Z M 55.027344 153.808594 "/>
<path fill-rule="nonzero" fill="rgb(100%, 100%, 100%)" fill-opacity="1" d="M 70.101562 154.375 L 84.101562 154.375 L 84.101562 149.375 L 70.101562 149.375 Z M 70.101562 154.375 "/>
<path fill-rule="nonzero" fill="rgb(100%, 100%, 100%)" fill-opacity="1" d="M 85.457031 154.808594 L 99.457031 154.808594 L 99.457031 149.808594 L 85.457031 149.808594 Z M 85.457031 154.808594 "/>
<path fill-rule="nonzero" fill="rgb(100%, 100%, 100%)" fill-opacity="1" d="M 101 154.972656 L 115 154.972656 L 115 149.972656 L 101 149.972656 Z M 101 154.972656 "/>
<path fill-rule="nonzero" fill="rgb(100%, 100%, 100%)" fill-opacity="1" d="M 116.542969 154.808594 L 130.542969 154.808594 L 130.542969 149.808594 L 116.542969 149.808594 Z M 116.542969 154.808594 "/>
<path fill-rule="nonzero" fill="rgb(100%, 100%, 100%)" fill-opacity="1" d="M 175.457031 154.808594 L 189.457031 154.808594 L 189.457031 149.808594 L 175.457031 149.808594 Z M 175.457031 154.808594 "/>
<path fill-rule="nonzero" fill="rgb(100%, 100%, 100%)" fill-opacity="1" d="M 191 154.972656 L 205 154.972656 L 205 149.972656 L 191 149.972656 Z M 191 154.972656 "/>
<path fill-rule="nonzero" fill="rgb(100%, 100%, 100%)" fill-opacity="1" d="M 206.542969 154.808594 L 220.542969 154.808594 L 220.542969 149.808594 L 206.542969 149.808594 Z M 206.542969 154.808594 "/>
<path fill-rule="nonzero" fill="rgb(100%, 100%, 100%)" fill-opacity="1" d="M 221.898438 154.375 L 235.898438 154.375 L 235.898438 149.375 L 221.898438 149.375 Z M 221.898438 154.375 "/>
<path fill-rule="nonzero" fill="rgb(100%, 100%, 100%)" fill-opacity="1" d="M 281 154.972656 L 295 154.972656 L 295 149.972656 L 281 149.972656 Z M 281 154.972656 "/>
<path fill-rule="nonzero" fill="rgb(100%, 100%, 100%)" fill-opacity="1" d="M 296.542969 154.808594 L 310.542969 154.808594 L 310.542969 149.808594 L 296.542969 149.808594 Z M 296.542969 154.808594 "/>
<path fill-rule="nonzero" fill="rgb(100%, 100%, 100%)" fill-opacity="1" d="M 311.898438 154.375 L 325.898438 154.375 L 325.898438 149.375 L 311.898438 149.375 Z M 311.898438 154.375 "/>
<path fill-rule="nonzero" fill="rgb(100%, 100%, 100%)" fill-opacity="1" d="M 326.972656 153.808594 L 340.972656 153.808594 L 340.972656 148.808594 L 326.972656 148.808594 Z M 326.972656 153.808594 "/>
<path fill-rule="nonzero" fill="rgb(100%, 100%, 100%)" fill-opacity="1" d="M 12.058594 239.335938 L 26.058594 239.335938 L 26.058594 234.335938 L 12.058594 234.335938 Z M 12.058594 239.335938 "/>
<path fill-rule="nonzero" fill="rgb(100%, 100%, 100%)" fill-opacity="1" d="M 42.058594 239.335938 L 56.058594 239.335938 L 56.058594 234.335938 L 42.058594 234.335938 Z M 42.058594 239.335938 "/>
<path fill-rule="nonzero" fill="rgb(100%, 100%, 100%)" fill-opacity="1" d="M 72.058594 239.335938 L 86.058594 239.335938 L 86.058594 234.335938 L 72.058594 234.335938 Z M 72.058594 239.335938 "/>
<path fill-rule="nonzero" fill="rgb(100%, 100%, 100%)" fill-opacity="1" d="M 102.058594 239.335938 L 116.058594 239.335938 L 116.058594 234.335938 L 102.058594 234.335938 Z M 102.058594 239.335938 "/>
<path fill-rule="nonzero" fill="rgb(100%, 100%, 100%)" fill-opacity="1" d="M 132.058594 239.335938 L 146.058594 239.335938 L 146.058594 234.335938 L 132.058594 234.335938 Z M 132.058594 239.335938 "/>
<path fill-rule="nonzero" fill="rgb(100%, 100%, 100%)" fill-opacity="1" d="M 162.058594 239.335938 L 176.058594 239.335938 L 176.058594 234.335938 L 162.058594 234.335938 Z M 162.058594 239.335938 "/>
<path fill-rule="nonzero" fill="rgb(100%, 100%, 100%)" fill-opacity="1" d="M 192.058594 239.335938 L 206.058594 239.335938 L 206.058594 234.335938 L 192.058594 234.335938 Z M 192.058594 239.335938 "/>
<path fill-rule="nonzero" fill="rgb(100%, 100%, 100%)" fill-opacity="1" d="M 222.058594 239.335938 L 236.058594 239.335938 L 236.058594 234.335938 L 222.058594 234.335938 Z M 222.058594 239.335938 "/>
<path fill-rule="nonzero" fill="rgb(100%, 100%, 100%)" fill-opacity="1" d="M 252.058594 239.335938 L 266.058594 239.335938 L 266.058594 234.335938 L 252.058594 234.335938 Z M 252.058594 239.335938 "/>
<path fill-rule="nonzero" fill="rgb(100%, 100%, 100%)" fill-opacity="1" d="M 282.058594 239.335938 L 296.058594 239.335938 L 296.058594 234.335938 L 282.058594 234.335938 Z M 282.058594 239.335938 "/>
<path fill-rule="nonzero" fill="rgb(100%, 100%, 100%)" fill-opacity="1" d="M 312.058594 239.335938 L 326.058594 239.335938 L 326.058594 234.335938 L 312.058594 234.335938 Z M 312.058594 239.335938 "/>
<path fill-rule="nonzero" fill="rgb(100%, 100%, 100%)" fill-opacity="1" d="M 342.058594 239.335938 L 356.058594 239.335938 L 356.058594 234.335938 L 342.058594 234.335938 Z M 342.058594 239.335938 "/>
<path fill-rule="nonzero" fill="rgb(100%, 100%, 100%)" fill-opacity="1" d="M 372.058594 239.335938 L 386.058594 239.335938 L 386.058594 234.335938 L 372.058594 234.335938 Z M 372.058594 239.335938 "/>
<path fill-rule="nonzero" fill="rgb(100%, 100%, 100%)" fill-opacity="1" d="M 101.546875 53.886719 L 115.546875 53.886719 L 115.546875 48.886719 L 101.546875 48.886719 Z M 101.546875 53.886719 "/>
<path fill-rule="nonzero" fill="rgb(100%, 100%, 100%)" fill-opacity="1" d="M 191.546875 53.886719 L 205.546875 53.886719 L 205.546875 48.886719 L 191.546875 48.886719 Z M 191.546875 53.886719 "/>
<path fill-rule="nonzero" fill="rgb(100%, 100%, 100%)" fill-opacity="1" d="M 281.546875 53.886719 L 295.546875 53.886719 L 295.546875 48.886719 L 281.546875 48.886719 Z M 281.546875 53.886719 "/>
<path fill-rule="nonzero" fill="rgb(100%, 100%, 100%)" fill-opacity="1" d="M 146 72.496094 L 160 72.496094 L 160 67.496094 L 146 67.496094 Z M 146 72.496094 "/>
<path fill-rule="nonzero" fill="rgb(100%, 100%, 100%)" fill-opacity="1" d="M 191 60.761719 L 205 60.761719 L 205 55.761719 L 191 55.761719 Z M 191 60.761719 "/>
<path fill-rule="nonzero" fill="rgb(100%, 100%, 100%)" fill-opacity="1" d="M 236 72.496094 L 250 72.496094 L 250 67.496094 L 236 67.496094 Z M 236 72.496094 "/>
<g fill="rgb(50.196078%, 50.196078%, 50.196078%)" fill-opacity="1">
<use xlink:href="#glyph-0-0" x="55.027344" y="153.53125"/>
<use xlink:href="#glyph-0-1" x="59.027344" y="153.53125"/>
<use xlink:href="#glyph-0-2" x="61.027344" y="153.53125"/>
<use xlink:href="#glyph-0-3" x="65.027344" y="153.53125"/>
</g>
<g fill="rgb(50.196078%, 50.196078%, 50.196078%)" fill-opacity="1">
<use xlink:href="#glyph-0-0" x="70.101562" y="154.097656"/>
<use xlink:href="#glyph-0-1" x="74.101562" y="154.097656"/>
<use xlink:href="#glyph-0-4" x="76.101562" y="154.097656"/>
<use xlink:href="#glyph-0-5" x="80.101562" y="154.097656"/>
</g>
<g fill="rgb(50.196078%, 50.196078%, 50.196078%)" fill-opacity="1">
<use xlink:href="#glyph-0-0" x="85.457031" y="154.53125"/>
<use xlink:href="#glyph-0-1" x="89.457031" y="154.53125"/>
<use xlink:href="#glyph-0-4" x="91.457031" y="154.53125"/>
<use xlink:href="#glyph-0-6" x="95.457031" y="154.53125"/>
</g>
<g fill="rgb(50.196078%, 50.196078%, 50.196078%)" fill-opacity="1">
<use xlink:href="#glyph-0-0" x="101" y="154.695312"/>
<use xlink:href="#glyph-0-1" x="105" y="154.695312"/>
<use xlink:href="#glyph-0-4" x="107" y="154.695312"/>
<use xlink:href="#glyph-0-6" x="111" y="154.695312"/>
</g>
<g fill="rgb(50.196078%, 50.196078%, 50.196078%)" fill-opacity="1">
<use xlink:href="#glyph-0-0" x="116.542969" y="154.53125"/>
<use xlink:href="#glyph-0-1" x="120.542969" y="154.53125"/>
<use xlink:href="#glyph-0-4" x="122.542969" y="154.53125"/>
<use xlink:href="#glyph-0-5" x="126.542969" y="154.53125"/>
</g>
<g fill="rgb(50.196078%, 50.196078%, 50.196078%)" fill-opacity="1">
<use xlink:href="#glyph-0-0" x="175.457031" y="154.53125"/>
<use xlink:href="#glyph-0-1" x="179.457031" y="154.53125"/>
<use xlink:href="#glyph-0-7" x="181.457031" y="154.53125"/>
<use xlink:href="#glyph-0-8" x="185.457031" y="154.53125"/>
</g>
<g fill="rgb(50.196078%, 50.196078%, 50.196078%)" fill-opacity="1">
<use xlink:href="#glyph-0-0" x="191" y="154.695312"/>
<use xlink:href="#glyph-0-1" x="195" y="154.695312"/>
<use xlink:href="#glyph-0-7" x="197" y="154.695312"/>
<use xlink:href="#glyph-0-5" x="201" y="154.695312"/>
</g>
<g fill="rgb(50.196078%, 50.196078%, 50.196078%)" fill-opacity="1">
<use xlink:href="#glyph-0-0" x="206.542969" y="154.53125"/>
<use xlink:href="#glyph-0-1" x="210.542969" y="154.53125"/>
<use xlink:href="#glyph-0-4" x="212.542969" y="154.53125"/>
<use xlink:href="#glyph-0-7" x="216.542969" y="154.53125"/>
</g>
<g fill="rgb(50.196078%, 50.196078%, 50.196078%)" fill-opacity="1">
<use xlink:href="#glyph-0-0" x="221.898438" y="154.097656"/>
<use xlink:href="#glyph-0-1" x="225.898438" y="154.097656"/>
<use xlink:href="#glyph-0-7" x="227.898438" y="154.097656"/>
<use xlink:href="#glyph-0-8" x="231.898438" y="154.097656"/>
</g>
<g fill="rgb(50.196078%, 50.196078%, 50.196078%)" fill-opacity="1">
<use xlink:href="#glyph-0-0" x="281" y="154.695312"/>
<use xlink:href="#glyph-0-1" x="285" y="154.695312"/>
<use xlink:href="#glyph-0-4" x="287" y="154.695312"/>
<use xlink:href="#glyph-0-2" x="291" y="154.695312"/>
</g>
<g fill="rgb(50.196078%, 50.196078%, 50.196078%)" fill-opacity="1">
<use xlink:href="#glyph-0-0" x="296.542969" y="154.53125"/>
<use xlink:href="#glyph-0-1" x="300.542969" y="154.53125"/>
<use xlink:href="#glyph-0-7" x="302.542969" y="154.53125"/>
<use xlink:href="#glyph-0-6" x="306.542969" y="154.53125"/>
</g>
<g fill="rgb(50.196078%, 50.196078%, 50.196078%)" fill-opacity="1">
<use xlink:href="#glyph-0-0" x="311.898438" y="154.097656"/>
<use xlink:href="#glyph-0-1" x="315.898438" y="154.097656"/>
<use xlink:href="#glyph-0-7" x="317.898438" y="154.097656"/>
<use xlink:href="#glyph-0-9" x="321.898438" y="154.097656"/>
</g>
<g fill="rgb(50.196078%, 50.196078%, 50.196078%)" fill-opacity="1">
<use xlink:href="#glyph-0-0" x="326.972656" y="153.53125"/>
<use xlink:href="#glyph-0-1" x="330.972656" y="153.53125"/>
<use xlink:href="#glyph-0-7" x="332.972656" y="153.53125"/>
<use xlink:href="#glyph-0-5" x="336.972656" y="153.53125"/>
</g>
<g fill="rgb(50.196078%, 50.196078%, 50.196078%)" fill-opacity="1">
<use xlink:href="#glyph-0-0" x="12.058594" y="239.058594"/>
<use xlink:href="#glyph-0-1" x="16.058594" y="239.058594"/>
<use xlink:href="#glyph-0-5" x="18.058594" y="239.058594"/>
<use xlink:href="#glyph-0-5" x="22.058594" y="239.058594"/>
</g>
<g fill="rgb(50.196078%, 50.196078%, 50.196078%)" fill-opacity="1">
<use xlink:href="#glyph-0-0" x="42.058594" y="239.058594"/>
<use xlink:href="#glyph-0-1" x="46.058594" y="239.058594"/>
<use xlink:href="#glyph-0-6" x="48.058594" y="239.058594"/>
<use xlink:href="#glyph-0-0" x="52.058594" y="239.058594"/>
</g>
<g fill="rgb(50.196078%, 50.196078%, 50.196078%)" fill-opacity="1">
<use xlink:href="#glyph-0-0" x="72.058594" y="239.058594"/>
<use xlink:href="#glyph-0-1" x="76.058594" y="239.058594"/>
<use xlink:href="#glyph-0-6" x="78.058594" y="239.058594"/>
<use xlink:href="#glyph-0-0" x="82.058594" y="239.058594"/>
</g>
<g fill="rgb(50.196078%, 50.196078%, 50.196078%)" fill-opacity="1">
<use xlink:href="#glyph-0-0" x="102.058594" y="239.058594"/>
<use xlink:href="#glyph-0-1" x="106.058594" y="239.058594"/>
<use xlink:href="#glyph-0-6" x="108.058594" y="239.058594"/>
<use xlink:href="#glyph-0-9" x="112.058594" y="239.058594"/>
</g>
<g fill="rgb(50.196078%, 50.196078%, 50.196078%)" fill-opacity="1">
<use xlink:href="#glyph-0-0" x="132.058594" y="239.058594"/>
<use xlink:href="#glyph-0-1" x="136.058594" y="239.058594"/>
<use xlink:href="#glyph-0-6" x="138.058594" y="239.058594"/>
<use xlink:href="#glyph-0-0" x="142.058594" y="239.058594"/>
</g>
<g fill="rgb(50.196078%, 50.196078%, 50.196078%)" fill-opacity="1">
<use xlink:href="#glyph-0-0" x="162.058594" y="239.058594"/>
<use xlink:href="#glyph-0-1" x="166.058594" y="239.058594"/>
<use xlink:href="#glyph-0-9" x="168.058594" y="239.058594"/>
<use xlink:href="#glyph-0-3" x="172.058594" y="239.058594"/>
</g>
<g fill="rgb(50.196078%, 50.196078%, 50.196078%)" fill-opacity="1">
<use xlink:href="#glyph-0-0" x="192.058594" y="239.058594"/>
<use xlink:href="#glyph-0-1" x="196.058594" y="239.058594"/>
<use xlink:href="#glyph-0-9" x="198.058594" y="239.058594"/>
<use xlink:href="#glyph-0-8" x="202.058594" y="239.058594"/>
</g>
<g fill="rgb(50.196078%, 50.196078%, 50.196078%)" fill-opacity="1">
<use xlink:href="#glyph-0-0" x="222.058594" y="239.058594"/>
<use xlink:href="#glyph-0-1" x="226.058594" y="239.058594"/>
<use xlink:href="#glyph-0-8" x="228.058594" y="239.058594"/>
<use xlink:href="#glyph-0-0" x="232.058594" y="239.058594"/>
</g>
<g fill="rgb(50.196078%, 50.196078%, 50.196078%)" fill-opacity="1">
<use xlink:href="#glyph-0-0" x="252.058594" y="239.058594"/>
<use xlink:href="#glyph-0-1" x="256.058594" y="239.058594"/>
<use xlink:href="#glyph-0-9" x="258.058594" y="239.058594"/>
<use xlink:href="#glyph-0-3" x="262.058594" y="239.058594"/>
</g>
<g fill="rgb(50.196078%, 50.196078%, 50.196078%)" fill-opacity="1">
<use xlink:href="#glyph-0-0" x="282.058594" y="239.058594"/>
<use xlink:href="#glyph-0-1" x="286.058594" y="239.058594"/>
<use xlink:href="#glyph-0-8" x="288.058594" y="239.058594"/>
<use xlink:href="#glyph-0-6" x="292.058594" y="239.058594"/>
</g>
<g fill="rgb(50.196078%, 50.196078%, 50.196078%)" fill-opacity="1">
<use xlink:href="#glyph-0-0" x="312.058594" y="239.058594"/>
<use xlink:href="#glyph-0-1" x="316.058594" y="239.058594"/>
<use xlink:href="#glyph-0-9" x="318.058594" y="239.058594"/>
<use xlink:href="#glyph-0-6" x="322.058594" y="239.058594"/>
</g>
<g fill="rgb(50.196078%, 50.196078%, 50.196078%)" fill-opacity="1">
<use xlink:href="#glyph-0-0" x="342.058594" y="239.058594"/>
<use xlink:href="#glyph-0-1" x="346.058594" y="239.058594"/>
<use xlink:href="#glyph-0-9" x="348.058594" y="239.058594"/>
<use xlink:href="#glyph-0-10" x="352.058594" y="239.058594"/>
</g>
<g fill="rgb(50.196078%, 50.196078%, 50.196078%)" fill-opacity="1">
<use xlink:href="#glyph-0-0" x="372.058594" y="239.058594"/>
<use xlink:href="#glyph-0-1" x="376.058594" y="239.058594"/>
<use xlink:href="#glyph-0-9" x="378.058594" y="239.058594"/>
<use xlink:href="#glyph-0-8" x="382.058594" y="239.058594"/>
</g>
<g fill="rgb(50.196078%, 50.196078%, 50.196078%)" fill-opacity="1">
<use xlink:href="#glyph-0-9" x="101.546875" y="53.609375"/>
<use xlink:href="#glyph-0-1" x="105.546875" y="53.609375"/>
<use xlink:href="#glyph-0-0" x="107.546875" y="53.609375"/>
<use xlink:href="#glyph-0-0" x="111.546875" y="53.609375"/>
</g>
<g fill="rgb(50.196078%, 50.196078%, 50.196078%)" fill-opacity="1">
<use xlink:href="#glyph-0-9" x="191.546875" y="53.609375"/>
<use xlink:href="#glyph-0-1" x="195.546875" y="53.609375"/>
<use xlink:href="#glyph-0-0" x="197.546875" y="53.609375"/>
<use xlink:href="#glyph-0-0" x="201.546875" y="53.609375"/>
</g>
<g fill="rgb(50.196078%, 50.196078%, 50.196078%)" fill-opacity="1">
<use xlink:href="#glyph-0-9" x="281.546875" y="53.609375"/>
<use xlink:href="#glyph-0-1" x="285.546875" y="53.609375"/>
<use xlink:href="#glyph-0-0" x="287.546875" y="53.609375"/>
<use xlink:href="#glyph-0-0" x="291.546875" y="53.609375"/>
</g>
<g fill="rgb(50.196078%, 50.196078%, 50.196078%)" fill-opacity="1">
<use xlink:href="#glyph-0-0" x="146" y="72.21875"/>
<use xlink:href="#glyph-0-1" x="150" y="72.21875"/>
<use xlink:href="#glyph-0-2" x="152" y="72.21875"/>
<use xlink:href="#glyph-0-9" x="156" y="72.21875"/>
</g>
<g fill="rgb(50.196078%, 50.196078%, 50.196078%)" fill-opacity="1">
<use xlink:href="#glyph-0-0" x="191" y="60.484375"/>
<use xlink:href="#glyph-0-1" x="195" y="60.484375"/>
<use xlink:href="#glyph-0-2" x="197" y="60.484375"/>
<use xlink:href="#glyph-0-8" x="201" y="60.484375"/>
</g>
<g fill="rgb(50.196078%, 50.196078%, 50.196078%)" fill-opacity="1">
<use xlink:href="#glyph-0-0" x="236" y="72.21875"/>
<use xlink:href="#glyph-0-1" x="240" y="72.21875"/>
<use xlink:href="#glyph-0-2" x="242" y="72.21875"/>
<use xlink:href="#glyph-0-4" x="246" y="72.21875"/>
</g>
<path fill-rule="nonzero" fill="rgb(100%, 100%, 100%)" fill-opacity="1" stroke-width="0.493904" stroke-linecap="round" stroke-linejoin="round" stroke="rgb(0%, 0%, 0%)" stroke-opacity="1" stroke-miterlimit="10" d="M 108 67.679688 L 108.890625 67.710938 L 109.777344 67.792969 L 110.660156 67.933594 L 111.527344 68.132812 L 112.382812 68.382812 L 113.222656 68.6875 L 114.039062 69.042969 L 114.832031 69.453125 L 115.59375 69.910156 L 116.328125 70.417969 L 117.03125 70.96875 L 117.695312 71.5625 L 118.320312 72.199219 L 118.902344 72.871094 L 119.445312 73.582031 L 119.9375 74.324219 L 120.382812 75.09375 L 120.777344 75.894531 L 121.125 76.714844 L 121.414062 77.558594 L 121.652344 78.417969 L 121.835938 79.289062 L 121.960938 80.171875 L 122.03125 81.0625 L 122.046875 81.953125 L 122.003906 82.84375 L 121.90625 83.730469 L 121.75 84.605469 L 121.539062 85.472656 L 121.277344 86.324219 L 120.957031 87.15625 L 120.585938 87.96875 L 120.167969 88.753906 L 119.695312 89.511719 L 119.179688 90.238281 L 118.617188 90.929688 L 118.011719 91.585938 L 117.367188 92.199219 L 116.683594 92.773438 L 115.964844 93.300781 L 115.214844 93.785156 L 114.4375 94.21875 L 113.632812 94.601562 L 112.804688 94.929688 L 111.957031 95.210938 L 111.09375 95.433594 L 110.21875 95.601562 L 109.335938 95.714844 L 108.445312 95.773438 L 107.554688 95.773438 L 106.664062 95.714844 L 105.78125 95.601562 L 104.90625 95.433594 L 104.042969 95.210938 L 103.195312 94.929688 L 102.367188 94.601562 L 101.5625 94.21875 L 100.785156 93.785156 L 100.035156 93.300781 L 99.316406 92.773438 L 98.632812 92.199219 L 97.988281 91.585938 L 97.382812 90.929688 L 96.820312 90.238281 L 96.304688 89.511719 L 95.832031 88.753906 L 95.414062 87.96875 L 95.042969 87.15625 L 94.722656 86.324219 L 94.460938 85.472656 L 94.25 84.605469 L 94.09375 83.730469 L 93.996094 82.84375 L 93.953125 81.953125 L 93.96875 81.0625 L 94.039062 80.171875 L 94.164062 79.289062 L 94.347656 78.417969 L 94.585938 77.558594 L 94.875 76.714844 L 95.222656 75.894531 L 95.617188 75.09375 L 96.0625 74.324219 L 96.554688 73.582031 L 97.097656 72.871094 L 97.679688 72.199219 L 98.304688 71.5625 L 98.96875 70.96875 L 99.671875 70.417969 L 100.40625 69.910156 L 101.167969 69.453125 L 101.960938 69.042969 L 102.777344 68.6875 L 103.617188 68.382812 L 104.472656 68.132812 L 105.339844 67.933594 L 106.222656 67.792969 L 107.109375 67.710938 Z M 108 67.679688 "/>
<path fill-rule="nonzero" fill="rgb(100%, 100%, 100%)" fill-opacity="1" stroke-width="0.493904" stroke-linecap="round" stroke-linejoin="round" stroke="rgb(0%, 0%, 0%)" stroke-opacity="1" stroke-miterlimit="10" d="M 198 67.679688 L 198.890625 67.710938 L 199.777344 67.792969 L 200.660156 67.933594 L 201.527344 68.132812 L 202.382812 68.382812 L 203.222656 68.6875 L 204.039062 69.042969 L 204.832031 69.453125 L 205.59375 69.910156 L 206.328125 70.417969 L 207.03125 70.96875 L 207.695312 71.5625 L 208.320312 72.199219 L 208.902344 72.871094 L 209.445312 73.582031 L 209.9375 74.324219 L 210.382812 75.09375 L 210.777344 75.894531 L 211.125 76.714844 L 211.414062 77.558594 L 211.652344 78.417969 L 211.835938 79.289062 L 211.960938 80.171875 L 212.03125 81.0625 L 212.046875 81.953125 L 212.003906 82.84375 L 211.90625 83.730469 L 211.75 84.605469 L 211.539062 85.472656 L 211.277344 86.324219 L 210.957031 87.15625 L 210.585938 87.96875 L 210.167969 88.753906 L 209.695312 89.511719 L 209.179688 90.238281 L 208.617188 90.929688 L 208.011719 91.585938 L 207.367188 92.199219 L 206.683594 92.773438 L 205.964844 93.300781 L 205.214844 93.785156 L 204.4375 94.21875 L 203.632812 94.601562 L 202.804688 94.929688 L 201.957031 95.210938 L 201.09375 95.433594 L 200.21875 95.601562 L 199.335938 95.714844 L 198.445312 95.773438 L 197.554688 95.773438 L 196.664062 95.714844 L 195.78125 95.601562 L 194.90625 95.433594 L 194.042969 95.210938 L 193.195312 94.929688 L 192.367188 94.601562 L 191.5625 94.21875 L 190.785156 93.785156 L 190.035156 93.300781 L 189.316406 92.773438 L 188.632812 92.199219 L 187.988281 91.585938 L 187.382812 90.929688 L 186.820312 90.238281 L 186.304688 89.511719 L 185.832031 88.753906 L 185.414062 87.96875 L 185.042969 87.15625 L 184.722656 86.324219 L 184.460938 85.472656 L 184.25 84.605469 L 184.09375 83.730469 L 183.996094 82.84375 L 183.953125 81.953125 L 183.96875 81.0625 L 184.039062 80.171875 L 184.164062 79.289062 L 184.347656 78.417969 L 184.585938 77.558594 L 184.875 76.714844 L 185.222656 75.894531 L 185.617188 75.09375 L 186.0625 74.324219 L 186.554688 73.582031 L 187.097656 72.871094 L 187.679688 72.199219 L 188.304688 71.5625 L 188.96875 70.96875 L 189.671875 70.417969 L 190.40625 69.910156 L 191.167969 69.453125 L 191.960938 69.042969 L 192.777344 68.6875 L 193.617188 68.382812 L 194.472656 68.132812 L 195.339844 67.933594 L 196.222656 67.792969 L 197.109375 67.710938 Z M 198 67.679688 "/>
<path fill-rule="nonzero" fill="rgb(100%, 100%, 100%)" fill-opacity="1" stroke-width="0.493904" stroke-linecap="round" stroke-linejoin="round" stroke="rgb(0%, 0%, 0%)" stroke-opacity="1" stroke-miterlimit="10" d="M 288 67.679688 L 288.890625 67.710938 L 289.777344 67.792969 L 290.660156 67.933594 L 291.527344 68.132812 L 292.382812 68.382812 L 293.222656 68.6875 L 294.039062 69.042969 L 294.832031 69.453125 L 295.59375 69.910156 L 296.328125 70.417969 L 297.03125 70.96875 L 297.695312 71.5625 L 298.320312 72.199219 L 298.902344 72.871094 L 299.445312 73.582031 L 299.9375 74.324219 L 300.382812 75.09375 L 300.777344 75.894531 L 301.125 76.714844 L 301.414062 77.558594 L 301.652344 78.417969 L 301.835938 79.289062 L 301.960938 80.171875 L 302.03125 81.0625 L 302.046875 81.953125 L 302.003906 82.84375 L 301.90625 83.730469 L 301.75 84.605469 L 301.539062 85.472656 L 301.277344 86.324219 L 300.957031 87.15625 L 300.585938 87.96875 L 300.167969 88.753906 L 299.695312 89.511719 L 299.179688 90.238281 L 298.617188 90.929688 L 298.011719 91.585938 L 297.367188 92.199219 L 296.683594 92.773438 L 295.964844 93.300781 L 295.214844 93.785156 L 294.4375 94.21875 L 293.632812 94.601562 L 292.804688 94.929688 L 291.957031 95.210938 L 291.09375 95.433594 L 290.21875 95.601562 L 289.335938 95.714844 L 288.445312 95.773438 L 287.554688 95.773438 L 286.664062 95.714844 L 285.78125 95.601562 L 284.90625 95.433594 L 284.042969 95.210938 L 283.195312 94.929688 L 282.367188 94.601562 L 281.5625 94.21875 L 280.785156 93.785156 L 280.035156 93.300781 L 279.316406 92.773438 L 278.632812 92.199219 L 277.988281 91.585938 L 277.382812 90.929688 L 276.820312 90.238281 L 276.304688 89.511719 L 275.832031 88.753906 L 275.414062 87.96875 L 275.042969 87.15625 L 274.722656 86.324219 L 274.460938 85.472656 L 274.25 84.605469 L 274.09375 83.730469 L 273.996094 82.84375 L 273.953125 81.953125 L 273.96875 81.0625 L 274.039062 80.171875 L 274.164062 79.289062 L 274.347656 78.417969 L 274.585938 77.558594 L 274.875 76.714844 L 275.222656 75.894531 L 275.617188 75.09375 L 276.0625 74.324219 L 276.554688 73.582031 L 277.097656 72.871094 L 277.679688 72.199219 L 278.304688 71.5625 L 278.96875 70.96875 L 279.671875 70.417969 L 280.40625 69.910156 L 281.167969 69.453125 L 281.960938 69.042969 L 282.777344 68.6875 L 283.617188 68.382812 L 284.472656 68.132812 L 285.339844 67.933594 L 286.222656 67.792969 L 287.109375 67.710938 Z M 288 67.679688 "/>
<path fill-rule="nonzero" fill="rgb(100%, 100%, 100%)" fill-opacity="1" stroke-width="0.493904" stroke-linecap="round" stroke-linejoin="round" stroke="rgb(0%, 0%, 0%)" stroke-opacity="1" stroke-miterlimit="10" d="M 9.21875 226.726562 L 26.78125 226.726562 L 26.78125 209.164062 L 9.21875 209.164062 Z M 9.21875 226.726562 "/>
<path fill-rule="nonzero" fill="rgb(100%, 100%, 100%)" fill-opacity="1" stroke-width="0.493904" stroke-linecap="round" stroke-linejoin="round" stroke="rgb(0%, 0%, 0%)" stroke-opacity="1" stroke-miterlimit="10" d="M 39.21875 226.726562 L 56.78125 226.726562 L 56.78125 209.164062 L 39.21875 209.164062 Z M 39.21875 226.726562 "/>
<path fill-rule="nonzero" fill="rgb(100%, 100%, 100%)" fill-opacity="1" stroke-width="0.493904" stroke-linecap="round" stroke-linejoin="round" stroke="rgb(0%, 0%, 0%)" stroke-opacity="1" stroke-miterlimit="10" d="M 69.21875 226.726562 L 86.78125 226.726562 L 86.78125 209.164062 L 69.21875 209.164062 Z M 69.21875 226.726562 "/>
<path fill-rule="nonzero" fill="rgb(100%, 100%, 100%)" fill-opacity="1" stroke-width="0.493904" stroke-linecap="round" stroke-linejoin="round" stroke="rgb(0%, 0%, 0%)" stroke-opacity="1" stroke-miterlimit="10" d="M 99.21875 226.726562 L 116.78125 226.726562 L 116.78125 209.164062 L 99.21875 209.164062 Z M 99.21875 226.726562 "/>
<path fill-rule="nonzero" fill="rgb(100%, 100%, 100%)" fill-opacity="1" stroke-width="0.493904" stroke-linecap="round" stroke-linejoin="round" stroke="rgb(0%, 0%, 0%)" stroke-opacity="1" stroke-miterlimit="10" d="M 129.21875 226.726562 L 146.78125 226.726562 L 146.78125 209.164062 L 129.21875 209.164062 Z M 129.21875 226.726562 "/>
<path fill-rule="nonzero" fill="rgb(100%, 100%, 100%)" fill-opacity="1" stroke-width="0.493904" stroke-linecap="round" stroke-linejoin="round" stroke="rgb(0%, 0%, 0%)" stroke-opacity="1" stroke-miterlimit="10" d="M 159.21875 226.726562 L 176.78125 226.726562 L 176.78125 209.164062 L 159.21875 209.164062 Z M 159.21875 226.726562 "/>
<path fill-rule="nonzero" fill="rgb(100%, 100%, 100%)" fill-opacity="1" stroke-width="0.493904" stroke-linecap="round" stroke-linejoin="round" stroke="rgb(0%, 0%, 0%)" stroke-opacity="1" stroke-miterlimit="10" d="M 189.21875 226.726562 L 206.78125 226.726562 L 206.78125 209.164062 L 189.21875 209.164062 Z M 189.21875 226.726562 "/>
<path fill-rule="nonzero" fill="rgb(100%, 100%, 100%)" fill-opacity="1" stroke-width="0.493904" stroke-linecap="round" stroke-linejoin="round" stroke="rgb(0%, 0%, 0%)" stroke-opacity="1" stroke-miterlimit="10" d="M 219.21875 226.726562 L 236.78125 226.726562 L 236.78125 209.164062 L 219.21875 209.164062 Z M 219.21875 226.726562 "/>
<path fill-rule="nonzero" fill="rgb(100%, 100%, 100%)" fill-opacity="1" stroke-width="0.493904" stroke-linecap="round" stroke-linejoin="round" stroke="rgb(0%, 0%, 0%)" stroke-opacity="1" stroke-miterlimit="10" d="M 249.21875 226.726562 L 266.78125 226.726562 L 266.78125 209.164062 L 249.21875 209.164062 Z M 249.21875 226.726562 "/>
<path fill-rule="nonzero" fill="rgb(100%, 100%, 100%)" fill-opacity="1" stroke-width="0.493904" stroke-linecap="round" stroke-linejoin="round" stroke="rgb(0%, 0%, 0%)" stroke-opacity="1" stroke-miterlimit="10" d="M 279.21875 226.726562 L 296.78125 226.726562 L 296.78125 209.164062 L 279.21875 209.164062 Z M 279.21875 226.726562 "/>
<path fill-rule="nonzero" fill="rgb(100%, 100%, 100%)" fill-opacity="1" stroke-width="0.493904" stroke-linecap="round" stroke-linejoin="round" stroke="rgb(0%, 0%, 0%)" stroke-opacity="1" stroke-miterlimit="10" d="M 309.21875 226.726562 L 326.78125 226.726562 L 326.78125 209.164062 L 309.21875 209.164062 Z M 309.21875 226.726562 "/>
<path fill-rule="nonzero" fill="rgb(100%, 100%, 100%)" fill-opacity="1" stroke-width="0.493904" stroke-linecap="round" stroke-linejoin="round" stroke="rgb(0%, 0%, 0%)" stroke-opacity="1" stroke-miterlimit="10" d="M 339.21875 226.726562 L 356.78125 226.726562 L 356.78125 209.164062 L 339.21875 209.164062 Z M 339.21875 226.726562 "/>
<path fill-rule="nonzero" fill="rgb(100%, 100%, 100%)" fill-opacity="1" stroke-width="0.493904" stroke-linecap="round" stroke-linejoin="round" stroke="rgb(0%, 0%, 0%)" stroke-opacity="1" stroke-miterlimit="10" d="M 369.21875 226.726562 L 386.78125 226.726562 L 386.78125 209.164062 L 369.21875 209.164062 Z M 369.21875 226.726562 "/>
<g fill="rgb(0%, 0%, 0%)" fill-opacity="1">
<use xlink:href="#glyph-1-0" x="13.5" y="219.849609"/>
<use xlink:href="#glyph-1-1" x="16.5" y="219.849609"/>
<use xlink:href="#glyph-1-2" x="19.5" y="219.849609"/>
</g>
<g fill="rgb(0%, 0%, 0%)" fill-opacity="1">
<use xlink:href="#glyph-1-0" x="43.5" y="219.849609"/>
<use xlink:href="#glyph-1-1" x="46.5" y="219.849609"/>
<use xlink:href="#glyph-1-3" x="49.5" y="219.849609"/>
</g>
<g fill="rgb(0%, 0%, 0%)" fill-opacity="1">
<use xlink:href="#glyph-1-0" x="73.5" y="219.849609"/>
<use xlink:href="#glyph-1-1" x="76.5" y="219.849609"/>
<use xlink:href="#glyph-1-4" x="79.5" y="219.849609"/>
</g>
<g fill="rgb(0%, 0%, 0%)" fill-opacity="1">
<use xlink:href="#glyph-2-0" x="102" y="219.157227"/>
<use xlink:href="#glyph-2-1" x="105" y="219.157227"/>
<use xlink:href="#glyph-2-2" x="108" y="219.157227"/>
<use xlink:href="#glyph-2-3" x="111" y="219.157227"/>
</g>
<g fill="rgb(0%, 0%, 0%)" fill-opacity="1">
<use xlink:href="#glyph-2-0" x="132" y="219.157227"/>
<use xlink:href="#glyph-2-1" x="135" y="219.157227"/>
<use xlink:href="#glyph-2-2" x="138" y="219.157227"/>
<use xlink:href="#glyph-2-4" x="141" y="219.157227"/>
</g>
<g fill="rgb(0%, 0%, 0%)" fill-opacity="1">
<use xlink:href="#glyph-1-0" x="163.5" y="219.849609"/>
<use xlink:href="#glyph-1-1" x="166.5" y="219.849609"/>
<use xlink:href="#glyph-1-5" x="169.5" y="219.849609"/>
</g>
<g fill="rgb(0%, 0%, 0%)" fill-opacity="1">
<use xlink:href="#glyph-1-0" x="193.5" y="219.849609"/>
<use xlink:href="#glyph-1-1" x="196.5" y="219.849609"/>
<use xlink:href="#glyph-1-6" x="199.5" y="219.849609"/>
</g>
<g fill="rgb(0%, 0%, 0%)" fill-opacity="1">
<use xlink:href="#glyph-1-0" x="223.5" y="219.849609"/>
<use xlink:href="#glyph-1-1" x="226.5" y="219.849609"/>
<use xlink:href="#glyph-1-7" x="229.5" y="219.849609"/>
</g>
<g fill="rgb(0%, 0%, 0%)" fill-opacity="1">
<use xlink:href="#glyph-1-0" x="252" y="219.849609"/>
<use xlink:href="#glyph-1-1" x="255" y="219.849609"/>
<use xlink:href="#glyph-1-2" x="258" y="219.849609"/>
<use xlink:href="#glyph-1-2" x="261" y="219.849609"/>
</g>
<g fill="rgb(0%, 0%, 0%)" fill-opacity="1">
<use xlink:href="#glyph-1-0" x="283.5" y="219.849609"/>
<use xlink:href="#glyph-1-1" x="286.5" y="219.849609"/>
<use xlink:href="#glyph-1-8" x="289.5" y="219.849609"/>
</g>
<g fill="rgb(0%, 0%, 0%)" fill-opacity="1">
<use xlink:href="#glyph-1-0" x="313.5" y="219.849609"/>
<use xlink:href="#glyph-1-1" x="316.5" y="219.849609"/>
<use xlink:href="#glyph-1-9" x="319.5" y="219.849609"/>
</g>
<g fill="rgb(0%, 0%, 0%)" fill-opacity="1">
<use xlink:href="#glyph-1-0" x="343.5" y="219.849609"/>
<use xlink:href="#glyph-1-1" x="346.5" y="219.849609"/>
<use xlink:href="#glyph-1-10" x="349.5" y="219.849609"/>
</g>
<g fill="rgb(0%, 0%, 0%)" fill-opacity="1">
<use xlink:href="#glyph-2-0" x="372" y="219.157227"/>
<use xlink:href="#glyph-2-1" x="375" y="219.157227"/>
<use xlink:href="#glyph-2-2" x="378" y="219.157227"/>
<use xlink:href="#glyph-2-5" x="381" y="219.157227"/>
</g>
<g fill="rgb(0%, 0%, 0%)" fill-opacity="1">
<use xlink:href="#glyph-3-0" x="97.5" y="84.876953"/>
<use xlink:href="#glyph-3-1" x="105.5" y="84.876953"/>
<use xlink:href="#glyph-3-2" x="112.5" y="84.876953"/>
</g>
<g fill="rgb(0%, 0%, 0%)" fill-opacity="1">
<use xlink:href="#glyph-4-0" x="187.5" y="84.597656"/>
<use xlink:href="#glyph-4-1" x="192.5" y="84.597656"/>
<use xlink:href="#glyph-4-2" x="197.5" y="84.597656"/>
<use xlink:href="#glyph-4-3" x="203.5" y="84.597656"/>
</g>
<g fill="rgb(0%, 0%, 0%)" fill-opacity="1">
<use xlink:href="#glyph-3-3" x="278" y="84.876953"/>
<use xlink:href="#glyph-3-1" x="285" y="84.876953"/>
<use xlink:href="#glyph-3-2" x="292" y="84.876953"/>
</g>
</svg>
