<?xml version="1.0" encoding="UTF-8"?>
<svg xmlns="http://www.w3.org/2000/svg" xmlns:xlink="http://www.w3.org/1999/xlink" width="396pt" height="252pt" viewBox="0 0 396 252">
<defs>
<g>
<g id="glyph-0-0">
<path d="M 3.984375 -1.09375 C 4.109375 -0.925781 4.367188 -0.84375 4.765625 -0.84375 L 5.234375 -0.84375 L 5.234375 0 L 4.640625 0 C 3.992188 0 3.523438 -0.171875 3.234375 -0.515625 C 2.941406 -0.867188 2.796875 -1.425781 2.796875 -2.1875 L 2.796875 -5.03125 L 0.53125 -5.03125 L 0.53125 -6.015625 L 6.078125 -6.015625 L 6.078125 -5.03125 L 3.796875 -5.03125 L 3.796875 -2.125 C 3.796875 -1.601562 3.859375 -1.257812 3.984375 -1.09375 Z M 3.984375 -1.09375 "/>
</g>
<g id="glyph-1-0">
<path d="M 0.59375 0 L 0.59375 -0.578125 L 1.9375 -0.578125 L 1.9375 -4.65625 L 0.734375 -3.796875 L 0.734375 -4.4375 L 2 -5.296875 L 2.625 -5.296875 L 2.625 -0.578125 L 3.90625 -0.578125 L 3.90625 0 Z M 0.59375 0 "/>
</g>
<g id="glyph-1-1">
<path d="M 0.390625 0 L 0.390625 -0.484375 C 0.515625 -0.773438 0.664062 -1.03125 0.84375 -1.25 C 1.03125 -1.476562 1.222656 -1.679688 1.421875 -1.859375 C 1.628906 -2.046875 1.832031 -2.21875 2.03125 -2.375 C 2.238281 -2.53125 2.421875 -2.679688 2.578125 -2.828125 C 2.742188 -2.984375 2.875 -3.144531 2.96875 -3.3125 C 3.070312 -3.488281 3.125 -3.6875 3.125 -3.90625 C 3.125 -4.195312 3.035156 -4.421875 2.859375 -4.578125 C 2.691406 -4.742188 2.457031 -4.828125 2.15625 -4.828125 C 1.863281 -4.828125 1.625 -4.75 1.4375 -4.59375 C 1.25 -4.4375 1.140625 -4.210938 1.109375 -3.921875 L 0.421875 -3.984375 C 0.472656 -4.410156 0.648438 -4.75 0.953125 -5 C 1.265625 -5.25 1.664062 -5.375 2.15625 -5.375 C 2.6875 -5.375 3.09375 -5.25 3.375 -5 C 3.664062 -4.75 3.8125 -4.390625 3.8125 -3.921875 C 3.8125 -3.722656 3.765625 -3.519531 3.671875 -3.3125 C 3.578125 -3.113281 3.4375 -2.910156 3.25 -2.703125 C 3.0625 -2.503906 2.707031 -2.191406 2.1875 -1.765625 C 1.894531 -1.523438 1.664062 -1.3125 1.5 -1.125 C 1.332031 -0.9375 1.207031 -0.753906 1.125 -0.578125 L 3.890625 -0.578125 L 3.890625 0 Z M 0.390625 0 "/>
</g>
<g id="glyph-1-2">
<path d="M 1.71875 -4.1875 L 2.703125 -4.578125 L 2.875 -4.078125 L 1.8125 -3.8125 L 2.515625 -2.859375 L 2.0625 -2.59375 L 1.5 -3.5625 L 0.90625 -2.609375 L 0.46875 -2.875 L 1.171875 -3.8125 L 0.125 -4.078125 L 0.296875 -4.578125 L 1.296875 -4.1875 L 1.25 -5.296875 L 1.765625 -5.296875 Z M 1.71875 -4.1875 "/>
</g>
<g id="glyph-2-0">
<path d="M 4.171875 -3.140625 L 4.171875 0 L 3.15625 0 L 3.15625 -3.140625 L 0.234375 -7.5625 L 1.375 -7.5625 L 3.671875 -3.96875 L 5.96875 -7.5625 L 7.09375 -7.5625 Z M 4.171875 -3.140625 "/>
</g>
<g id="glyph-2-1">
</g>
<g id="glyph-2-2">
<path d="M 0.53125 -4.59375 L 0.53125 -5.390625 L 5.875 -5.390625 L 5.875 -4.59375 Z M 0.53125 -1.84375 L 0.53125 -2.640625 L 5.875 -2.640625 L 5.875 -1.84375 Z M 0.53125 -1.84375 "/>
</g>
<g id="glyph-2-3">
<path d="M 5.6875 -3.78125 C 5.6875 -2.519531 5.460938 -1.554688 5.015625 -0.890625 C 4.566406 -0.222656 3.910156 0.109375 3.046875 0.109375 C 2.171875 0.109375 1.515625 -0.21875 1.078125 -0.875 C 0.648438 -1.539062 0.4375 -2.507812 0.4375 -3.78125 C 0.4375 -5.082031 0.644531 -6.054688 1.0625 -6.703125 C 1.488281 -7.359375 2.160156 -7.6875 3.078125 -7.6875 C 3.972656 -7.6875 4.628906 -7.359375 5.046875 -6.703125 C 5.472656 -6.046875 5.6875 -5.070312 5.6875 -3.78125 Z M 4.703125 -3.78125 C 4.703125 -4.875 4.578125 -5.664062 4.328125 -6.15625 C 4.078125 -6.644531 3.660156 -6.890625 3.078125 -6.890625 C 2.484375 -6.890625 2.054688 -6.648438 1.796875 -6.171875 C 1.535156 -5.691406 1.40625 -4.894531 1.40625 -3.78125 C 1.40625 -2.707031 1.535156 -1.921875 1.796875 -1.421875 C 2.066406 -0.929688 2.488281 -0.6875 3.0625 -0.6875 C 3.625 -0.6875 4.035156 -0.9375 4.296875 -1.4375 C 4.566406 -1.945312 4.703125 -2.726562 4.703125 -3.78125 Z M 4.703125 -3.78125 "/>
</g>
<g id="glyph-2-4">
<path d="M 0.84375 0 L 0.84375 -0.828125 L 2.765625 -0.828125 L 2.765625 -6.640625 L 1.0625 -5.421875 L 1.0625 -6.34375 L 2.84375 -7.5625 L 3.734375 -7.5625 L 3.734375 -0.828125 L 5.578125 -0.828125 L 5.578125 0 Z M 0.84375 0 "/>
</g>
<g id="glyph-2-5">
<path d="M 0.546875 0 L 0.546875 -0.6875 C 0.734375 -1.101562 0.957031 -1.46875 1.21875 -1.78125 C 1.476562 -2.101562 1.753906 -2.394531 2.046875 -2.65625 C 2.335938 -2.914062 2.625 -3.15625 2.90625 -3.375 C 3.195312 -3.601562 3.457031 -3.828125 3.6875 -4.046875 C 3.914062 -4.273438 4.097656 -4.507812 4.234375 -4.75 C 4.378906 -4.988281 4.453125 -5.265625 4.453125 -5.578125 C 4.453125 -5.992188 4.328125 -6.316406 4.078125 -6.546875 C 3.835938 -6.773438 3.503906 -6.890625 3.078125 -6.890625 C 2.660156 -6.890625 2.316406 -6.773438 2.046875 -6.546875 C 1.785156 -6.328125 1.628906 -6.015625 1.578125 -5.609375 L 0.59375 -5.703125 C 0.664062 -6.304688 0.921875 -6.785156 1.359375 -7.140625 C 1.804688 -7.503906 2.378906 -7.6875 3.078125 -7.6875 C 3.835938 -7.6875 4.421875 -7.503906 4.828125 -7.140625 C 5.242188 -6.773438 5.453125 -6.265625 5.453125 -5.609375 C 5.453125 -5.316406 5.382812 -5.023438 5.25 -4.734375 C 5.113281 -4.441406 4.910156 -4.148438 4.640625 -3.859375 C 4.378906 -3.566406 3.875 -3.117188 3.125 -2.515625 C 2.71875 -2.179688 2.390625 -1.878906 2.140625 -1.609375 C 1.898438 -1.335938 1.722656 -1.078125 1.609375 -0.828125 L 5.5625 -0.828125 L 5.5625 0 Z M 0.546875 0 "/>
</g>
<g id="glyph-2-6">
<path d="M 1 0 L 1 -1.171875 L 2.046875 -1.171875 L 2.046875 0 Z M 1 0 "/>
</g>
<g id="glyph-2-7">
<path d="M 4.734375 -1.71875 L 4.734375 0 L 3.8125 0 L 3.8125 -1.71875 L 0.25 -1.71875 L 0.25 -2.46875 L 3.71875 -7.5625 L 4.734375 -7.5625 L 4.734375 -2.46875 L 5.796875 -2.46875 L 5.796875 -1.71875 Z M 3.8125 -6.484375 C 3.8125 -6.460938 3.765625 -6.363281 3.671875 -6.1875 C 3.578125 -6.019531 3.503906 -5.90625 3.453125 -5.84375 L 1.515625 -2.984375 L 1.234375 -2.578125 L 1.140625 -2.46875 L 3.8125 -2.46875 Z M 3.8125 -6.484375 "/>
</g>
<g id="glyph-2-8">
<path d="M 5.640625 -2.46875 C 5.640625 -1.675781 5.421875 -1.046875 4.984375 -0.578125 C 4.546875 -0.117188 3.945312 0.109375 3.1875 0.109375 C 2.332031 0.109375 1.679688 -0.207031 1.234375 -0.84375 C 0.785156 -1.476562 0.5625 -2.398438 0.5625 -3.609375 C 0.5625 -4.921875 0.796875 -5.925781 1.265625 -6.625 C 1.734375 -7.332031 2.398438 -7.6875 3.265625 -7.6875 C 4.410156 -7.6875 5.128906 -7.171875 5.421875 -6.140625 L 4.5 -5.96875 C 4.3125 -6.582031 3.894531 -6.890625 3.25 -6.890625 C 2.695312 -6.890625 2.269531 -6.632812 1.96875 -6.125 C 1.664062 -5.613281 1.515625 -4.867188 1.515625 -3.890625 C 1.691406 -4.222656 1.9375 -4.472656 2.25 -4.640625 C 2.570312 -4.804688 2.941406 -4.890625 3.359375 -4.890625 C 4.054688 -4.890625 4.609375 -4.671875 5.015625 -4.234375 C 5.429688 -3.796875 5.640625 -3.207031 5.640625 -2.46875 Z M 4.65625 -2.4375 C 4.65625 -2.976562 4.519531 -3.394531 4.25 -3.6875 C 3.976562 -3.988281 3.601562 -4.140625 3.125 -4.140625 C 2.675781 -4.140625 2.3125 -4.007812 2.03125 -3.75 C 1.75 -3.488281 1.609375 -3.128906 1.609375 -2.671875 C 1.609375 -2.078125 1.753906 -1.59375 2.046875 -1.21875 C 2.335938 -0.851562 2.707031 -0.671875 3.15625 -0.671875 C 3.625 -0.671875 3.988281 -0.828125 4.25 -1.140625 C 4.519531 -1.453125 4.65625 -1.882812 4.65625 -2.4375 Z M 4.65625 -2.4375 "/>
</g>
<g id="glyph-2-9">
<path d="M 8.03125 -3.8125 C 8.03125 -3.019531 7.878906 -2.328125 7.578125 -1.734375 C 7.273438 -1.140625 6.835938 -0.679688 6.265625 -0.359375 C 5.703125 -0.046875 5.035156 0.109375 4.265625 0.109375 C 3.492188 0.109375 2.820312 -0.046875 2.25 -0.359375 C 1.6875 -0.679688 1.253906 -1.140625 0.953125 -1.734375 C 0.660156 -2.328125 0.515625 -3.019531 0.515625 -3.8125 C 0.515625 -5.03125 0.847656 -5.976562 1.515625 -6.65625 C 2.179688 -7.34375 3.101562 -7.6875 4.28125 -7.6875 C 5.050781 -7.6875 5.71875 -7.53125 6.28125 -7.21875 C 6.851562 -6.914062 7.285156 -6.472656 7.578125 -5.890625 C 7.878906 -5.304688 8.03125 -4.613281 8.03125 -3.8125 Z M 6.984375 -3.8125 C 6.984375 -4.757812 6.742188 -5.5 6.265625 -6.03125 C 5.796875 -6.570312 5.132812 -6.84375 4.28125 -6.84375 C 3.414062 -6.84375 2.742188 -6.578125 2.265625 -6.046875 C 1.796875 -5.515625 1.5625 -4.769531 1.5625 -3.8125 C 1.5625 -2.863281 1.800781 -2.109375 2.28125 -1.546875 C 2.757812 -0.992188 3.421875 -0.71875 4.265625 -0.71875 C 5.140625 -0.71875 5.8125 -0.988281 6.28125 -1.53125 C 6.75 -2.070312 6.984375 -2.832031 6.984375 -3.8125 Z M 6.984375 -3.8125 "/>
</g>
<g id="glyph-2-10">
<path d="M 5.65625 -2.9375 C 5.65625 -0.90625 4.941406 0.109375 3.515625 0.109375 C 3.078125 0.109375 2.710938 0.03125 2.421875 -0.125 C 2.128906 -0.289062 1.890625 -0.550781 1.703125 -0.90625 C 1.703125 -0.789062 1.691406 -0.617188 1.671875 -0.390625 C 1.660156 -0.160156 1.648438 -0.03125 1.640625 0 L 0.703125 0 C 0.722656 -0.195312 0.734375 -0.597656 0.734375 -1.203125 L 0.734375 -7.96875 L 1.703125 -7.96875 L 1.703125 -5.703125 C 1.703125 -5.460938 1.695312 -5.1875 1.6875 -4.875 L 1.703125 -4.875 C 1.890625 -5.25 2.128906 -5.515625 2.421875 -5.671875 C 2.710938 -5.835938 3.078125 -5.921875 3.515625 -5.921875 C 4.253906 -5.921875 4.796875 -5.671875 5.140625 -5.171875 C 5.484375 -4.679688 5.65625 -3.9375 5.65625 -2.9375 Z M 4.640625 -2.90625 C 4.640625 -3.71875 4.53125 -4.296875 4.3125 -4.640625 C 4.101562 -4.992188 3.753906 -5.171875 3.265625 -5.171875 C 2.722656 -5.171875 2.328125 -4.984375 2.078125 -4.609375 C 1.828125 -4.242188 1.703125 -3.65625 1.703125 -2.84375 C 1.703125 -2.082031 1.820312 -1.519531 2.0625 -1.15625 C 2.3125 -0.789062 2.710938 -0.609375 3.265625 -0.609375 C 3.742188 -0.609375 4.09375 -0.785156 4.3125 -1.140625 C 4.53125 -1.503906 4.640625 -2.09375 4.640625 -2.90625 Z M 4.640625 -2.90625 "/>
</g>
<g id="glyph-2-11">
<path d="M 5.109375 -1.609375 C 5.109375 -1.054688 4.898438 -0.628906 4.484375 -0.328125 C 4.066406 -0.0351562 3.488281 0.109375 2.75 0.109375 C 2.019531 0.109375 1.457031 -0.0078125 1.0625 -0.25 C 0.675781 -0.488281 0.425781 -0.859375 0.3125 -1.359375 L 1.15625 -1.53125 C 1.238281 -1.21875 1.410156 -0.988281 1.671875 -0.84375 C 1.929688 -0.695312 2.289062 -0.625 2.75 -0.625 C 3.238281 -0.625 3.59375 -0.695312 3.8125 -0.84375 C 4.039062 -1 4.15625 -1.226562 4.15625 -1.53125 C 4.15625 -1.757812 4.078125 -1.941406 3.921875 -2.078125 C 3.765625 -2.222656 3.507812 -2.34375 3.15625 -2.4375 L 2.46875 -2.625 C 1.914062 -2.769531 1.519531 -2.910156 1.28125 -3.046875 C 1.050781 -3.179688 0.867188 -3.347656 0.734375 -3.546875 C 0.597656 -3.742188 0.53125 -3.988281 0.53125 -4.28125 C 0.53125 -4.8125 0.71875 -5.210938 1.09375 -5.484375 C 1.476562 -5.765625 2.03125 -5.90625 2.75 -5.90625 C 3.394531 -5.90625 3.90625 -5.789062 4.28125 -5.5625 C 4.65625 -5.332031 4.894531 -4.972656 5 -4.484375 L 4.125 -4.375 C 4.070312 -4.632812 3.925781 -4.832031 3.6875 -4.96875 C 3.457031 -5.101562 3.144531 -5.171875 2.75 -5.171875 C 2.3125 -5.171875 1.988281 -5.101562 1.78125 -4.96875 C 1.582031 -4.84375 1.484375 -4.644531 1.484375 -4.375 C 1.484375 -4.207031 1.523438 -4.066406 1.609375 -3.953125 C 1.691406 -3.847656 1.816406 -3.757812 1.984375 -3.6875 C 2.148438 -3.613281 2.503906 -3.507812 3.046875 -3.375 C 3.554688 -3.25 3.925781 -3.128906 4.15625 -3.015625 C 4.382812 -2.910156 4.5625 -2.789062 4.6875 -2.65625 C 4.820312 -2.519531 4.925781 -2.363281 5 -2.1875 C 5.070312 -2.019531 5.109375 -1.828125 5.109375 -1.609375 Z M 5.109375 -1.609375 "/>
</g>
<g id="glyph-2-12">
<path d="M 1.484375 -2.703125 C 1.484375 -2.035156 1.617188 -1.519531 1.890625 -1.15625 C 2.171875 -0.800781 2.578125 -0.625 3.109375 -0.625 C 3.523438 -0.625 3.859375 -0.707031 4.109375 -0.875 C 4.359375 -1.039062 4.53125 -1.253906 4.625 -1.515625 L 5.46875 -1.265625 C 5.125 -0.347656 4.335938 0.109375 3.109375 0.109375 C 2.242188 0.109375 1.585938 -0.144531 1.140625 -0.65625 C 0.691406 -1.164062 0.46875 -1.925781 0.46875 -2.9375 C 0.46875 -3.90625 0.691406 -4.644531 1.140625 -5.15625 C 1.585938 -5.664062 2.226562 -5.921875 3.0625 -5.921875 C 4.769531 -5.921875 5.625 -4.890625 5.625 -2.828125 L 5.625 -2.703125 Z M 4.625 -3.4375 C 4.570312 -4.050781 4.414062 -4.5 4.15625 -4.78125 C 3.90625 -5.0625 3.535156 -5.203125 3.046875 -5.203125 C 2.578125 -5.203125 2.207031 -5.046875 1.9375 -4.734375 C 1.664062 -4.421875 1.519531 -3.988281 1.5 -3.4375 Z M 4.625 -3.4375 "/>
</g>
<g id="glyph-2-13">
<path d="M 0.765625 0 L 0.765625 -4.453125 C 0.765625 -4.867188 0.753906 -5.320312 0.734375 -5.8125 L 1.640625 -5.8125 C 1.671875 -5.15625 1.6875 -4.757812 1.6875 -4.625 L 1.703125 -4.625 C 1.859375 -5.125 2.035156 -5.460938 2.234375 -5.640625 C 2.441406 -5.828125 2.726562 -5.921875 3.09375 -5.921875 C 3.21875 -5.921875 3.347656 -5.898438 3.484375 -5.859375 L 3.484375 -4.984375 C 3.347656 -5.015625 3.175781 -5.03125 2.96875 -5.03125 C 2.5625 -5.03125 2.253906 -4.859375 2.046875 -4.515625 C 1.835938 -4.171875 1.734375 -3.675781 1.734375 -3.03125 L 1.734375 0 Z M 0.765625 0 "/>
</g>
<g id="glyph-2-14">
<path d="M 3.296875 0 L 2.15625 0 L 0.03125 -5.8125 L 1.0625 -5.8125 L 2.34375 -2.03125 C 2.394531 -1.882812 2.519531 -1.457031 2.71875 -0.75 L 2.90625 -1.390625 L 3.109375 -2.015625 L 4.4375 -5.8125 L 5.46875 -5.8125 Z M 3.296875 0 "/>
</g>
<g id="glyph-2-15">
<path d="M 4.40625 -0.9375 C 4.226562 -0.5625 3.988281 -0.289062 3.6875 -0.125 C 3.394531 0.03125 3.03125 0.109375 2.59375 0.109375 C 1.863281 0.109375 1.328125 -0.132812 0.984375 -0.625 C 0.640625 -1.125 0.46875 -1.875 0.46875 -2.875 C 0.46875 -4.90625 1.175781 -5.921875 2.59375 -5.921875 C 3.039062 -5.921875 3.410156 -5.835938 3.703125 -5.671875 C 3.992188 -5.515625 4.226562 -5.257812 4.40625 -4.90625 L 4.421875 -4.90625 L 4.40625 -5.5625 L 4.40625 -7.96875 L 5.375 -7.96875 L 5.375 -1.203125 C 5.375 -0.597656 5.382812 -0.195312 5.40625 0 L 4.484375 0 C 4.472656 -0.0625 4.460938 -0.191406 4.453125 -0.390625 C 4.441406 -0.597656 4.4375 -0.78125 4.4375 -0.9375 Z M 1.484375 -2.90625 C 1.484375 -2.09375 1.585938 -1.507812 1.796875 -1.15625 C 2.015625 -0.8125 2.363281 -0.640625 2.84375 -0.640625 C 3.394531 -0.640625 3.789062 -0.828125 4.03125 -1.203125 C 4.28125 -1.585938 4.40625 -2.175781 4.40625 -2.96875 C 4.40625 -3.738281 4.28125 -4.300781 4.03125 -4.65625 C 3.789062 -5.019531 3.398438 -5.203125 2.859375 -5.203125 C 2.367188 -5.203125 2.015625 -5.019531 1.796875 -4.65625 C 1.585938 -4.300781 1.484375 -3.71875 1.484375 -2.90625 Z M 1.484375 -2.90625 "/>
</g>
<g id="glyph-2-16">
<path d="M 4.25 -6.84375 C 3.414062 -6.84375 2.765625 -6.570312 2.296875 -6.03125 C 1.828125 -5.488281 1.59375 -4.75 1.59375 -3.8125 C 1.59375 -2.882812 1.835938 -2.140625 2.328125 -1.578125 C 2.816406 -1.015625 3.472656 -0.734375 4.296875 -0.734375 C 5.359375 -0.734375 6.15625 -1.257812 6.6875 -2.3125 L 7.53125 -1.890625 C 7.21875 -1.234375 6.773438 -0.734375 6.203125 -0.390625 C 5.640625 -0.0546875 4.988281 0.109375 4.25 0.109375 C 3.488281 0.109375 2.828125 -0.046875 2.265625 -0.359375 C 1.710938 -0.679688 1.289062 -1.132812 1 -1.71875 C 0.707031 -2.3125 0.5625 -3.007812 0.5625 -3.8125 C 0.5625 -5.019531 0.882812 -5.96875 1.53125 -6.65625 C 2.1875 -7.34375 3.09375 -7.6875 4.25 -7.6875 C 5.050781 -7.6875 5.722656 -7.523438 6.265625 -7.203125 C 6.804688 -6.890625 7.203125 -6.425781 7.453125 -5.8125 L 6.484375 -5.484375 C 6.304688 -5.921875 6.019531 -6.253906 5.625 -6.484375 C 5.238281 -6.722656 4.78125 -6.84375 4.25 -6.84375 Z M 4.25 -6.84375 "/>
</g>
<g id="glyph-2-17">
<path d="M 2.21875 0.109375 C 1.632812 0.109375 1.195312 -0.0390625 0.90625 -0.34375 C 0.613281 -0.65625 0.46875 -1.082031 0.46875 -1.625 C 0.46875 -2.226562 0.664062 -2.6875 1.0625 -3 C 1.457031 -3.320312 2.09375 -3.5 2.96875 -3.53125 L 4.28125 -3.546875 L 4.28125 -3.859375 C 4.28125 -4.335938 4.175781 -4.675781 3.96875 -4.875 C 3.769531 -5.082031 3.457031 -5.1875 3.03125 -5.1875 C 2.601562 -5.1875 2.289062 -5.113281 2.09375 -4.96875 C 1.894531 -4.820312 1.773438 -4.585938 1.734375 -4.265625 L 0.71875 -4.34375 C 0.882812 -5.394531 1.664062 -5.921875 3.0625 -5.921875 C 3.789062 -5.921875 4.335938 -5.753906 4.703125 -5.421875 C 5.078125 -5.085938 5.265625 -4.601562 5.265625 -3.96875 L 5.265625 -1.46875 C 5.265625 -1.175781 5.300781 -0.957031 5.375 -0.8125 C 5.445312 -0.664062 5.585938 -0.59375 5.796875 -0.59375 C 5.890625 -0.59375 6 -0.609375 6.125 -0.640625 L 6.125 -0.03125 C 5.875 0.0195312 5.625 0.046875 5.375 0.046875 C 5.007812 0.046875 4.742188 -0.046875 4.578125 -0.234375 C 4.421875 -0.421875 4.332031 -0.710938 4.3125 -1.109375 L 4.28125 -1.109375 C 4.03125 -0.671875 3.738281 -0.359375 3.40625 -0.171875 C 3.082031 0.015625 2.6875 0.109375 2.21875 0.109375 Z M 2.4375 -0.625 C 2.789062 -0.625 3.101562 -0.703125 3.375 -0.859375 C 3.65625 -1.015625 3.875 -1.234375 4.03125 -1.515625 C 4.195312 -1.796875 4.28125 -2.085938 4.28125 -2.390625 L 4.28125 -2.875 L 3.21875 -2.84375 C 2.769531 -2.84375 2.425781 -2.796875 2.1875 -2.703125 C 1.957031 -2.617188 1.78125 -2.488281 1.65625 -2.3125 C 1.53125 -2.132812 1.46875 -1.898438 1.46875 -1.609375 C 1.46875 -1.296875 1.550781 -1.050781 1.71875 -0.875 C 1.882812 -0.707031 2.125 -0.625 2.4375 -0.625 Z M 2.4375 -0.625 "/>
</g>
<g id="glyph-2-18">
<path d="M 2.96875 -0.046875 C 2.65625 0.046875 2.332031 0.09375 2 0.09375 C 1.226562 0.09375 0.84375 -0.347656 0.84375 -1.234375 L 0.84375 -5.109375 L 0.171875 -5.109375 L 0.171875 -5.8125 L 0.875 -5.8125 L 1.15625 -7.109375 L 1.8125 -7.109375 L 1.8125 -5.8125 L 2.875 -5.8125 L 2.875 -5.109375 L 1.8125 -5.109375 L 1.8125 -1.4375 C 1.8125 -1.15625 1.851562 -0.957031 1.9375 -0.84375 C 2.03125 -0.738281 2.191406 -0.6875 2.421875 -0.6875 C 2.546875 -0.6875 2.726562 -0.707031 2.96875 -0.75 Z M 2.96875 -0.046875 "/>
</g>
<g id="glyph-2-19">
<path d="M 2.9375 2.28125 C 2.3125 2.28125 1.804688 2.15625 1.421875 1.90625 C 1.046875 1.65625 0.804688 1.300781 0.703125 0.84375 L 1.671875 0.703125 C 1.734375 0.972656 1.875 1.179688 2.09375 1.328125 C 2.320312 1.472656 2.613281 1.546875 2.96875 1.546875 C 3.9375 1.546875 4.421875 0.984375 4.421875 -0.140625 L 4.421875 -1.078125 L 4.40625 -1.078125 C 4.21875 -0.703125 3.960938 -0.421875 3.640625 -0.234375 C 3.328125 -0.046875 2.957031 0.046875 2.53125 0.046875 C 1.820312 0.046875 1.300781 -0.1875 0.96875 -0.65625 C 0.632812 -1.132812 0.46875 -1.878906 0.46875 -2.890625 C 0.46875 -3.921875 0.644531 -4.679688 1 -5.171875 C 1.363281 -5.660156 1.910156 -5.90625 2.640625 -5.90625 C 3.054688 -5.90625 3.414062 -5.8125 3.71875 -5.625 C 4.019531 -5.4375 4.253906 -5.164062 4.421875 -4.8125 C 4.421875 -4.925781 4.425781 -5.113281 4.4375 -5.375 C 4.457031 -5.644531 4.472656 -5.789062 4.484375 -5.8125 L 5.40625 -5.8125 C 5.382812 -5.613281 5.375 -5.210938 5.375 -4.609375 L 5.375 -0.171875 C 5.375 1.460938 4.5625 2.28125 2.9375 2.28125 Z M 4.421875 -2.90625 C 4.421875 -3.375 4.351562 -3.78125 4.21875 -4.125 C 4.09375 -4.46875 3.910156 -4.726562 3.671875 -4.90625 C 3.441406 -5.09375 3.175781 -5.1875 2.875 -5.1875 C 2.382812 -5.1875 2.023438 -5.003906 1.796875 -4.640625 C 1.578125 -4.285156 1.46875 -3.707031 1.46875 -2.90625 C 1.46875 -2.113281 1.570312 -1.539062 1.78125 -1.1875 C 1.988281 -0.84375 2.347656 -0.671875 2.859375 -0.671875 C 3.160156 -0.671875 3.429688 -0.757812 3.671875 -0.9375 C 3.910156 -1.113281 4.09375 -1.367188 4.21875 -1.703125 C 4.351562 -2.046875 4.421875 -2.445312 4.421875 -2.90625 Z M 4.421875 -2.90625 "/>
</g>
<g id="glyph-2-20">
<path d="M 5.65625 -2.90625 C 5.65625 -1.894531 5.429688 -1.140625 4.984375 -0.640625 C 4.535156 -0.140625 3.882812 0.109375 3.03125 0.109375 C 2.1875 0.109375 1.546875 -0.144531 1.109375 -0.65625 C 0.679688 -1.175781 0.46875 -1.925781 0.46875 -2.90625 C 0.46875 -4.914062 1.332031 -5.921875 3.0625 -5.921875 C 3.957031 -5.921875 4.613281 -5.675781 5.03125 -5.1875 C 5.445312 -4.695312 5.65625 -3.9375 5.65625 -2.90625 Z M 4.640625 -2.90625 C 4.640625 -3.707031 4.519531 -4.289062 4.28125 -4.65625 C 4.039062 -5.019531 3.640625 -5.203125 3.078125 -5.203125 C 2.515625 -5.203125 2.109375 -5.015625 1.859375 -4.640625 C 1.609375 -4.273438 1.484375 -3.695312 1.484375 -2.90625 C 1.484375 -2.144531 1.601562 -1.570312 1.84375 -1.1875 C 2.09375 -0.800781 2.488281 -0.609375 3.03125 -0.609375 C 3.601562 -0.609375 4.015625 -0.789062 4.265625 -1.15625 C 4.515625 -1.53125 4.640625 -2.113281 4.640625 -2.90625 Z M 4.640625 -2.90625 "/>
</g>
<g id="glyph-2-21">
<path d="M 1.03125 2.28125 C 0.757812 2.28125 0.535156 2.257812 0.359375 2.21875 L 0.359375 1.5 C 0.492188 1.519531 0.644531 1.53125 0.8125 1.53125 C 1.414062 1.53125 1.890625 1.085938 2.234375 0.203125 L 2.328125 -0.03125 L 0.03125 -5.8125 L 1.0625 -5.8125 L 2.28125 -2.59375 C 2.300781 -2.550781 2.320312 -2.492188 2.34375 -2.421875 C 2.375 -2.347656 2.457031 -2.113281 2.59375 -1.71875 C 2.726562 -1.320312 2.800781 -1.097656 2.8125 -1.046875 L 3.1875 -2.109375 L 4.453125 -5.8125 L 5.484375 -5.8125 L 3.25 0 C 3.007812 0.613281 2.785156 1.070312 2.578125 1.375 C 2.367188 1.6875 2.132812 1.914062 1.875 2.0625 C 1.625 2.207031 1.34375 2.28125 1.03125 2.28125 Z M 1.03125 2.28125 "/>
</g>
<g id="glyph-2-22">
<path d="M 0.6875 -2.859375 C 0.6875 -3.890625 0.847656 -4.816406 1.171875 -5.640625 C 1.492188 -6.460938 1.992188 -7.238281 2.671875 -7.96875 L 3.59375 -7.96875 C 2.925781 -7.226562 2.4375 -6.4375 2.125 -5.59375 C 1.8125 -4.757812 1.65625 -3.84375 1.65625 -2.84375 C 1.65625 -1.851562 1.804688 -0.941406 2.109375 -0.109375 C 2.421875 0.722656 2.914062 1.519531 3.59375 2.28125 L 2.671875 2.28125 C 1.992188 1.550781 1.492188 0.773438 1.171875 -0.046875 C 0.847656 -0.878906 0.6875 -1.8125 0.6875 -2.84375 Z M 0.6875 -2.859375 "/>
</g>
<g id="glyph-2-23">
<path d="M 2.984375 -2.84375 C 2.984375 -1.800781 2.820312 -0.867188 2.5 -0.046875 C 2.175781 0.773438 1.675781 1.550781 1 2.28125 L 0.0625 2.28125 C 0.738281 1.53125 1.234375 0.738281 1.546875 -0.09375 C 1.859375 -0.925781 2.015625 -1.84375 2.015625 -2.84375 C 2.015625 -3.84375 1.851562 -4.757812 1.53125 -5.59375 C 1.21875 -6.425781 0.726562 -7.21875 0.0625 -7.96875 L 1 -7.96875 C 1.675781 -7.238281 2.175781 -6.460938 2.5 -5.640625 C 2.820312 -4.816406 2.984375 -3.890625 2.984375 -2.859375 Z M 2.984375 -2.84375 "/>
</g>
<g id="glyph-3-0">
<path d="M 4.546875 -3.03125 C 4.546875 -2.019531 4.367188 -1.25 4.015625 -0.71875 C 3.660156 -0.1875 3.132812 0.078125 2.4375 0.078125 C 1.738281 0.078125 1.210938 -0.179688 0.859375 -0.703125 C 0.515625 -1.234375 0.34375 -2.007812 0.34375 -3.03125 C 0.34375 -4.070312 0.507812 -4.847656 0.84375 -5.359375 C 1.1875 -5.878906 1.726562 -6.140625 2.46875 -6.140625 C 3.175781 -6.140625 3.695312 -5.875 4.03125 -5.34375 C 4.375 -4.820312 4.546875 -4.050781 4.546875 -3.03125 Z M 3.765625 -3.03125 C 3.765625 -3.90625 3.660156 -4.535156 3.453125 -4.921875 C 3.253906 -5.316406 2.925781 -5.515625 2.46875 -5.515625 C 1.988281 -5.515625 1.644531 -5.320312 1.4375 -4.9375 C 1.226562 -4.550781 1.125 -3.914062 1.125 -3.03125 C 1.125 -2.164062 1.226562 -1.535156 1.4375 -1.140625 C 1.644531 -0.742188 1.976562 -0.546875 2.4375 -0.546875 C 2.894531 -0.546875 3.226562 -0.75 3.4375 -1.15625 C 3.65625 -1.5625 3.765625 -2.1875 3.765625 -3.03125 Z M 3.765625 -3.03125 "/>
</g>
<g id="glyph-3-1">
<path d="M 0.796875 0 L 0.796875 -0.9375 L 1.640625 -0.9375 L 1.640625 0 Z M 0.796875 0 "/>
</g>
<g id="glyph-3-2">
<path d="M 0.671875 0 L 0.671875 -0.65625 L 2.21875 -0.65625 L 2.21875 -5.3125 L 0.84375 -4.34375 L 0.84375 -5.0625 L 2.28125 -6.046875 L 2.984375 -6.046875 L 2.984375 -0.65625 L 4.46875 -0.65625 L 4.46875 0 Z M 0.671875 0 "/>
</g>
<g id="glyph-3-3">
<path d="M 0.4375 0 L 0.4375 -0.546875 C 0.582031 -0.878906 0.757812 -1.171875 0.96875 -1.421875 C 1.1875 -1.679688 1.410156 -1.914062 1.640625 -2.125 C 1.867188 -2.332031 2.097656 -2.523438 2.328125 -2.703125 C 2.554688 -2.878906 2.757812 -3.054688 2.9375 -3.234375 C 3.125 -3.410156 3.273438 -3.597656 3.390625 -3.796875 C 3.503906 -3.992188 3.5625 -4.210938 3.5625 -4.453125 C 3.5625 -4.785156 3.460938 -5.039062 3.265625 -5.21875 C 3.078125 -5.40625 2.804688 -5.5 2.453125 -5.5 C 2.128906 -5.5 1.859375 -5.410156 1.640625 -5.234375 C 1.429688 -5.054688 1.304688 -4.804688 1.265625 -4.484375 L 0.484375 -4.5625 C 0.535156 -5.039062 0.738281 -5.421875 1.09375 -5.703125 C 1.445312 -5.992188 1.898438 -6.140625 2.453125 -6.140625 C 3.066406 -6.140625 3.535156 -5.992188 3.859375 -5.703125 C 4.191406 -5.421875 4.359375 -5.015625 4.359375 -4.484375 C 4.359375 -4.242188 4.300781 -4.007812 4.1875 -3.78125 C 4.082031 -3.550781 3.921875 -3.316406 3.703125 -3.078125 C 3.492188 -2.847656 3.09375 -2.492188 2.5 -2.015625 C 2.164062 -1.742188 1.898438 -1.5 1.703125 -1.28125 C 1.515625 -1.0625 1.378906 -0.851562 1.296875 -0.65625 L 4.453125 -0.65625 L 4.453125 0 Z M 0.4375 0 "/>
</g>
<g id="glyph-3-4">
<path d="M 4.5 -1.671875 C 4.5 -1.109375 4.320312 -0.675781 3.96875 -0.375 C 3.613281 -0.0703125 3.109375 0.078125 2.453125 0.078125 C 1.835938 0.078125 1.347656 -0.0546875 0.984375 -0.328125 C 0.617188 -0.609375 0.398438 -1.019531 0.328125 -1.5625 L 1.140625 -1.625 C 1.234375 -0.90625 1.671875 -0.546875 2.453125 -0.546875 C 2.835938 -0.546875 3.140625 -0.640625 3.359375 -0.828125 C 3.585938 -1.023438 3.703125 -1.316406 3.703125 -1.703125 C 3.703125 -2.023438 3.570312 -2.28125 3.3125 -2.46875 C 3.0625 -2.65625 2.695312 -2.75 2.21875 -2.75 L 1.78125 -2.75 L 1.78125 -3.421875 L 2.203125 -3.421875 C 2.628906 -3.421875 2.957031 -3.507812 3.1875 -3.6875 C 3.425781 -3.875 3.546875 -4.128906 3.546875 -4.453125 C 3.546875 -4.773438 3.445312 -5.03125 3.25 -5.21875 C 3.0625 -5.40625 2.78125 -5.5 2.40625 -5.5 C 2.070312 -5.5 1.796875 -5.410156 1.578125 -5.234375 C 1.367188 -5.066406 1.25 -4.820312 1.21875 -4.5 L 0.4375 -4.5625 C 0.5 -5.0625 0.703125 -5.445312 1.046875 -5.71875 C 1.398438 -6 1.859375 -6.140625 2.421875 -6.140625 C 3.023438 -6.140625 3.492188 -6 3.828125 -5.71875 C 4.171875 -5.4375 4.34375 -5.046875 4.34375 -4.546875 C 4.34375 -4.148438 4.234375 -3.832031 4.015625 -3.59375 C 3.796875 -3.351562 3.484375 -3.191406 3.078125 -3.109375 L 3.078125 -3.09375 C 3.523438 -3.039062 3.875 -2.882812 4.125 -2.625 C 4.375 -2.375 4.5 -2.054688 4.5 -1.671875 Z M 4.5 -1.671875 "/>
</g>
<g id="glyph-3-5">
<path d="M 3.78125 -1.375 L 3.78125 0 L 3.046875 0 L 3.046875 -1.375 L 0.203125 -1.375 L 0.203125 -1.96875 L 2.96875 -6.046875 L 3.78125 -6.046875 L 3.78125 -1.984375 L 4.640625 -1.984375 L 4.640625 -1.375 Z M 3.046875 -5.1875 C 3.046875 -5.164062 3.007812 -5.085938 2.9375 -4.953125 C 2.863281 -4.816406 2.804688 -4.722656 2.765625 -4.671875 L 1.21875 -2.390625 L 0.984375 -2.0625 L 0.921875 -1.984375 L 3.046875 -1.984375 Z M 3.046875 -5.1875 "/>
</g>
<g id="glyph-3-6">
<path d="M 0.390625 -2 L 0.390625 -2.6875 L 2.53125 -2.6875 L 2.53125 -2 Z M 0.390625 -2 "/>
</g>
<g id="glyph-4-0">
<path d="M -3.859375 -7.421875 C -3.078125 -7.421875 -2.394531 -7.265625 -1.8125 -6.953125 C -1.226562 -6.648438 -0.78125 -6.21875 -0.46875 -5.65625 C -0.15625 -5.101562 0 -4.460938 0 -3.734375 L 0 -0.90625 L -7.5625 -0.90625 L -7.5625 -3.40625 C -7.5625 -4.6875 -7.238281 -5.675781 -6.59375 -6.375 C -5.957031 -7.070312 -5.046875 -7.421875 -3.859375 -7.421875 Z M -3.859375 -6.390625 C -4.796875 -6.390625 -5.507812 -6.128906 -6 -5.609375 C -6.5 -5.097656 -6.75 -4.359375 -6.75 -3.390625 L -6.75 -1.921875 L -0.828125 -1.921875 L -0.828125 -3.609375 C -0.828125 -4.171875 -0.945312 -4.660156 -1.1875 -5.078125 C -1.425781 -5.492188 -1.773438 -5.816406 -2.234375 -6.046875 C -2.691406 -6.273438 -3.234375 -6.390625 -3.859375 -6.390625 Z M -3.859375 -6.390625 "/>
</g>
<g id="glyph-4-1">
<path d="M -2.703125 -1.484375 C -2.035156 -1.484375 -1.519531 -1.617188 -1.15625 -1.890625 C -0.800781 -2.171875 -0.625 -2.578125 -0.625 -3.109375 C -0.625 -3.523438 -0.707031 -3.859375 -0.875 -4.109375 C -1.039062 -4.359375 -1.253906 -4.53125 -1.515625 -4.625 L -1.265625 -5.46875 C -0.347656 -5.125 0.109375 -4.335938 0.109375 -3.109375 C 0.109375 -2.242188 -0.144531 -1.585938 -0.65625 -1.140625 C -1.164062 -0.691406 -1.925781 -0.46875 -2.9375 -0.46875 C -3.90625 -0.46875 -4.644531 -0.691406 -5.15625 -1.140625 C -5.664062 -1.585938 -5.921875 -2.226562 -5.921875 -3.0625 C -5.921875 -4.769531 -4.890625 -5.625 -2.828125 -5.625 L -2.703125 -5.625 Z M -3.4375 -4.625 C -4.050781 -4.570312 -4.5 -4.414062 -4.78125 -4.15625 C -5.0625 -3.90625 -5.203125 -3.535156 -5.203125 -3.046875 C -5.203125 -2.578125 -5.046875 -2.207031 -4.734375 -1.9375 C -4.421875 -1.664062 -3.988281 -1.519531 -3.4375 -1.5 Z M -3.4375 -4.625 "/>
</g>
<g id="glyph-4-2">
<path d="M 0 -4.4375 L -3.6875 -4.4375 C -4.070312 -4.4375 -4.367188 -4.394531 -4.578125 -4.3125 C -4.785156 -4.238281 -4.9375 -4.117188 -5.03125 -3.953125 C -5.125 -3.796875 -5.171875 -3.554688 -5.171875 -3.234375 C -5.171875 -2.765625 -5.007812 -2.394531 -4.6875 -2.125 C -4.375 -1.863281 -3.9375 -1.734375 -3.375 -1.734375 L 0 -1.734375 L 0 -0.765625 L -4.578125 -0.765625 C -5.253906 -0.765625 -5.664062 -0.753906 -5.8125 -0.734375 L -5.8125 -1.640625 C -5.789062 -1.648438 -5.738281 -1.65625 -5.65625 -1.65625 C -5.582031 -1.65625 -5.492188 -1.65625 -5.390625 -1.65625 C -5.296875 -1.664062 -5.101562 -1.675781 -4.8125 -1.6875 L -4.8125 -1.703125 C -5.21875 -1.921875 -5.503906 -2.175781 -5.671875 -2.46875 C -5.835938 -2.757812 -5.921875 -3.125 -5.921875 -3.5625 C -5.921875 -4.195312 -5.757812 -4.660156 -5.4375 -4.953125 C -5.125 -5.253906 -4.601562 -5.40625 -3.875 -5.40625 L 0 -5.40625 Z M 0 -4.4375 "/>
</g>
<g id="glyph-4-3">
<path d="M -1.609375 -5.109375 C -1.054688 -5.109375 -0.628906 -4.898438 -0.328125 -4.484375 C -0.0351562 -4.066406 0.109375 -3.488281 0.109375 -2.75 C 0.109375 -2.019531 -0.0078125 -1.457031 -0.25 -1.0625 C -0.488281 -0.675781 -0.859375 -0.425781 -1.359375 -0.3125 L -1.53125 -1.15625 C -1.21875 -1.238281 -0.988281 -1.410156 -0.84375 -1.671875 C -0.695312 -1.929688 -0.625 -2.289062 -0.625 -2.75 C -0.625 -3.238281 -0.695312 -3.59375 -0.84375 -3.8125 C -1 -4.039062 -1.226562 -4.15625 -1.53125 -4.15625 C -1.757812 -4.15625 -1.941406 -4.078125 -2.078125 -3.921875 C -2.222656 -3.765625 -2.34375 -3.507812 -2.4375 -3.15625 L -2.625 -2.46875 C -2.769531 -1.914062 -2.910156 -1.519531 -3.046875 -1.28125 C -3.179688 -1.050781 -3.347656 -0.867188 -3.546875 -0.734375 C -3.742188 -0.597656 -3.988281 -0.53125 -4.28125 -0.53125 C -4.8125 -0.53125 -5.210938 -0.71875 -5.484375 -1.09375 C -5.765625 -1.476562 -5.90625 -2.03125 -5.90625 -2.75 C -5.90625 -3.394531 -5.789062 -3.90625 -5.5625 -4.28125 C -5.332031 -4.65625 -4.972656 -4.894531 -4.484375 -5 L -4.375 -4.125 C -4.632812 -4.070312 -4.832031 -3.925781 -4.96875 -3.6875 C -5.101562 -3.457031 -5.171875 -3.144531 -5.171875 -2.75 C -5.171875 -2.3125 -5.101562 -1.988281 -4.96875 -1.78125 C -4.84375 -1.582031 -4.644531 -1.484375 -4.375 -1.484375 C -4.207031 -1.484375 -4.066406 -1.523438 -3.953125 -1.609375 C -3.847656 -1.691406 -3.757812 -1.816406 -3.6875 -1.984375 C -3.613281 -2.148438 -3.507812 -2.503906 -3.375 -3.046875 C -3.25 -3.554688 -3.128906 -3.925781 -3.015625 -4.15625 C -2.910156 -4.382812 -2.789062 -4.5625 -2.65625 -4.6875 C -2.519531 -4.820312 -2.363281 -4.925781 -2.1875 -5 C -2.019531 -5.070312 -1.828125 -5.109375 -1.609375 -5.109375 Z M -1.609375 -5.109375 "/>
</g>
<g id="glyph-4-4">
<path d="M -7.046875 -0.734375 L -7.96875 -0.734375 L -7.96875 -1.703125 L -7.046875 -1.703125 Z M 0 -0.734375 L -5.8125 -0.734375 L -5.8125 -1.703125 L 0 -1.703125 Z M 0 -0.734375 "/>
</g>
<g id="glyph-4-5">
<path d="M -0.046875 -2.96875 C 0.046875 -2.65625 0.09375 -2.332031 0.09375 -2 C 0.09375 -1.226562 -0.347656 -0.84375 -1.234375 -0.84375 L -5.109375 -0.84375 L -5.109375 -0.171875 L -5.8125 -0.171875 L -5.8125 -0.875 L -7.109375 -1.15625 L -7.109375 -1.8125 L -5.8125 -1.8125 L -5.8125 -2.875 L -5.109375 -2.875 L -5.109375 -1.8125 L -1.4375 -1.8125 C -1.15625 -1.8125 -0.957031 -1.851562 -0.84375 -1.9375 C -0.738281 -2.03125 -0.6875 -2.191406 -0.6875 -2.421875 C -0.6875 -2.546875 -0.707031 -2.726562 -0.75 -2.96875 Z M -0.046875 -2.96875 "/>
</g>
<g id="glyph-4-6">
<path d="M 2.28125 -1.03125 C 2.28125 -0.757812 2.257812 -0.535156 2.21875 -0.359375 L 1.5 -0.359375 C 1.519531 -0.492188 1.53125 -0.644531 1.53125 -0.8125 C 1.53125 -1.414062 1.085938 -1.890625 0.203125 -2.234375 L -0.03125 -2.328125 L -5.8125 -0.03125 L -5.8125 -1.0625 L -2.59375 -2.28125 C -2.550781 -2.300781 -2.492188 -2.320312 -2.421875 -2.34375 C -2.347656 -2.375 -2.113281 -2.457031 -1.71875 -2.59375 C -1.320312 -2.726562 -1.097656 -2.800781 -1.046875 -2.8125 L -2.109375 -3.1875 L -5.8125 -4.453125 L -5.8125 -5.484375 L 0 -3.25 C 0.613281 -3.007812 1.070312 -2.785156 1.375 -2.578125 C 1.6875 -2.367188 1.914062 -2.132812 2.0625 -1.875 C 2.207031 -1.625 2.28125 -1.34375 2.28125 -1.03125 Z M 2.28125 -1.03125 "/>
</g>
<g id="glyph-4-7">
<path d="M -5.296875 -6.75 C -4.578125 -6.75 -4.003906 -6.515625 -3.578125 -6.046875 C -3.160156 -5.585938 -2.953125 -4.957031 -2.953125 -4.15625 L -2.953125 -1.921875 L 0 -1.921875 L 0 -0.90625 L -7.5625 -0.90625 L -7.5625 -4.09375 C -7.5625 -4.9375 -7.363281 -5.585938 -6.96875 -6.046875 C -6.570312 -6.515625 -6.015625 -6.75 -5.296875 -6.75 Z M -5.28125 -5.71875 C -6.257812 -5.71875 -6.75 -5.132812 -6.75 -3.96875 L -6.75 -1.921875 L -3.765625 -1.921875 L -3.765625 -4 C -3.765625 -5.144531 -4.269531 -5.71875 -5.28125 -5.71875 Z M -5.28125 -5.71875 "/>
</g>
<g id="glyph-4-8">
<path d="M 0 -0.765625 L -4.453125 -0.765625 C -4.867188 -0.765625 -5.320312 -0.753906 -5.8125 -0.734375 L -5.8125 -1.640625 C -5.15625 -1.671875 -4.757812 -1.6875 -4.625 -1.6875 L -4.625 -1.703125 C -5.125 -1.859375 -5.460938 -2.035156 -5.640625 -2.234375 C -5.828125 -2.441406 -5.921875 -2.726562 -5.921875 -3.09375 C -5.921875 -3.21875 -5.898438 -3.347656 -5.859375 -3.484375 L -4.984375 -3.484375 C -5.015625 -3.347656 -5.03125 -3.175781 -5.03125 -2.96875 C -5.03125 -2.5625 -4.859375 -2.253906 -4.515625 -2.046875 C -4.171875 -1.835938 -3.675781 -1.734375 -3.03125 -1.734375 L 0 -1.734375 Z M 0 -0.765625 "/>
</g>
<g id="glyph-4-9">
<path d="M -2.90625 -5.65625 C -1.894531 -5.65625 -1.140625 -5.429688 -0.640625 -4.984375 C -0.140625 -4.535156 0.109375 -3.882812 0.109375 -3.03125 C 0.109375 -2.1875 -0.144531 -1.546875 -0.65625 -1.109375 C -1.175781 -0.679688 -1.925781 -0.46875 -2.90625 -0.46875 C -4.914062 -0.46875 -5.921875 -1.332031 -5.921875 -3.0625 C -5.921875 -3.957031 -5.675781 -4.613281 -5.1875 -5.03125 C -4.695312 -5.445312 -3.9375 -5.65625 -2.90625 -5.65625 Z M -2.90625 -4.640625 C -3.707031 -4.640625 -4.289062 -4.519531 -4.65625 -4.28125 C -5.019531 -4.039062 -5.203125 -3.640625 -5.203125 -3.078125 C -5.203125 -2.515625 -5.015625 -2.109375 -4.640625 -1.859375 C -4.273438 -1.609375 -3.695312 -1.484375 -2.90625 -1.484375 C -2.144531 -1.484375 -1.570312 -1.601562 -1.1875 -1.84375 C -0.800781 -2.09375 -0.609375 -2.488281 -0.609375 -3.03125 C -0.609375 -3.601562 -0.789062 -4.015625 -1.15625 -4.265625 C -1.53125 -4.515625 -2.113281 -4.640625 -2.90625 -4.640625 Z M -2.90625 -4.640625 "/>
</g>
<g id="glyph-4-10">
<path d="M -2.9375 -5.65625 C -0.90625 -5.65625 0.109375 -4.941406 0.109375 -3.515625 C 0.109375 -3.078125 0.03125 -2.710938 -0.125 -2.421875 C -0.289062 -2.128906 -0.550781 -1.890625 -0.90625 -1.703125 C -0.789062 -1.703125 -0.617188 -1.691406 -0.390625 -1.671875 C -0.160156 -1.660156 -0.03125 -1.648438 0 -1.640625 L 0 -0.703125 C -0.195312 -0.722656 -0.597656 -0.734375 -1.203125 -0.734375 L -7.96875 -0.734375 L -7.96875 -1.703125 L -5.703125 -1.703125 C -5.460938 -1.703125 -5.1875 -1.695312 -4.875 -1.6875 L -4.875 -1.703125 C -5.25 -1.890625 -5.515625 -2.128906 -5.671875 -2.421875 C -5.835938 -2.710938 -5.921875 -3.078125 -5.921875 -3.515625 C -5.921875 -4.253906 -5.671875 -4.796875 -5.171875 -5.140625 C -4.679688 -5.484375 -3.9375 -5.65625 -2.9375 -5.65625 Z M -2.90625 -4.640625 C -3.71875 -4.640625 -4.296875 -4.53125 -4.640625 -4.3125 C -4.992188 -4.101562 -5.171875 -3.753906 -5.171875 -3.265625 C -5.171875 -2.722656 -4.984375 -2.328125 -4.609375 -2.078125 C -4.242188 -1.828125 -3.65625 -1.703125 -2.84375 -1.703125 C -2.082031 -1.703125 -1.519531 -1.820312 -1.15625 -2.0625 C -0.789062 -2.3125 -0.609375 -2.710938 -0.609375 -3.265625 C -0.609375 -3.742188 -0.785156 -4.09375 -1.140625 -4.3125 C -1.503906 -4.53125 -2.09375 -4.640625 -2.90625 -4.640625 Z M -2.90625 -4.640625 "/>
</g>
<g id="glyph-4-11">
<path d="M 0.109375 -2.21875 C 0.109375 -1.632812 -0.0390625 -1.195312 -0.34375 -0.90625 C -0.65625 -0.613281 -1.082031 -0.46875 -1.625 -0.46875 C -2.226562 -0.46875 -2.6875 -0.664062 -3 -1.0625 C -3.320312 -1.457031 -3.5 -2.09375 -3.53125 -2.96875 L -3.546875 -4.28125 L -3.859375 -4.28125 C -4.335938 -4.28125 -4.675781 -4.175781 -4.875 -3.96875 C -5.082031 -3.769531 -5.1875 -3.457031 -5.1875 -3.03125 C -5.1875 -2.601562 -5.113281 -2.289062 -4.96875 -2.09375 C -4.820312 -1.894531 -4.585938 -1.773438 -4.265625 -1.734375 L -4.34375 -0.71875 C -5.394531 -0.882812 -5.921875 -1.664062 -5.921875 -3.0625 C -5.921875 -3.789062 -5.753906 -4.335938 -5.421875 -4.703125 C -5.085938 -5.078125 -4.601562 -5.265625 -3.96875 -5.265625 L -1.46875 -5.265625 C -1.175781 -5.265625 -0.957031 -5.300781 -0.8125 -5.375 C -0.664062 -5.445312 -0.59375 -5.585938 -0.59375 -5.796875 C -0.59375 -5.890625 -0.609375 -6 -0.640625 -6.125 L -0.03125 -6.125 C 0.0195312 -5.875 0.046875 -5.625 0.046875 -5.375 C 0.046875 -5.007812 -0.046875 -4.742188 -0.234375 -4.578125 C -0.421875 -4.421875 -0.710938 -4.332031 -1.109375 -4.3125 L -1.109375 -4.28125 C -0.671875 -4.03125 -0.359375 -3.738281 -0.171875 -3.40625 C 0.015625 -3.082031 0.109375 -2.6875 0.109375 -2.21875 Z M -0.625 -2.4375 C -0.625 -2.789062 -0.703125 -3.101562 -0.859375 -3.375 C -1.015625 -3.65625 -1.234375 -3.875 -1.515625 -4.03125 C -1.796875 -4.195312 -2.085938 -4.28125 -2.390625 -4.28125 L -2.875 -4.28125 L -2.84375 -3.21875 C -2.84375 -2.769531 -2.796875 -2.425781 -2.703125 -2.1875 C -2.617188 -1.957031 -2.488281 -1.78125 -2.3125 -1.65625 C -2.132812 -1.53125 -1.898438 -1.46875 -1.609375 -1.46875 C -1.296875 -1.46875 -1.050781 -1.550781 -0.875 -1.71875 C -0.707031 -1.882812 -0.625 -2.125 -0.625 -2.4375 Z M -0.625 -2.4375 "/>
</g>
<g id="glyph-4-12">
<path d="M 0 -0.734375 L -7.96875 -0.734375 L -7.96875 -1.703125 L 0 -1.703125 Z M 0 -0.734375 "/>
</g>
</g>
<clipPath id="clip-0">
<path clip-rule="nonzero" d="M 5.480469 5.480469 L 198 5.480469 L 198 246.523438 L 5.480469 246.523438 Z M 5.480469 5.480469 "/>
</clipPath>
<clipPath id="clip-1">
<path clip-rule="nonzero" d="M 198 5.480469 L 390.519531 5.480469 L 390.519531 246.523438 L 198 246.523438 Z M 198 5.480469 "/>
</clipPath>
<clipPath id="clip-2">
<path clip-rule="nonzero" d="M 41.628906 10.957031 L 192.519531 10.957031 L 192.519531 208.667969 L 41.628906 208.667969 Z M 41.628906 10.957031 "/>
</clipPath>
<clipPath id="clip-3">
<path clip-rule="nonzero" d="M 111 10.957031 L 114 10.957031 L 114 208.667969 L 111 208.667969 Z M 111 10.957031 "/>
</clipPath>
<clipPath id="clip-4">
<path clip-rule="nonzero" d="M 139 10.957031 L 141 10.957031 L 141 208.667969 L 139 208.667969 Z M 139 10.957031 "/>
</clipPath>
<clipPath id="clip-5">
<path clip-rule="nonzero" d="M 234.152344 10.957031 L 385.042969 10.957031 L 385.042969 208.667969 L 234.152344 208.667969 Z M 234.152344 10.957031 "/>
</clipPath>
<clipPath id="clip-6">
<path clip-rule="nonzero" d="M 252 10.957031 L 273 10.957031 L 273 17 L 252 17 Z M 252 10.957031 "/>
</clipPath>
<clipPath id="clip-7">
<path clip-rule="nonzero" d="M 299 10.957031 L 320 10.957031 L 320 17 L 299 17 Z M 299 10.957031 "/>
</clipPath>
</defs>
<rect x="-39.6" y="-25.2" width="475.2" height="302.4" fill="rgb(100%, 100%, 100%)" fill-opacity="1"/>
<rect x="-39.6" y="-25.2" width="475.2" height="302.4" fill="rgb(100%, 100%, 100%)" fill-opacity="1"/>
<path fill="none" stroke-width="1.066978" stroke-linecap="round" stroke-linejoin="round" stroke="rgb(100%, 100%, 100%)" stroke-opacity="1" stroke-miterlimit="10" d="M 0 252 L 396 252 L 396 0 L 0 0 Z M 0 252 "/>
<g clip-path="url(#clip-0)">
<path fill-rule="nonzero" fill="rgb(100%, 100%, 100%)" fill-opacity="1" stroke-width="1.066978" stroke-linecap="round" stroke-linejoin="round" stroke="rgb(100%, 100%, 100%)" stroke-opacity="1" stroke-miterlimit="10" d="M 5.480469 246.519531 L 198 246.519531 L 198 5.476562 L 5.480469 5.476562 Z M 5.480469 246.519531 "/>
</g>
<g clip-path="url(#clip-1)">
<path fill-rule="nonzero" fill="rgb(100%, 100%, 100%)" fill-opacity="1" stroke-width="1.066978" stroke-linecap="round" stroke-linejoin="round" stroke="rgb(100%, 100%, 100%)" stroke-opacity="1" stroke-miterlimit="10" d="M 198 246.519531 L 390.519531 246.519531 L 390.519531 5.476562 L 198 5.476562 Z M 198 246.519531 "/>
</g>
<g clip-path="url(#clip-2)">
<path fill-rule="nonzero" fill="rgb(100%, 100%, 100%)" fill-opacity="1" d="M 41.628906 208.667969 L 192.519531 208.667969 L 192.519531 10.957031 L 41.628906 10.957031 Z M 41.628906 208.667969 "/>
</g>
<path fill="none" stroke-width="1.066978" stroke-linecap="butt" stroke-linejoin="round" stroke="rgb(0%, 0%, 0%)" stroke-opacity="1" stroke-miterlimit="10" d="M 48.488281 199.683594 L 49.859375 199.289062 L 51.230469 198.828125 L 52.605469 198.292969 L 53.976562 197.671875 L 55.347656 196.953125 L 56.71875 196.128906 L 58.089844 195.183594 L 59.460938 194.105469 L 60.835938 192.882812 L 62.207031 191.5 L 63.578125 189.941406 L 64.949219 188.191406 L 66.320312 186.238281 L 67.691406 184.066406 L 69.066406 181.664062 L 70.4375 179.011719 L 71.808594 176.105469 L 73.179688 172.929688 L 74.550781 169.472656 L 75.921875 165.734375 L 77.296875 161.703125 L 78.667969 157.378906 L 80.039062 152.769531 L 81.410156 147.871094 L 82.78125 142.695312 L 84.152344 137.253906 L 85.527344 131.5625 L 86.898438 125.644531 L 88.269531 119.527344 L 89.640625 113.230469 L 91.011719 106.796875 L 92.382812 100.261719 L 93.757812 93.664062 L 95.128906 87.054688 L 96.5 80.476562 L 97.871094 73.980469 L 99.242188 67.617188 L 100.613281 61.445312 L 101.984375 55.519531 L 103.359375 49.886719 L 104.730469 44.605469 L 106.101562 39.722656 L 107.472656 35.289062 L 108.84375 31.351562 L 110.214844 27.945312 L 111.589844 25.105469 L 112.960938 22.867188 L 114.332031 21.25 L 115.703125 20.273438 L 117.074219 19.945312 L 118.445312 20.273438 L 119.820312 21.25 L 121.191406 22.867188 L 122.5625 25.105469 L 123.933594 27.945312 L 125.304688 31.351562 L 126.675781 35.289062 L 128.050781 39.722656 L 129.421875 44.605469 L 130.792969 49.886719 L 132.164062 55.519531 L 133.535156 61.445312 L 134.90625 67.617188 L 136.28125 73.980469 L 137.652344 80.476562 L 139.023438 87.054688 L 140.394531 93.664062 L 141.765625 100.261719 L 143.136719 106.796875 L 144.511719 113.230469 L 145.882812 119.527344 L 147.253906 125.644531 L 148.625 131.5625 L 149.996094 137.253906 L 151.367188 142.695312 L 152.742188 147.871094 L 154.113281 152.769531 L 155.484375 157.378906 L 156.855469 161.703125 L 158.226562 165.734375 L 159.597656 169.472656 L 160.972656 172.929688 L 162.34375 176.105469 L 163.714844 179.011719 L 165.085938 181.664062 L 166.457031 184.066406 L 167.828125 186.238281 L 169.199219 188.191406 L 170.574219 189.941406 L 171.945312 191.5 L 173.316406 192.882812 L 174.6875 194.105469 L 176.058594 195.183594 L 177.429688 196.128906 L 178.804688 196.953125 L 180.175781 197.671875 L 181.546875 198.292969 L 182.917969 198.828125 L 184.289062 199.289062 L 185.660156 199.683594 "/>
<g clip-path="url(#clip-3)">
<path fill="none" stroke-width="1.066978" stroke-linecap="butt" stroke-linejoin="round" stroke="rgb(0%, 0%, 0%)" stroke-opacity="1" stroke-dasharray="4.267913 4.267913" stroke-miterlimit="10" d="M 112.503906 208.667969 L 112.503906 10.957031 "/>
</g>
<g clip-path="url(#clip-4)">
<path fill="none" stroke-width="1.066978" stroke-linecap="butt" stroke-linejoin="round" stroke="rgb(0%, 0%, 0%)" stroke-opacity="1" stroke-dasharray="4.267913 4.267913" stroke-miterlimit="10" d="M 139.9375 208.667969 L 139.9375 10.957031 "/>
</g>
<g fill="rgb(0%, 0%, 0%)" fill-opacity="1">
<use xlink:href="#glyph-0-0" x="113.644531" y="66.683594"/>
</g>
<g fill="rgb(0%, 0%, 0%)" fill-opacity="1">
<use xlink:href="#glyph-1-0" x="120.644531" y="69.543945"/>
</g>
<g fill="rgb(0%, 0%, 0%)" fill-opacity="1">
<use xlink:href="#glyph-0-0" x="141.082031" y="66.683594"/>
</g>
<g fill="rgb(0%, 0%, 0%)" fill-opacity="1">
<use xlink:href="#glyph-1-1" x="148.082031" y="69.543945"/>
</g>
<g fill="rgb(0%, 0%, 0%)" fill-opacity="1">
<use xlink:href="#glyph-2-0" x="79.425781" y="160.098633"/>
<use xlink:href="#glyph-2-1" x="86.425781" y="160.098633"/>
<use xlink:href="#glyph-2-2" x="89.425781" y="160.098633"/>
<use xlink:href="#glyph-2-1" x="95.425781" y="160.098633"/>
<use xlink:href="#glyph-2-3" x="98.425781" y="160.098633"/>
</g>
<g fill="rgb(0%, 0%, 0%)" fill-opacity="1">
<use xlink:href="#glyph-2-0" x="113.71875" y="160.098633"/>
<use xlink:href="#glyph-2-1" x="120.71875" y="160.098633"/>
<use xlink:href="#glyph-2-2" x="123.71875" y="160.098633"/>
<use xlink:href="#glyph-2-1" x="129.71875" y="160.098633"/>
<use xlink:href="#glyph-2-4" x="132.71875" y="160.098633"/>
</g>
<g fill="rgb(0%, 0%, 0%)" fill-opacity="1">
<use xlink:href="#glyph-2-0" x="138.867188" y="160.098633"/>
<use xlink:href="#glyph-2-1" x="145.867188" y="160.098633"/>
<use xlink:href="#glyph-2-2" x="148.867188" y="160.098633"/>
<use xlink:href="#glyph-2-1" x="154.867188" y="160.098633"/>
<use xlink:href="#glyph-2-5" x="157.867188" y="160.098633"/>
</g>
<path fill="none" stroke-width="1.066978" stroke-linecap="square" stroke-linejoin="round" stroke="rgb(0%, 0%, 0%)" stroke-opacity="1" stroke-miterlimit="10" d="M 41.628906 208.667969 L 41.628906 10.957031 "/>
<g fill="rgb(0%, 0%, 0%)" fill-opacity="1">
<use xlink:href="#glyph-3-0" x="24.699219" y="205.168945"/>
<use xlink:href="#glyph-3-1" x="29.699219" y="205.168945"/>
<use xlink:href="#glyph-3-0" x="31.699219" y="205.168945"/>
</g>
<g fill="rgb(0%, 0%, 0%)" fill-opacity="1">
<use xlink:href="#glyph-3-0" x="24.699219" y="159.606445"/>
<use xlink:href="#glyph-3-1" x="29.699219" y="159.606445"/>
<use xlink:href="#glyph-3-2" x="31.699219" y="159.606445"/>
</g>
<g fill="rgb(0%, 0%, 0%)" fill-opacity="1">
<use xlink:href="#glyph-3-0" x="24.699219" y="114.047852"/>
<use xlink:href="#glyph-3-1" x="29.699219" y="114.047852"/>
<use xlink:href="#glyph-3-3" x="31.699219" y="114.047852"/>
</g>
<g fill="rgb(0%, 0%, 0%)" fill-opacity="1">
<use xlink:href="#glyph-3-0" x="24.699219" y="68.489258"/>
<use xlink:href="#glyph-3-1" x="29.699219" y="68.489258"/>
<use xlink:href="#glyph-3-4" x="31.699219" y="68.489258"/>
</g>
<g fill="rgb(0%, 0%, 0%)" fill-opacity="1">
<use xlink:href="#glyph-3-0" x="24.699219" y="22.930664"/>
<use xlink:href="#glyph-3-1" x="29.699219" y="22.930664"/>
<use xlink:href="#glyph-3-5" x="31.699219" y="22.930664"/>
</g>
<path fill="none" stroke-width="1.066978" stroke-linecap="butt" stroke-linejoin="round" stroke="rgb(0%, 0%, 0%)" stroke-opacity="1" stroke-miterlimit="10" d="M 38.890625 201.703125 L 41.628906 201.703125 "/>
<path fill="none" stroke-width="1.066978" stroke-linecap="butt" stroke-linejoin="round" stroke="rgb(0%, 0%, 0%)" stroke-opacity="1" stroke-miterlimit="10" d="M 38.890625 156.140625 L 41.628906 156.140625 "/>
<path fill="none" stroke-width="1.066978" stroke-linecap="butt" stroke-linejoin="round" stroke="rgb(0%, 0%, 0%)" stroke-opacity="1" stroke-miterlimit="10" d="M 38.890625 110.582031 L 41.628906 110.582031 "/>
<path fill="none" stroke-width="1.066978" stroke-linecap="butt" stroke-linejoin="round" stroke="rgb(0%, 0%, 0%)" stroke-opacity="1" stroke-miterlimit="10" d="M 38.890625 65.023438 L 41.628906 65.023438 "/>
<path fill="none" stroke-width="1.066978" stroke-linecap="butt" stroke-linejoin="round" stroke="rgb(0%, 0%, 0%)" stroke-opacity="1" stroke-miterlimit="10" d="M 38.890625 19.464844 L 41.628906 19.464844 "/>
<path fill="none" stroke-width="1.066978" stroke-linecap="square" stroke-linejoin="round" stroke="rgb(0%, 0%, 0%)" stroke-opacity="1" stroke-miterlimit="10" d="M 41.628906 208.667969 L 192.519531 208.667969 "/>
<path fill="none" stroke-width="1.066978" stroke-linecap="butt" stroke-linejoin="round" stroke="rgb(0%, 0%, 0%)" stroke-opacity="1" stroke-miterlimit="10" d="M 71.351562 211.410156 L 71.351562 208.667969 "/>
<path fill="none" stroke-width="1.066978" stroke-linecap="butt" stroke-linejoin="round" stroke="rgb(0%, 0%, 0%)" stroke-opacity="1" stroke-miterlimit="10" d="M 117.074219 211.410156 L 117.074219 208.667969 "/>
<path fill="none" stroke-width="1.066978" stroke-linecap="butt" stroke-linejoin="round" stroke="rgb(0%, 0%, 0%)" stroke-opacity="1" stroke-miterlimit="10" d="M 162.800781 211.410156 L 162.800781 208.667969 "/>
<g fill="rgb(0%, 0%, 0%)" fill-opacity="1">
<use xlink:href="#glyph-3-6" x="67.351562" y="220.567383"/>
<use xlink:href="#glyph-3-3" x="70.351562" y="220.567383"/>
</g>
<g fill="rgb(0%, 0%, 0%)" fill-opacity="1">
<use xlink:href="#glyph-3-0" x="114.574219" y="220.567383"/>
</g>
<g fill="rgb(0%, 0%, 0%)" fill-opacity="1">
<use xlink:href="#glyph-3-3" x="160.300781" y="220.567383"/>
</g>
<g fill="rgb(0%, 0%, 0%)" fill-opacity="1">
<use xlink:href="#glyph-2-0" x="112.074219" y="237.000977"/>
</g>
<g fill="rgb(0%, 0%, 0%)" fill-opacity="1">
<use xlink:href="#glyph-1-2" x="119.074219" y="231.30957"/>
</g>
<g fill="rgb(0%, 0%, 0%)" fill-opacity="1">
<use xlink:href="#glyph-4-0" x="18.915039" y="128.3125"/>
<use xlink:href="#glyph-4-1" x="18.915039" y="120.3125"/>
<use xlink:href="#glyph-4-2" x="18.915039" y="114.3125"/>
<use xlink:href="#glyph-4-3" x="18.915039" y="108.3125"/>
<use xlink:href="#glyph-4-4" x="18.915039" y="102.3125"/>
<use xlink:href="#glyph-4-5" x="18.915039" y="100.3125"/>
<use xlink:href="#glyph-4-6" x="18.915039" y="97.3125"/>
</g>
<g clip-path="url(#clip-5)">
<path fill-rule="nonzero" fill="rgb(100%, 100%, 100%)" fill-opacity="1" d="M 234.152344 208.667969 L 385.042969 208.667969 L 385.042969 10.957031 L 234.152344 10.957031 Z M 234.152344 208.667969 "/>
</g>
<path fill-rule="nonzero" fill="rgb(34.901961%, 34.901961%, 34.901961%)" fill-opacity="1" d="M 250.65625 199.683594 L 274.234375 199.683594 L 274.234375 19.945312 L 250.65625 19.945312 Z M 250.65625 199.683594 "/>
<path fill-rule="nonzero" fill="rgb(34.901961%, 34.901961%, 34.901961%)" fill-opacity="1" d="M 297.808594 199.683594 L 321.386719 199.683594 L 321.386719 20.003906 L 297.808594 20.003906 Z M 297.808594 199.683594 "/>
<path fill-rule="nonzero" fill="rgb(34.901961%, 34.901961%, 34.901961%)" fill-opacity="1" d="M 344.960938 199.683594 L 368.539062 199.683594 L 368.539062 131.90625 L 344.960938 131.90625 Z M 344.960938 199.683594 "/>
<g clip-path="url(#clip-6)">
<g fill="rgb(0%, 0%, 0%)" fill-opacity="1">
<use xlink:href="#glyph-2-3" x="251.941406" y="15.90332"/>
<use xlink:href="#glyph-2-6" x="257.941406" y="15.90332"/>
<use xlink:href="#glyph-2-7" x="260.941406" y="15.90332"/>
<use xlink:href="#glyph-2-5" x="266.941406" y="15.90332"/>
</g>
</g>
<g clip-path="url(#clip-7)">
<g fill="rgb(0%, 0%, 0%)" fill-opacity="1">
<use xlink:href="#glyph-2-3" x="299.097656" y="15.961914"/>
<use xlink:href="#glyph-2-6" x="305.097656" y="15.961914"/>
<use xlink:href="#glyph-2-7" x="308.097656" y="15.961914"/>
<use xlink:href="#glyph-2-5" x="314.097656" y="15.961914"/>
</g>
</g>
<g fill="rgb(0%, 0%, 0%)" fill-opacity="1">
<use xlink:href="#glyph-2-3" x="346.25" y="127.864258"/>
<use xlink:href="#glyph-2-6" x="352.25" y="127.864258"/>
<use xlink:href="#glyph-2-4" x="355.25" y="127.864258"/>
<use xlink:href="#glyph-2-8" x="361.25" y="127.864258"/>
</g>
<path fill="none" stroke-width="1.066978" stroke-linecap="square" stroke-linejoin="round" stroke="rgb(0%, 0%, 0%)" stroke-opacity="1" stroke-miterlimit="10" d="M 234.152344 208.667969 L 234.152344 10.957031 "/>
<g fill="rgb(0%, 0%, 0%)" fill-opacity="1">
<use xlink:href="#glyph-3-0" x="217.21875" y="203.149414"/>
<use xlink:href="#glyph-3-1" x="222.21875" y="203.149414"/>
<use xlink:href="#glyph-3-0" x="224.21875" y="203.149414"/>
</g>
<g fill="rgb(0%, 0%, 0%)" fill-opacity="1">
<use xlink:href="#glyph-3-0" x="217.21875" y="160.430664"/>
<use xlink:href="#glyph-3-1" x="222.21875" y="160.430664"/>
<use xlink:href="#glyph-3-2" x="224.21875" y="160.430664"/>
</g>
<g fill="rgb(0%, 0%, 0%)" fill-opacity="1">
<use xlink:href="#glyph-3-0" x="217.21875" y="117.711914"/>
<use xlink:href="#glyph-3-1" x="222.21875" y="117.711914"/>
<use xlink:href="#glyph-3-3" x="224.21875" y="117.711914"/>
</g>
<g fill="rgb(0%, 0%, 0%)" fill-opacity="1">
<use xlink:href="#glyph-3-0" x="217.21875" y="74.989258"/>
<use xlink:href="#glyph-3-1" x="222.21875" y="74.989258"/>
<use xlink:href="#glyph-3-4" x="224.21875" y="74.989258"/>
</g>
<g fill="rgb(0%, 0%, 0%)" fill-opacity="1">
<use xlink:href="#glyph-3-0" x="217.21875" y="32.270508"/>
<use xlink:href="#glyph-3-1" x="222.21875" y="32.270508"/>
<use xlink:href="#glyph-3-5" x="224.21875" y="32.270508"/>
</g>
<path fill="none" stroke-width="1.066978" stroke-linecap="butt" stroke-linejoin="round" stroke="rgb(0%, 0%, 0%)" stroke-opacity="1" stroke-miterlimit="10" d="M 231.410156 199.683594 L 234.152344 199.683594 "/>
<path fill="none" stroke-width="1.066978" stroke-linecap="butt" stroke-linejoin="round" stroke="rgb(0%, 0%, 0%)" stroke-opacity="1" stroke-miterlimit="10" d="M 231.410156 156.964844 L 234.152344 156.964844 "/>
<path fill="none" stroke-width="1.066978" stroke-linecap="butt" stroke-linejoin="round" stroke="rgb(0%, 0%, 0%)" stroke-opacity="1" stroke-miterlimit="10" d="M 231.410156 114.246094 L 234.152344 114.246094 "/>
<path fill="none" stroke-width="1.066978" stroke-linecap="butt" stroke-linejoin="round" stroke="rgb(0%, 0%, 0%)" stroke-opacity="1" stroke-miterlimit="10" d="M 231.410156 71.523438 L 234.152344 71.523438 "/>
<path fill="none" stroke-width="1.066978" stroke-linecap="butt" stroke-linejoin="round" stroke="rgb(0%, 0%, 0%)" stroke-opacity="1" stroke-miterlimit="10" d="M 231.410156 28.804688 L 234.152344 28.804688 "/>
<path fill="none" stroke-width="1.066978" stroke-linecap="square" stroke-linejoin="round" stroke="rgb(0%, 0%, 0%)" stroke-opacity="1" stroke-miterlimit="10" d="M 234.152344 208.667969 L 385.042969 208.667969 "/>
<path fill="none" stroke-width="1.066978" stroke-linecap="butt" stroke-linejoin="round" stroke="rgb(0%, 0%, 0%)" stroke-opacity="1" stroke-miterlimit="10" d="M 262.441406 211.410156 L 262.441406 208.667969 "/>
<path fill="none" stroke-width="1.066978" stroke-linecap="butt" stroke-linejoin="round" stroke="rgb(0%, 0%, 0%)" stroke-opacity="1" stroke-miterlimit="10" d="M 309.597656 211.410156 L 309.597656 208.667969 "/>
<path fill="none" stroke-width="1.066978" stroke-linecap="butt" stroke-linejoin="round" stroke="rgb(0%, 0%, 0%)" stroke-opacity="1" stroke-miterlimit="10" d="M 356.75 211.410156 L 356.75 208.667969 "/>
<g fill="rgb(0%, 0%, 0%)" fill-opacity="1">
<use xlink:href="#glyph-3-0" x="259.941406" y="220.567383"/>
</g>
<g fill="rgb(0%, 0%, 0%)" fill-opacity="1">
<use xlink:href="#glyph-3-2" x="307.097656" y="220.567383"/>
</g>
<g fill="rgb(0%, 0%, 0%)" fill-opacity="1">
<use xlink:href="#glyph-3-3" x="354.25" y="220.567383"/>
</g>
<g fill="rgb(0%, 0%, 0%)" fill-opacity="1">
<use xlink:href="#glyph-2-9" x="252.097656" y="233.297852"/>
<use xlink:href="#glyph-2-10" x="261.097656" y="233.297852"/>
<use xlink:href="#glyph-2-11" x="267.097656" y="233.297852"/>
<use xlink:href="#glyph-2-12" x="273.097656" y="233.297852"/>
<use xlink:href="#glyph-2-13" x="279.097656" y="233.297852"/>
<use xlink:href="#glyph-2-14" x="283.097656" y="233.297852"/>
<use xlink:href="#glyph-2-12" x="289.097656" y="233.297852"/>
<use xlink:href="#glyph-2-15" x="295.097656" y="233.297852"/>
<use xlink:href="#glyph-2-1" x="301.097656" y="233.297852"/>
<use xlink:href="#glyph-2-16" x="304.097656" y="233.297852"/>
<use xlink:href="#glyph-2-17" x="312.097656" y="233.297852"/>
<use xlink:href="#glyph-2-18" x="318.097656" y="233.297852"/>
<use xlink:href="#glyph-2-12" x="321.097656" y="233.297852"/>
<use xlink:href="#glyph-2-19" x="327.097656" y="233.297852"/>
<use xlink:href="#glyph-2-20" x="333.097656" y="233.297852"/>
<use xlink:href="#glyph-2-13" x="339.097656" y="233.297852"/>
<use xlink:href="#glyph-2-21" x="343.097656" y="233.297852"/>
<use xlink:href="#glyph-2-1" x="349.097656" y="233.297852"/>
<use xlink:href="#glyph-2-22" x="352.097656" y="233.297852"/>
<use xlink:href="#glyph-2-0" x="356.097656" y="233.297852"/>
<use xlink:href="#glyph-2-23" x="363.097656" y="233.297852"/>
</g>
<g fill="rgb(0%, 0%, 0%)" fill-opacity="1">
<use xlink:href="#glyph-4-7" x="211.438477" y="134.8125"/>
<use xlink:href="#glyph-4-8" x="211.438477" y="127.8125"/>
<use xlink:href="#glyph-4-9" x="211.438477" y="123.8125"/>
<use xlink:href="#glyph-4-10" x="211.438477" y="117.8125"/>
<use xlink:href="#glyph-4-11" x="211.438477" y="111.8125"/>
<use xlink:href="#glyph-4-10" x="211.438477" y="105.8125"/>
<use xlink:href="#glyph-4-4" x="211.438477" y="99.8125"/>
<use xlink:href="#glyph-4-12" x="211.438477" y="97.8125"/>
<use xlink:href="#glyph-4-4" x="211.438477" y="95.8125"/>
<use xlink:href="#glyph-4-5" x="211.438477" y="93.8125"/>
<use xlink:href="#glyph-4-6" x="211.438477" y="90.8125"/>
</g>
</svg>
