<?xml version="1.0" encoding="UTF-8"?>
<svg xmlns="http://www.w3.org/2000/svg" xmlns:xlink="http://www.w3.org/1999/xlink" width="360pt" height="216pt" viewBox="0 0 360 216">
<defs>
<g>
<g id="glyph-0-0">
<path d="M 5.359375 0 L 2.0625 -5.859375 C 2.125 -5.285156 2.15625 -4.828125 2.15625 -4.484375 L 2.15625 0 L 0.734375 0 L 0.734375 -7.59375 L 2.5625 -7.59375 L 5.921875 -1.703125 C 5.847656 -2.242188 5.8125 -2.738281 5.8125 -3.1875 L 5.8125 -7.59375 L 7.234375 -7.59375 L 7.234375 0 Z M 5.359375 0 "/>
</g>
<g id="glyph-0-1">
<path d="M 4.34375 -1.140625 C 4.757812 -1.140625 5.160156 -1.195312 5.546875 -1.3125 C 5.941406 -1.4375 6.242188 -1.59375 6.453125 -1.78125 L 6.453125 -2.828125 L 4.59375 -2.828125 L 4.59375 -4 L 7.90625 -4 L 7.90625 -1.21875 C 7.5 -0.800781 6.972656 -0.472656 6.328125 -0.234375 C 5.679688 -0.00390625 5.003906 0.109375 4.296875 0.109375 C 3.066406 0.109375 2.117188 -0.234375 1.453125 -0.921875 C 0.785156 -1.609375 0.453125 -2.578125 0.453125 -3.828125 C 0.453125 -5.085938 0.785156 -6.050781 1.453125 -6.71875 C 2.117188 -7.382812 3.082031 -7.71875 4.34375 -7.71875 C 6.125 -7.71875 7.257812 -7.054688 7.75 -5.734375 L 6.28125 -5.296875 C 6.125 -5.679688 5.875 -5.972656 5.53125 -6.171875 C 5.195312 -6.367188 4.800781 -6.46875 4.34375 -6.46875 C 3.59375 -6.46875 3.023438 -6.238281 2.640625 -5.78125 C 2.253906 -5.332031 2.0625 -4.679688 2.0625 -3.828125 C 2.0625 -2.972656 2.257812 -2.3125 2.65625 -1.84375 C 3.0625 -1.375 3.625 -1.140625 4.34375 -1.140625 Z M 4.34375 -1.140625 "/>
</g>
<g id="glyph-0-2">
<path d="M 6.9375 -2.1875 C 6.9375 -1.445312 6.660156 -0.878906 6.109375 -0.484375 C 5.554688 -0.0859375 4.742188 0.109375 3.671875 0.109375 C 2.703125 0.109375 1.941406 -0.0625 1.390625 -0.40625 C 0.835938 -0.75 0.476562 -1.273438 0.3125 -1.984375 L 1.859375 -2.234375 C 1.960938 -1.828125 2.164062 -1.53125 2.46875 -1.34375 C 2.769531 -1.164062 3.1875 -1.078125 3.71875 -1.078125 C 4.832031 -1.078125 5.390625 -1.414062 5.390625 -2.09375 C 5.390625 -2.3125 5.320312 -2.488281 5.1875 -2.625 C 5.0625 -2.769531 4.882812 -2.890625 4.65625 -2.984375 C 4.425781 -3.078125 3.984375 -3.191406 3.328125 -3.328125 C 2.753906 -3.453125 2.351562 -3.554688 2.125 -3.640625 C 1.90625 -3.722656 1.707031 -3.816406 1.53125 -3.921875 C 1.351562 -4.035156 1.203125 -4.171875 1.078125 -4.328125 C 0.953125 -4.484375 0.851562 -4.664062 0.78125 -4.875 C 0.707031 -5.082031 0.671875 -5.320312 0.671875 -5.59375 C 0.671875 -6.28125 0.925781 -6.804688 1.4375 -7.171875 C 1.957031 -7.535156 2.710938 -7.71875 3.703125 -7.71875 C 4.640625 -7.71875 5.34375 -7.566406 5.8125 -7.265625 C 6.289062 -6.972656 6.597656 -6.488281 6.734375 -5.8125 L 5.1875 -5.59375 C 5.113281 -5.925781 4.953125 -6.175781 4.703125 -6.34375 C 4.460938 -6.507812 4.117188 -6.59375 3.671875 -6.59375 C 2.703125 -6.59375 2.21875 -6.289062 2.21875 -5.6875 C 2.21875 -5.488281 2.269531 -5.320312 2.375 -5.1875 C 2.476562 -5.0625 2.628906 -4.953125 2.828125 -4.859375 C 3.035156 -4.773438 3.445312 -4.671875 4.0625 -4.546875 C 4.789062 -4.390625 5.3125 -4.242188 5.625 -4.109375 C 5.9375 -3.984375 6.179688 -3.832031 6.359375 -3.65625 C 6.546875 -3.476562 6.6875 -3.269531 6.78125 -3.03125 C 6.882812 -2.789062 6.9375 -2.507812 6.9375 -2.1875 Z M 6.9375 -2.1875 "/>
</g>
<g id="glyph-0-3">
<path d="M 0.734375 0 L 0.734375 -7.59375 L 6.71875 -7.59375 L 6.71875 -6.375 L 2.328125 -6.375 L 2.328125 -4.453125 L 6.390625 -4.453125 L 6.390625 -3.234375 L 2.328125 -3.234375 L 2.328125 -1.234375 L 6.9375 -1.234375 L 6.9375 0 Z M 0.734375 0 "/>
</g>
<g id="glyph-0-4">
<path d="M 6.984375 -5.1875 C 6.984375 -4.695312 6.875 -4.257812 6.65625 -3.875 C 6.4375 -3.5 6.117188 -3.203125 5.703125 -2.984375 C 5.285156 -2.773438 4.789062 -2.671875 4.21875 -2.671875 L 2.328125 -2.671875 L 2.328125 0 L 0.734375 0 L 0.734375 -7.59375 L 4.15625 -7.59375 C 5.0625 -7.59375 5.757812 -7.382812 6.25 -6.96875 C 6.738281 -6.550781 6.984375 -5.957031 6.984375 -5.1875 Z M 5.390625 -5.171875 C 5.390625 -5.960938 4.914062 -6.359375 3.96875 -6.359375 L 2.328125 -6.359375 L 2.328125 -3.90625 L 4.015625 -3.90625 C 4.453125 -3.90625 4.789062 -4.007812 5.03125 -4.21875 C 5.269531 -4.4375 5.390625 -4.753906 5.390625 -5.171875 Z M 5.390625 -5.171875 "/>
</g>
<g id="glyph-0-5">
<path d="M 6.109375 0 L 5.4375 -1.9375 L 2.546875 -1.9375 L 1.859375 0 L 0.28125 0 L 3.046875 -7.59375 L 4.921875 -7.59375 L 7.6875 0 Z M 3.984375 -6.421875 L 3.953125 -6.3125 C 3.921875 -6.175781 3.878906 -6.023438 3.828125 -5.859375 C 3.773438 -5.703125 3.460938 -4.796875 2.890625 -3.140625 L 5.078125 -3.140625 L 4.328125 -5.328125 L 4.09375 -6.0625 Z M 3.984375 -6.421875 "/>
</g>
<g id="glyph-0-6">
<path d="M 8.125 -3.828125 C 8.125 -3.046875 7.96875 -2.351562 7.65625 -1.75 C 7.34375 -1.144531 6.894531 -0.679688 6.3125 -0.359375 C 5.726562 -0.046875 5.050781 0.109375 4.28125 0.109375 C 3.082031 0.109375 2.144531 -0.238281 1.46875 -0.9375 C 0.789062 -1.644531 0.453125 -2.609375 0.453125 -3.828125 C 0.453125 -5.046875 0.789062 -6 1.46875 -6.6875 C 2.144531 -7.375 3.082031 -7.71875 4.28125 -7.71875 C 5.488281 -7.71875 6.429688 -7.367188 7.109375 -6.671875 C 7.785156 -5.984375 8.125 -5.035156 8.125 -3.828125 Z M 6.5 -3.828125 C 6.5 -4.648438 6.304688 -5.296875 5.921875 -5.765625 C 5.535156 -6.234375 4.988281 -6.46875 4.28125 -6.46875 C 3.570312 -6.46875 3.023438 -6.234375 2.640625 -5.765625 C 2.253906 -5.304688 2.0625 -4.660156 2.0625 -3.828125 C 2.0625 -2.992188 2.257812 -2.335938 2.65625 -1.859375 C 3.050781 -1.378906 3.59375 -1.140625 4.28125 -1.140625 C 4.988281 -1.140625 5.535156 -1.375 5.921875 -1.84375 C 6.304688 -2.3125 6.5 -2.972656 6.5 -3.828125 Z M 6.5 -3.828125 "/>
</g>
<g id="glyph-0-7">
<path d="M 3.90625 0.109375 C 2.851562 0.109375 2.046875 -0.144531 1.484375 -0.65625 C 0.929688 -1.164062 0.65625 -1.894531 0.65625 -2.84375 L 0.65625 -7.59375 L 2.25 -7.59375 L 2.25 -2.96875 C 2.25 -2.375 2.390625 -1.921875 2.671875 -1.609375 C 2.960938 -1.296875 3.382812 -1.140625 3.9375 -1.140625 C 4.507812 -1.140625 4.945312 -1.300781 5.25 -1.625 C 5.5625 -1.945312 5.71875 -2.414062 5.71875 -3.03125 L 5.71875 -7.59375 L 7.296875 -7.59375 L 7.296875 -2.921875 C 7.296875 -1.960938 7 -1.21875 6.40625 -0.6875 C 5.8125 -0.15625 4.976562 0.109375 3.90625 0.109375 Z M 3.90625 0.109375 "/>
</g>
</g>
<clipPath id="clip-0">
<path clip-rule="nonzero" d="M 307 175 L 343 175 L 343 210.019531 L 307 210.019531 Z M 307 175 "/>
</clipPath>
<clipPath id="clip-1">
<path clip-rule="nonzero" d="M 17 175 L 53 175 L 53 210.019531 L 17 210.019531 Z M 17 175 "/>
</clipPath>
<clipPath id="clip-2">
<path clip-rule="nonzero" d="M 235 5.976562 L 270 5.976562 L 270 41 L 235 41 Z M 235 5.976562 "/>
</clipPath>
<clipPath id="clip-3">
<path clip-rule="nonzero" d="M 234 5.976562 L 271 5.976562 L 271 41 L 234 41 Z M 234 5.976562 "/>
</clipPath>
</defs>
<rect x="-36" y="-21.6" width="432" height="259.2" fill="rgb(100%, 100%, 100%)" fill-opacity="1"/>
<rect x="-36" y="-21.6" width="432" height="259.2" fill="rgb(100%, 100%, 100%)" fill-opacity="1"/>
<path fill="none" stroke-width="1.280374" stroke-linecap="butt" stroke-linejoin="round" stroke="rgb(0%, 0%, 0%)" stroke-opacity="1" stroke-miterlimit="1" d="M 199 110.929688 L 199.042969 110.957031 L 200.507812 111.914062 L 204.902344 114.773438 L 206.367188 115.730469 L 210.761719 118.589844 L 212.226562 119.546875 L 215.15625 121.453125 L 216.621094 122.410156 L 221.015625 125.269531 L 222.480469 126.226562 L 226.875 129.085938 L 228.339844 130.042969 L 231.269531 131.949219 L 232.734375 132.90625 L 237.128906 135.765625 L 238.59375 136.722656 L 242.988281 139.582031 L 244.453125 140.539062 L 247.382812 142.445312 L 248.847656 143.402344 L 253.242188 146.261719 L 254.707031 147.21875 L 259.101562 150.078125 L 260.566406 151.035156 L 263.496094 152.941406 L 264.960938 153.898438 L 269.355469 156.757812 L 270.820312 157.714844 L 275.214844 160.574219 L 276.679688 161.53125 L 279.609375 163.4375 L 281.074219 164.394531 L 285.46875 167.253906 L 286.933594 168.210938 L 291.328125 171.070312 L 292.792969 172.027344 L 295.722656 173.933594 L 297.1875 174.890625 L 301.582031 177.75 L 303.046875 178.707031 L 305.976562 180.613281 L 306.015625 180.640625 "/>
<path fill-rule="nonzero" fill="rgb(0%, 0%, 0%)" fill-opacity="1" stroke-width="1.280374" stroke-linecap="butt" stroke-linejoin="round" stroke="rgb(0%, 0%, 0%)" stroke-opacity="1" stroke-miterlimit="1" d="M 301.042969 180.375 L 306.015625 180.640625 L 303.761719 176.199219 Z M 301.042969 180.375 "/>
<path fill="none" stroke-width="1.280374" stroke-linecap="butt" stroke-linejoin="round" stroke="rgb(0%, 0%, 0%)" stroke-opacity="1" stroke-miterlimit="1" d="M 53.984375 180.640625 L 54.023438 180.613281 L 56.953125 178.707031 L 58.417969 177.75 L 62.8125 174.890625 L 64.277344 173.933594 L 67.207031 172.027344 L 68.671875 171.070312 L 73.066406 168.210938 L 74.53125 167.253906 L 78.925781 164.394531 L 80.390625 163.4375 L 83.320312 161.53125 L 84.785156 160.574219 L 89.179688 157.714844 L 90.644531 156.757812 L 95.039062 153.898438 L 96.503906 152.941406 L 99.433594 151.035156 L 100.898438 150.078125 L 105.292969 147.21875 L 106.757812 146.261719 L 111.152344 143.402344 L 112.617188 142.445312 L 115.546875 140.539062 L 117.011719 139.582031 L 121.40625 136.722656 L 122.871094 135.765625 L 127.265625 132.90625 L 128.730469 131.949219 L 131.660156 130.042969 L 133.125 129.085938 L 137.519531 126.226562 L 138.984375 125.269531 L 143.378906 122.410156 L 144.84375 121.453125 L 147.773438 119.546875 L 149.238281 118.589844 L 153.632812 115.730469 L 155.097656 114.773438 L 159.492188 111.914062 L 160.957031 110.957031 L 161 110.929688 "/>
<path fill-rule="nonzero" fill="rgb(0%, 0%, 0%)" fill-opacity="1" stroke-width="1.280374" stroke-linecap="butt" stroke-linejoin="round" stroke="rgb(0%, 0%, 0%)" stroke-opacity="1" stroke-miterlimit="1" d="M 158.742188 115.371094 L 161 110.929688 L 156.023438 111.199219 Z M 158.742188 115.371094 "/>
<path fill="none" stroke-width="1.280374" stroke-linecap="butt" stroke-linejoin="round" stroke="rgb(0%, 0%, 0%)" stroke-opacity="1" stroke-miterlimit="1" d="M 57.660156 193.019531 L 302.339844 193.019531 "/>
<path fill-rule="nonzero" fill="rgb(0%, 0%, 0%)" fill-opacity="1" stroke-width="1.280374" stroke-linecap="butt" stroke-linejoin="round" stroke="rgb(0%, 0%, 0%)" stroke-opacity="1" stroke-miterlimit="1" d="M 298.027344 195.507812 L 302.339844 193.019531 L 298.027344 190.527344 Z M 298.027344 195.507812 "/>
<path fill="none" stroke-width="1.280374" stroke-linecap="butt" stroke-linejoin="round" stroke="rgb(0%, 0%, 0%)" stroke-opacity="1" stroke-miterlimit="1" d="M 236.808594 39.34375 L 236.394531 39.773438 L 235.664062 40.539062 L 234.929688 41.300781 L 234.199219 42.066406 L 233.464844 42.828125 L 232.734375 43.59375 L 232 44.355469 L 231.269531 45.117188 L 230.535156 45.882812 L 229.804688 46.644531 L 229.070312 47.410156 L 228.339844 48.171875 L 227.605469 48.933594 L 226.875 49.699219 L 226.140625 50.460938 L 225.410156 51.226562 L 224.675781 51.988281 L 223.945312 52.753906 L 223.210938 53.515625 L 222.480469 54.277344 L 221.746094 55.042969 L 221.015625 55.804688 L 220.28125 56.570312 L 219.550781 57.332031 L 218.816406 58.09375 L 218.085938 58.859375 L 217.351562 59.621094 L 216.621094 60.386719 L 215.886719 61.148438 L 215.15625 61.914062 L 214.421875 62.675781 L 213.691406 63.4375 L 212.957031 64.203125 L 212.226562 64.964844 L 211.492188 65.730469 L 210.761719 66.492188 L 210.027344 67.257812 L 209.296875 68.019531 L 208.5625 68.78125 L 207.832031 69.546875 L 207.097656 70.308594 L 206.367188 71.074219 L 205.632812 71.835938 L 204.902344 72.597656 L 204.167969 73.363281 L 203.4375 74.125 L 202.703125 74.890625 L 201.972656 75.652344 L 201.238281 76.417969 L 200.507812 77.179688 L 199.773438 77.941406 L 199.042969 78.707031 L 198.308594 79.46875 L 197.578125 80.234375 L 196.84375 80.996094 L 196.113281 81.757812 L 195.699219 82.191406 "/>
<path fill-rule="nonzero" fill="rgb(0%, 0%, 0%)" fill-opacity="1" stroke-width="1.280374" stroke-linecap="butt" stroke-linejoin="round" stroke="rgb(0%, 0%, 0%)" stroke-opacity="1" stroke-miterlimit="1" d="M 196.890625 77.351562 L 195.699219 82.191406 L 200.484375 80.800781 Z M 196.890625 77.351562 "/>
<path fill="none" stroke-width="1.280374" stroke-linecap="butt" stroke-linejoin="round" stroke="rgb(0%, 0%, 0%)" stroke-opacity="1" stroke-miterlimit="1" d="M 261.40625 43.839844 L 262.03125 45.308594 L 262.761719 47.027344 L 263.496094 48.746094 L 264.226562 50.460938 L 264.960938 52.179688 L 265.691406 53.898438 L 266.425781 55.613281 L 267.15625 57.332031 L 267.890625 59.050781 L 268.621094 60.765625 L 269.355469 62.484375 L 270.085938 64.203125 L 270.820312 65.921875 L 271.550781 67.636719 L 272.285156 69.355469 L 273.015625 71.074219 L 273.75 72.789062 L 274.480469 74.507812 L 275.214844 76.226562 L 275.945312 77.941406 L 276.679688 79.660156 L 277.410156 81.378906 L 278.144531 83.09375 L 278.875 84.8125 L 279.609375 86.53125 L 280.339844 88.25 L 281.074219 89.964844 L 281.804688 91.683594 L 282.539062 93.402344 L 283.269531 95.117188 L 284.003906 96.835938 L 284.734375 98.554688 L 285.46875 100.269531 L 286.199219 101.988281 L 286.933594 103.707031 L 287.664062 105.421875 L 288.398438 107.140625 L 289.128906 108.859375 L 289.863281 110.578125 L 290.59375 112.292969 L 291.328125 114.011719 L 292.058594 115.730469 L 292.792969 117.445312 L 293.523438 119.164062 L 294.257812 120.882812 L 294.988281 122.597656 L 295.722656 124.316406 L 296.453125 126.035156 L 297.1875 127.75 L 297.917969 129.46875 L 298.652344 131.1875 L 299.382812 132.90625 L 300.117188 134.621094 L 300.847656 136.339844 L 301.582031 138.058594 L 302.3125 139.773438 L 303.046875 141.492188 L 303.777344 143.210938 L 304.511719 144.925781 L 305.242188 146.644531 L 305.976562 148.363281 L 306.707031 150.078125 L 307.441406 151.796875 L 308.171875 153.515625 L 308.90625 155.234375 L 309.636719 156.949219 L 310.371094 158.667969 L 311.101562 160.386719 L 311.835938 162.101562 L 312.566406 163.820312 L 313.300781 165.539062 L 314.03125 167.253906 L 314.765625 168.972656 L 315.496094 170.691406 L 316.125 172.160156 "/>
<path fill-rule="nonzero" fill="rgb(0%, 0%, 0%)" fill-opacity="1" stroke-width="1.280374" stroke-linecap="butt" stroke-linejoin="round" stroke="rgb(0%, 0%, 0%)" stroke-opacity="1" stroke-miterlimit="1" d="M 312.140625 169.167969 L 316.125 172.160156 L 316.722656 167.214844 Z M 312.140625 169.167969 "/>
<path fill-rule="nonzero" fill="rgb(0%, 0%, 0%)" fill-opacity="1" stroke-width="0.708661" stroke-linecap="round" stroke-linejoin="round" stroke="rgb(0%, 0%, 0%)" stroke-opacity="1" stroke-miterlimit="10" d="M 197.425781 98.554688 C 197.425781 108.175781 189.625 115.980469 180 115.980469 C 170.375 115.980469 162.574219 108.175781 162.574219 98.554688 C 162.574219 88.929688 170.375 81.128906 180 81.128906 C 189.625 81.128906 197.425781 88.929688 197.425781 98.554688 "/>
<g clip-path="url(#clip-0)">
<path fill-rule="nonzero" fill="rgb(0%, 0%, 0%)" fill-opacity="1" stroke-width="0.708661" stroke-linecap="round" stroke-linejoin="round" stroke="rgb(0%, 0%, 0%)" stroke-opacity="1" stroke-miterlimit="10" d="M 342.445312 193.019531 C 342.445312 202.644531 334.644531 210.445312 325.019531 210.445312 C 315.394531 210.445312 307.59375 202.644531 307.59375 193.019531 C 307.59375 183.394531 315.394531 175.59375 325.019531 175.59375 C 334.644531 175.59375 342.445312 183.394531 342.445312 193.019531 "/>
</g>
<g clip-path="url(#clip-1)">
<path fill-rule="nonzero" fill="rgb(0%, 0%, 0%)" fill-opacity="1" stroke-width="0.708661" stroke-linecap="round" stroke-linejoin="round" stroke="rgb(0%, 0%, 0%)" stroke-opacity="1" stroke-miterlimit="10" d="M 52.40625 193.019531 C 52.40625 202.644531 44.605469 210.445312 34.980469 210.445312 C 25.355469 210.445312 17.554688 202.644531 17.554688 193.019531 C 17.554688 183.394531 25.355469 175.59375 34.980469 175.59375 C 44.605469 175.59375 52.40625 183.394531 52.40625 193.019531 "/>
</g>
<g clip-path="url(#clip-2)">
<path fill-rule="nonzero" fill="rgb(0%, 0%, 0%)" fill-opacity="1" d="M 269.933594 22.980469 C 269.933594 32.605469 262.132812 40.40625 252.507812 40.40625 C 242.886719 40.40625 235.082031 32.605469 235.082031 22.980469 C 235.082031 13.355469 242.886719 5.554688 252.507812 5.554688 C 262.132812 5.554688 269.933594 13.355469 269.933594 22.980469 "/>
</g>
<g clip-path="url(#clip-3)">
<path fill="none" stroke-width="0.708661" stroke-linecap="round" stroke-linejoin="round" stroke="rgb(0%, 0%, 0%)" stroke-opacity="1" stroke-miterlimit="10" d="M 269.933594 22.980469 C 269.933594 32.605469 262.132812 40.40625 252.507812 40.40625 C 242.886719 40.40625 235.082031 32.605469 235.082031 22.980469 C 235.082031 13.355469 242.886719 5.554688 252.507812 5.554688 C 262.132812 5.554688 269.933594 13.355469 269.933594 22.980469 "/>
</g>
<g fill="rgb(100%, 100%, 100%)" fill-opacity="1">
<use xlink:href="#glyph-0-0" x="164.5" y="102.547852"/>
<use xlink:href="#glyph-0-1" x="172.5" y="102.547852"/>
<use xlink:href="#glyph-0-2" x="181.5" y="102.547852"/>
<use xlink:href="#glyph-0-3" x="188.5" y="102.547852"/>
</g>
<g fill="rgb(100%, 100%, 100%)" fill-opacity="1">
<use xlink:href="#glyph-0-4" x="310.519531" y="197.012695"/>
<use xlink:href="#glyph-0-5" x="317.519531" y="197.012695"/>
<use xlink:href="#glyph-0-2" x="325.519531" y="197.012695"/>
<use xlink:href="#glyph-0-2" x="332.519531" y="197.012695"/>
</g>
<g fill="rgb(100%, 100%, 100%)" fill-opacity="1">
<use xlink:href="#glyph-0-2" x="23.480469" y="197.012695"/>
<use xlink:href="#glyph-0-6" x="30.480469" y="197.012695"/>
<use xlink:href="#glyph-0-4" x="39.480469" y="197.012695"/>
</g>
<g fill="rgb(100%, 100%, 100%)" fill-opacity="1">
<use xlink:href="#glyph-0-7" x="248.507812" y="26.973633"/>
</g>
</svg>
